<?xml version="1.0" encoding="utf-8" standalone="no"?>
<!DOCTYPE svg PUBLIC "-//W3C//DTD SVG 1.1//EN"
  "http://www.w3.org/Graphics/SVG/1.1/DTD/svg11.dtd">
<svg xmlns:xlink="http://www.w3.org/1999/xlink" width="632.761291pt" height="399.428438pt" viewBox="0 0 632.761291 399.428438" xmlns="http://www.w3.org/2000/svg" version="1.1">
 <metadata>
  <rdf:RDF xmlns:dc="http://purl.org/dc/elements/1.1/" xmlns:cc="http://creativecommons.org/ns#" xmlns:rdf="http://www.w3.org/1999/02/22-rdf-syntax-ns#">
   <cc:Work>
    <dc:type rdf:resource="http://purl.org/dc/dcmitype/StillImage"/>
    <dc:date>2023-10-08T11:46:35.467094</dc:date>
    <dc:format>image/svg+xml</dc:format>
    <dc:creator>
     <cc:Agent>
      <dc:title>Matplotlib v3.7.1, https://matplotlib.org/</dc:title>
     </cc:Agent>
    </dc:creator>
   </cc:Work>
  </rdf:RDF>
 </metadata>
 <defs>
  <style type="text/css">*{stroke-linejoin: round; stroke-linecap: butt}</style>
 </defs>
 <g id="figure_1">
  <g id="patch_1">
   <path d="M 0 399.428438 
L 632.761291 399.428438 
L 632.761291 0 
L 0 0 
z
" style="fill: #ffffff"/>
  </g>
  <g id="axes_1">
   <g id="patch_2">
    <path d="M 56.71875 339.84 
L 614.71875 339.84 
L 614.71875 7.2 
L 56.71875 7.2 
z
" style="fill: #ffffff"/>
   </g>
   <g id="line2d_1">
    <path d="M 173.161244 298.26 
L 260.618351 131.94 
" clip-path="url(#pf9c51a8c96)" style="fill: none; stroke: #808080; stroke-opacity: 0.2; stroke-width: 2; stroke-linecap: round"/>
   </g>
   <g id="line2d_2">
    <path d="M 145.636954 298.26 
L 305.035708 131.94 
" clip-path="url(#pf9c51a8c96)" style="fill: none; stroke: #808080; stroke-opacity: 0.2; stroke-width: 2; stroke-linecap: round"/>
   </g>
   <g id="line2d_3">
    <path d="M 172.103688 298.26 
L 237.498226 131.94 
" clip-path="url(#pf9c51a8c96)" style="fill: none; stroke: #808080; stroke-opacity: 0.2; stroke-width: 2; stroke-linecap: round"/>
   </g>
   <g id="line2d_4">
    <path d="M 143.090471 298.26 
L 206.209872 131.94 
" clip-path="url(#pf9c51a8c96)" style="fill: none; stroke: #808080; stroke-opacity: 0.2; stroke-width: 2; stroke-linecap: round"/>
   </g>
   <g id="line2d_5">
    <path d="M 178.98476 298.26 
L 529.724635 131.94 
" clip-path="url(#pf9c51a8c96)" style="fill: none; stroke: #808080; stroke-opacity: 0.2; stroke-width: 2; stroke-linecap: round"/>
   </g>
   <g id="line2d_6">
    <path d="M 121.007029 298.26 
L 140.321344 131.94 
" clip-path="url(#pf9c51a8c96)" style="fill: none; stroke: #808080; stroke-opacity: 0.2; stroke-width: 2; stroke-linecap: round"/>
   </g>
   <g id="line2d_7">
    <path d="M 215.887902 298.26 
L 391.477004 131.94 
" clip-path="url(#pf9c51a8c96)" style="fill: none; stroke: #808080; stroke-opacity: 0.2; stroke-width: 2; stroke-linecap: round"/>
   </g>
   <g id="line2d_8">
    <path d="M 199.35663 298.26 
L 355.659249 131.94 
" clip-path="url(#pf9c51a8c96)" style="fill: none; stroke: #808080; stroke-opacity: 0.2; stroke-width: 2; stroke-linecap: round"/>
   </g>
   <g id="line2d_9">
    <path d="M 167.609074 298.26 
L 250.933363 131.94 
" clip-path="url(#pf9c51a8c96)" style="fill: none; stroke: #808080; stroke-opacity: 0.2; stroke-width: 2; stroke-linecap: round"/>
   </g>
   <g id="line2d_10">
    <path d="M 106.813513 298.26 
L 133.001942 131.94 
" clip-path="url(#pf9c51a8c96)" style="fill: none; stroke: #808080; stroke-opacity: 0.2; stroke-width: 2; stroke-linecap: round"/>
   </g>
   <g id="line2d_11">
    <path d="M 100.843887 298.26 
L 149.679324 131.94 
" clip-path="url(#pf9c51a8c96)" style="fill: none; stroke: #808080; stroke-opacity: 0.2; stroke-width: 2; stroke-linecap: round"/>
   </g>
   <g id="line2d_12">
    <path d="M 128.173363 298.26 
L 172.611593 131.94 
" clip-path="url(#pf9c51a8c96)" style="fill: none; stroke: #808080; stroke-opacity: 0.2; stroke-width: 2; stroke-linecap: round"/>
   </g>
   <g id="line2d_13">
    <path d="M 118.397927 298.26 
L 185.316181 131.94 
" clip-path="url(#pf9c51a8c96)" style="fill: none; stroke: #808080; stroke-opacity: 0.2; stroke-width: 2; stroke-linecap: round"/>
   </g>
   <g id="matplotlib.axis_1">
    <g id="xtick_1">
     <g id="line2d_14">
      <path d="M 56.71875 339.84 
L 56.71875 7.2 
" clip-path="url(#pf9c51a8c96)" style="fill: none; stroke: #d3d3d3; stroke-width: 0.5; stroke-linecap: round"/>
     </g>
     <g id="text_1">
      <text style="fill: #262626; font: 22px 'Arial', 'DejaVu Sans', 'Liberation Sans', 'Bitstream Vera Sans', sans-serif; text-anchor: middle" x="56.71875" y="365.087188" transform="rotate(-0 56.71875 365.087188)">0</text>
     </g>
    </g>
    <g id="xtick_2">
     <g id="line2d_15">
      <path d="M 126.29481 339.84 
L 126.29481 7.2 
" clip-path="url(#pf9c51a8c96)" style="fill: none; stroke: #d3d3d3; stroke-width: 0.5; stroke-linecap: round"/>
     </g>
     <g id="text_2">
      <text style="fill: #262626; font: 22px 'Arial', 'DejaVu Sans', 'Liberation Sans', 'Bitstream Vera Sans', sans-serif; text-anchor: middle" x="126.29481" y="365.087188" transform="rotate(-0 126.29481 365.087188)">5</text>
     </g>
    </g>
    <g id="xtick_3">
     <g id="line2d_16">
      <path d="M 195.87087 339.84 
L 195.87087 7.2 
" clip-path="url(#pf9c51a8c96)" style="fill: none; stroke: #d3d3d3; stroke-width: 0.5; stroke-linecap: round"/>
     </g>
     <g id="text_3">
      <text style="fill: #262626; font: 22px 'Arial', 'DejaVu Sans', 'Liberation Sans', 'Bitstream Vera Sans', sans-serif; text-anchor: middle" x="195.87087" y="365.087188" transform="rotate(-0 195.87087 365.087188)">10</text>
     </g>
    </g>
    <g id="xtick_4">
     <g id="line2d_17">
      <path d="M 265.44693 339.84 
L 265.44693 7.2 
" clip-path="url(#pf9c51a8c96)" style="fill: none; stroke: #d3d3d3; stroke-width: 0.5; stroke-linecap: round"/>
     </g>
     <g id="text_4">
      <text style="fill: #262626; font: 22px 'Arial', 'DejaVu Sans', 'Liberation Sans', 'Bitstream Vera Sans', sans-serif; text-anchor: middle" x="265.44693" y="365.087188" transform="rotate(-0 265.44693 365.087188)">15</text>
     </g>
    </g>
    <g id="xtick_5">
     <g id="line2d_18">
      <path d="M 335.022989 339.84 
L 335.022989 7.2 
" clip-path="url(#pf9c51a8c96)" style="fill: none; stroke: #d3d3d3; stroke-width: 0.5; stroke-linecap: round"/>
     </g>
     <g id="text_5">
      <text style="fill: #262626; font: 22px 'Arial', 'DejaVu Sans', 'Liberation Sans', 'Bitstream Vera Sans', sans-serif; text-anchor: middle" x="335.022989" y="365.087188" transform="rotate(-0 335.022989 365.087188)">20</text>
     </g>
    </g>
    <g id="xtick_6">
     <g id="line2d_19">
      <path d="M 404.599049 339.84 
L 404.599049 7.2 
" clip-path="url(#pf9c51a8c96)" style="fill: none; stroke: #d3d3d3; stroke-width: 0.5; stroke-linecap: round"/>
     </g>
     <g id="text_6">
      <text style="fill: #262626; font: 22px 'Arial', 'DejaVu Sans', 'Liberation Sans', 'Bitstream Vera Sans', sans-serif; text-anchor: middle" x="404.599049" y="365.087188" transform="rotate(-0 404.599049 365.087188)">25</text>
     </g>
    </g>
    <g id="xtick_7">
     <g id="line2d_20">
      <path d="M 474.175109 339.84 
L 474.175109 7.2 
" clip-path="url(#pf9c51a8c96)" style="fill: none; stroke: #d3d3d3; stroke-width: 0.5; stroke-linecap: round"/>
     </g>
     <g id="text_7">
      <text style="fill: #262626; font: 22px 'Arial', 'DejaVu Sans', 'Liberation Sans', 'Bitstream Vera Sans', sans-serif; text-anchor: middle" x="474.175109" y="365.087188" transform="rotate(-0 474.175109 365.087188)">30</text>
     </g>
    </g>
    <g id="xtick_8">
     <g id="line2d_21">
      <path d="M 543.751169 339.84 
L 543.751169 7.2 
" clip-path="url(#pf9c51a8c96)" style="fill: none; stroke: #d3d3d3; stroke-width: 0.5; stroke-linecap: round"/>
     </g>
     <g id="text_8">
      <text style="fill: #262626; font: 22px 'Arial', 'DejaVu Sans', 'Liberation Sans', 'Bitstream Vera Sans', sans-serif; text-anchor: middle" x="543.751169" y="365.087188" transform="rotate(-0 543.751169 365.087188)">35</text>
     </g>
    </g>
    <g id="xtick_9">
     <g id="line2d_22">
      <path d="M 613.327229 339.84 
L 613.327229 7.2 
" clip-path="url(#pf9c51a8c96)" style="fill: none; stroke: #d3d3d3; stroke-width: 0.5; stroke-linecap: round"/>
     </g>
     <g id="text_9">
      <text style="fill: #262626; font: 22px 'Arial', 'DejaVu Sans', 'Liberation Sans', 'Bitstream Vera Sans', sans-serif; text-anchor: middle" x="613.327229" y="365.087188" transform="rotate(-0 613.327229 365.087188)">40</text>
     </g>
    </g>
    <g id="text_10">
     <text style="fill: #262626; font: 20px 'Arial', 'DejaVu Sans', 'Liberation Sans', 'Bitstream Vera Sans', sans-serif; text-anchor: middle" x="335.71875" y="388.019063" transform="rotate(-0 335.71875 388.019063)">Median time per worker (sec)</text>
    </g>
   </g>
   <g id="matplotlib.axis_2">
    <g id="ytick_1">
     <g id="text_11">
      <text style="fill: #262626; font: 20px 'Arial', 'DejaVu Sans', 'Liberation Sans', 'Bitstream Vera Sans', sans-serif; text-anchor: end" x="47.21875" y="263.837813" transform="rotate(-0 47.21875 263.837813)">DX</text>
     </g>
    </g>
    <g id="ytick_2">
     <g id="text_12">
      <text style="fill: #262626; font: 20px 'Arial', 'DejaVu Sans', 'Liberation Sans', 'Bitstream Vera Sans', sans-serif; text-anchor: end" x="47.21875" y="97.517812" transform="rotate(-0 47.21875 97.517812)">SQL</text>
     </g>
    </g>
   </g>
   <g id="patch_3">
    <path d="M 56.71875 256.68 
L 56.71875 256.68 
L 56.71875 256.68 
L 56.71875 256.68 
z
" clip-path="url(#pf9c51a8c96)" style="fill: #5875a4; stroke: #4c4c4c; stroke-width: 0.75; stroke-linejoin: miter"/>
   </g>
   <g id="patch_4">
    <path d="M 56.71875 256.68 
L 56.71875 256.68 
L 56.71875 256.68 
L 56.71875 256.68 
z
" clip-path="url(#pf9c51a8c96)" style="fill: #cc8963; stroke: #4c4c4c; stroke-width: 0.75; stroke-linejoin: miter"/>
   </g>
   <g id="PolyCollection_1">
    <defs>
     <path id="m4f0d926a1d" d="M 100.843887 -182.53744 
L 100.843887 -142.748438 
L 102.005948 -142.748438 
L 103.168009 -142.748438 
L 104.330069 -142.748438 
L 105.49213 -142.748438 
L 106.654191 -142.748438 
L 107.816252 -142.748438 
L 108.978312 -142.748438 
L 110.140373 -142.748438 
L 111.302434 -142.748438 
L 112.464495 -142.748438 
L 113.626555 -142.748438 
L 114.788616 -142.748438 
L 115.950677 -142.748438 
L 117.112738 -142.748438 
L 118.274799 -142.748438 
L 119.436859 -142.748438 
L 120.59892 -142.748438 
L 121.760981 -142.748438 
L 122.923042 -142.748438 
L 124.085102 -142.748438 
L 125.247163 -142.748438 
L 126.409224 -142.748438 
L 127.571285 -142.748438 
L 128.733345 -142.748438 
L 129.895406 -142.748438 
L 131.057467 -142.748438 
L 132.219528 -142.748438 
L 133.381588 -142.748438 
L 134.543649 -142.748438 
L 135.70571 -142.748438 
L 136.867771 -142.748438 
L 138.029831 -142.748438 
L 139.191892 -142.748438 
L 140.353953 -142.748438 
L 141.516014 -142.748438 
L 142.678074 -142.748438 
L 143.840135 -142.748438 
L 145.002196 -142.748438 
L 146.164257 -142.748438 
L 147.326317 -142.748438 
L 148.488378 -142.748438 
L 149.650439 -142.748438 
L 150.8125 -142.748438 
L 151.97456 -142.748438 
L 153.136621 -142.748438 
L 154.298682 -142.748438 
L 155.460743 -142.748438 
L 156.622804 -142.748438 
L 157.784864 -142.748438 
L 158.946925 -142.748438 
L 160.108986 -142.748438 
L 161.271047 -142.748438 
L 162.433107 -142.748438 
L 163.595168 -142.748438 
L 164.757229 -142.748438 
L 165.91929 -142.748438 
L 167.08135 -142.748438 
L 168.243411 -142.748438 
L 169.405472 -142.748438 
L 170.567533 -142.748438 
L 171.729593 -142.748438 
L 172.891654 -142.748438 
L 174.053715 -142.748438 
L 175.215776 -142.748438 
L 176.377836 -142.748438 
L 177.539897 -142.748438 
L 178.701958 -142.748438 
L 179.864019 -142.748438 
L 181.026079 -142.748438 
L 182.18814 -142.748438 
L 183.350201 -142.748438 
L 184.512262 -142.748438 
L 185.674322 -142.748438 
L 186.836383 -142.748438 
L 187.998444 -142.748438 
L 189.160505 -142.748438 
L 190.322565 -142.748438 
L 191.484626 -142.748438 
L 192.646687 -142.748438 
L 193.808748 -142.748438 
L 194.970808 -142.748438 
L 196.132869 -142.748438 
L 197.29493 -142.748438 
L 198.456991 -142.748438 
L 199.619052 -142.748438 
L 200.781112 -142.748438 
L 201.943173 -142.748438 
L 203.105234 -142.748438 
L 204.267295 -142.748438 
L 205.429355 -142.748438 
L 206.591416 -142.748438 
L 207.753477 -142.748438 
L 208.915538 -142.748438 
L 210.077598 -142.748438 
L 211.239659 -142.748438 
L 212.40172 -142.748438 
L 213.563781 -142.748438 
L 214.725841 -142.748438 
L 215.887902 -142.748438 
L 215.887902 -165.665405 
L 215.887902 -165.665405 
L 214.725841 -166.577841 
L 213.563781 -167.50026 
L 212.40172 -168.432324 
L 211.239659 -169.373708 
L 210.077598 -170.324087 
L 208.915538 -171.28311 
L 207.753477 -172.250378 
L 206.591416 -173.225428 
L 205.429355 -174.207699 
L 204.267295 -175.196518 
L 203.105234 -176.191071 
L 201.943173 -177.190388 
L 200.781112 -178.193324 
L 199.619052 -179.198541 
L 198.456991 -180.204504 
L 197.29493 -181.20947 
L 196.132869 -182.211491 
L 194.970808 -183.208417 
L 193.808748 -184.197906 
L 192.646687 -185.177441 
L 191.484626 -186.144354 
L 190.322565 -187.09585 
L 189.160505 -188.029041 
L 187.998444 -188.940984 
L 186.836383 -189.828723 
L 185.674322 -190.689332 
L 184.512262 -191.519961 
L 183.350201 -192.317885 
L 182.18814 -193.080554 
L 181.026079 -193.805633 
L 179.864019 -194.491056 
L 178.701958 -195.13506 
L 177.539897 -195.736228 
L 176.377836 -196.293515 
L 175.215776 -196.806279 
L 174.053715 -197.274295 
L 172.891654 -197.697772 
L 171.729593 -198.07735 
L 170.567533 -198.414101 
L 169.405472 -198.709512 
L 168.243411 -198.965463 
L 167.08135 -199.184202 
L 165.91929 -199.368308 
L 164.757229 -199.520644 
L 163.595168 -199.644313 
L 162.433107 -199.742605 
L 161.271047 -199.818934 
L 160.108986 -199.876785 
L 158.946925 -199.919649 
L 157.784864 -199.950963 
L 156.622804 -199.974047 
L 155.460743 -199.992046 
L 154.298682 -200.007876 
L 153.136621 -200.02417 
L 151.97456 -200.043233 
L 150.8125 -200.066996 
L 149.650439 -200.096989 
L 148.488378 -200.134305 
L 147.326317 -200.179584 
L 146.164257 -200.232996 
L 145.002196 -200.294238 
L 143.840135 -200.362533 
L 142.678074 -200.436639 
L 141.516014 -200.514864 
L 140.353953 -200.59509 
L 139.191892 -200.6748 
L 138.029831 -200.751111 
L 136.867771 -200.820813 
L 135.70571 -200.880414 
L 134.543649 -200.926185 
L 133.381588 -200.95421 
L 132.219528 -200.960438 
L 131.057467 -200.940737 
L 129.895406 -200.890948 
L 128.733345 -200.806941 
L 127.571285 -200.684667 
L 126.409224 -200.52021 
L 125.247163 -200.30984 
L 124.085102 -200.050063 
L 122.923042 -199.737663 
L 121.760981 -199.369748 
L 120.59892 -198.943783 
L 119.436859 -198.457632 
L 118.274799 -197.909582 
L 117.112738 -197.298369 
L 115.950677 -196.623197 
L 114.788616 -195.883756 
L 113.626555 -195.080223 
L 112.464495 -194.213275 
L 111.302434 -193.284078 
L 110.140373 -192.294283 
L 108.978312 -191.246013 
L 107.816252 -190.141845 
L 106.654191 -188.984783 
L 105.49213 -187.778234 
L 104.330069 -186.525974 
L 103.168009 -185.232112 
L 102.005948 -183.901049 
L 100.843887 -182.53744 
z
" style="stroke: #4c4c4c; stroke-width: 1.5"/>
    </defs>
    <g clip-path="url(#pf9c51a8c96)">
     <use xlink:href="#m4f0d926a1d" x="0" y="399.428438" style="fill: #fdd0a2; stroke: #4c4c4c; stroke-width: 1.5"/>
    </g>
   </g>
   <g id="PolyCollection_2">
    <defs>
     <path id="ma75dcd40dd" d="M 133.001942 -353.825172 
L 133.001942 -309.068438 
L 137.009242 -309.068438 
L 141.016542 -309.068438 
L 145.023842 -309.068438 
L 149.031142 -309.068438 
L 153.038442 -309.068438 
L 157.045742 -309.068438 
L 161.053042 -309.068438 
L 165.060341 -309.068438 
L 169.067641 -309.068438 
L 173.074941 -309.068438 
L 177.082241 -309.068438 
L 181.089541 -309.068438 
L 185.096841 -309.068438 
L 189.104141 -309.068438 
L 193.111441 -309.068438 
L 197.118741 -309.068438 
L 201.126041 -309.068438 
L 205.133341 -309.068438 
L 209.140641 -309.068438 
L 213.147941 -309.068438 
L 217.155241 -309.068438 
L 221.162541 -309.068438 
L 225.16984 -309.068438 
L 229.17714 -309.068438 
L 233.18444 -309.068438 
L 237.19174 -309.068438 
L 241.19904 -309.068438 
L 245.20634 -309.068438 
L 249.21364 -309.068438 
L 253.22094 -309.068438 
L 257.22824 -309.068438 
L 261.23554 -309.068438 
L 265.24284 -309.068438 
L 269.25014 -309.068438 
L 273.25744 -309.068438 
L 277.26474 -309.068438 
L 281.27204 -309.068438 
L 285.279339 -309.068438 
L 289.286639 -309.068438 
L 293.293939 -309.068438 
L 297.301239 -309.068438 
L 301.308539 -309.068438 
L 305.315839 -309.068438 
L 309.323139 -309.068438 
L 313.330439 -309.068438 
L 317.337739 -309.068438 
L 321.345039 -309.068438 
L 325.352339 -309.068438 
L 329.359639 -309.068438 
L 333.366939 -309.068438 
L 337.374239 -309.068438 
L 341.381538 -309.068438 
L 345.388838 -309.068438 
L 349.396138 -309.068438 
L 353.403438 -309.068438 
L 357.410738 -309.068438 
L 361.418038 -309.068438 
L 365.425338 -309.068438 
L 369.432638 -309.068438 
L 373.439938 -309.068438 
L 377.447238 -309.068438 
L 381.454538 -309.068438 
L 385.461838 -309.068438 
L 389.469138 -309.068438 
L 393.476438 -309.068438 
L 397.483738 -309.068438 
L 401.491037 -309.068438 
L 405.498337 -309.068438 
L 409.505637 -309.068438 
L 413.512937 -309.068438 
L 417.520237 -309.068438 
L 421.527537 -309.068438 
L 425.534837 -309.068438 
L 429.542137 -309.068438 
L 433.549437 -309.068438 
L 437.556737 -309.068438 
L 441.564037 -309.068438 
L 445.571337 -309.068438 
L 449.578637 -309.068438 
L 453.585937 -309.068438 
L 457.593237 -309.068438 
L 461.600536 -309.068438 
L 465.607836 -309.068438 
L 469.615136 -309.068438 
L 473.622436 -309.068438 
L 477.629736 -309.068438 
L 481.637036 -309.068438 
L 485.644336 -309.068438 
L 489.651636 -309.068438 
L 493.658936 -309.068438 
L 497.666236 -309.068438 
L 501.673536 -309.068438 
L 505.680836 -309.068438 
L 509.688136 -309.068438 
L 513.695436 -309.068438 
L 517.702735 -309.068438 
L 521.710035 -309.068438 
L 525.717335 -309.068438 
L 529.724635 -309.068438 
L 529.724635 -318.012792 
L 529.724635 -318.012792 
L 525.717335 -318.18332 
L 521.710035 -318.347437 
L 517.702735 -318.506674 
L 513.695436 -318.662778 
L 509.688136 -318.817686 
L 505.680836 -318.973496 
L 501.673536 -319.132434 
L 497.666236 -319.296817 
L 493.658936 -319.469015 
L 489.651636 -319.651411 
L 485.644336 -319.84636 
L 481.637036 -320.056151 
L 477.629736 -320.282965 
L 473.622436 -320.528843 
L 469.615136 -320.795648 
L 465.607836 -321.085038 
L 461.600536 -321.398445 
L 457.593237 -321.737049 
L 453.585937 -322.10177 
L 449.578637 -322.493256 
L 445.571337 -322.911886 
L 441.564037 -323.357771 
L 437.556737 -323.830768 
L 433.549437 -324.33049 
L 429.542137 -324.856335 
L 425.534837 -325.407506 
L 421.527537 -325.98304 
L 417.520237 -326.581844 
L 413.512937 -327.202727 
L 409.505637 -327.844431 
L 405.498337 -328.505673 
L 401.491037 -329.185173 
L 397.483738 -329.881688 
L 393.476438 -330.59404 
L 389.469138 -331.321142 
L 385.461838 -332.06202 
L 381.454538 -332.815825 
L 377.447238 -333.581851 
L 373.439938 -334.35953 
L 369.432638 -335.148443 
L 365.425338 -335.948304 
L 361.418038 -336.758956 
L 357.410738 -337.580352 
L 353.403438 -338.412531 
L 349.396138 -339.255599 
L 345.388838 -340.109699 
L 341.381538 -340.974976 
L 337.374239 -341.851554 
L 333.366939 -342.739494 
L 329.359639 -343.638767 
L 325.352339 -344.549221 
L 321.345039 -345.470549 
L 317.337739 -346.402262 
L 313.330439 -347.343663 
L 309.323139 -348.293827 
L 305.315839 -349.25158 
L 301.308539 -350.215488 
L 297.301239 -351.183842 
L 293.293939 -352.154658 
L 289.286639 -353.125671 
L 285.279339 -354.094338 
L 281.27204 -355.057847 
L 277.26474 -356.013123 
L 273.25744 -356.956843 
L 269.25014 -357.885452 
L 265.24284 -358.795181 
L 261.23554 -359.682069 
L 257.22824 -360.541987 
L 253.22094 -361.370661 
L 249.21364 -362.1637 
L 245.20634 -362.916628 
L 241.19904 -363.624908 
L 237.19174 -364.283978 
L 233.18444 -364.889284 
L 229.17714 -365.436312 
L 225.16984 -365.920625 
L 221.162541 -366.337902 
L 217.155241 -366.683974 
L 213.147941 -366.954865 
L 209.140641 -367.146831 
L 205.133341 -367.256406 
L 201.126041 -367.280438 
L 197.118741 -367.216134 
L 193.111441 -367.061105 
L 189.104141 -366.813396 
L 185.096841 -366.471537 
L 181.089541 -366.034569 
L 177.082241 -365.502081 
L 173.074941 -364.874237 
L 169.067641 -364.151799 
L 165.060341 -363.336147 
L 161.053042 -362.429284 
L 157.045742 -361.433844 
L 153.038442 -360.353089 
L 149.031142 -359.19089 
L 145.023842 -357.951712 
L 141.016542 -356.640585 
L 137.009242 -355.263061 
L 133.001942 -353.825172 
z
" style="stroke: #4c4c4c; stroke-width: 1.5"/>
    </defs>
    <g clip-path="url(#pf9c51a8c96)">
     <use xlink:href="#ma75dcd40dd" x="0" y="399.428438" style="fill: #c6dbef; stroke: #4c4c4c; stroke-width: 1.5"/>
    </g>
   </g>
   <g id="line2d_23">
    <defs>
     <path id="md1fd07fba3" d="M 0 -5.5 
L -5.5 5.5 
L 5.5 5.5 
z
" style="stroke: #ffffff; stroke-linejoin: miter"/>
    </defs>
    <g clip-path="url(#pf9c51a8c96)">
     <use xlink:href="#md1fd07fba3" x="173.161244" y="298.26" style="fill: #ffffff; stroke: #ffffff; stroke-linejoin: miter"/>
     <use xlink:href="#md1fd07fba3" x="145.636954" y="298.26" style="fill: #ffffff; stroke: #ffffff; stroke-linejoin: miter"/>
     <use xlink:href="#md1fd07fba3" x="172.103688" y="298.26" style="fill: #ffffff; stroke: #ffffff; stroke-linejoin: miter"/>
     <use xlink:href="#md1fd07fba3" x="143.090471" y="298.26" style="fill: #ffffff; stroke: #ffffff; stroke-linejoin: miter"/>
     <use xlink:href="#md1fd07fba3" x="178.98476" y="298.26" style="fill: #ffffff; stroke: #ffffff; stroke-linejoin: miter"/>
     <use xlink:href="#md1fd07fba3" x="121.007029" y="298.26" style="fill: #ffffff; stroke: #ffffff; stroke-linejoin: miter"/>
     <use xlink:href="#md1fd07fba3" x="215.887902" y="298.26" style="fill: #ffffff; stroke: #ffffff; stroke-linejoin: miter"/>
     <use xlink:href="#md1fd07fba3" x="199.35663" y="298.26" style="fill: #ffffff; stroke: #ffffff; stroke-linejoin: miter"/>
     <use xlink:href="#md1fd07fba3" x="167.609074" y="298.26" style="fill: #ffffff; stroke: #ffffff; stroke-linejoin: miter"/>
     <use xlink:href="#md1fd07fba3" x="106.813513" y="298.26" style="fill: #ffffff; stroke: #ffffff; stroke-linejoin: miter"/>
     <use xlink:href="#md1fd07fba3" x="100.843887" y="298.26" style="fill: #ffffff; stroke: #ffffff; stroke-linejoin: miter"/>
     <use xlink:href="#md1fd07fba3" x="128.173363" y="298.26" style="fill: #ffffff; stroke: #ffffff; stroke-linejoin: miter"/>
     <use xlink:href="#md1fd07fba3" x="118.397927" y="298.26" style="fill: #ffffff; stroke: #ffffff; stroke-linejoin: miter"/>
    </g>
   </g>
   <g id="line2d_24">
    <g clip-path="url(#pf9c51a8c96)">
     <use xlink:href="#md1fd07fba3" x="260.618351" y="131.94" style="fill: #ffffff; stroke: #ffffff; stroke-linejoin: miter"/>
     <use xlink:href="#md1fd07fba3" x="305.035708" y="131.94" style="fill: #ffffff; stroke: #ffffff; stroke-linejoin: miter"/>
     <use xlink:href="#md1fd07fba3" x="237.498226" y="131.94" style="fill: #ffffff; stroke: #ffffff; stroke-linejoin: miter"/>
     <use xlink:href="#md1fd07fba3" x="206.209872" y="131.94" style="fill: #ffffff; stroke: #ffffff; stroke-linejoin: miter"/>
     <use xlink:href="#md1fd07fba3" x="529.724635" y="131.94" style="fill: #ffffff; stroke: #ffffff; stroke-linejoin: miter"/>
     <use xlink:href="#md1fd07fba3" x="140.321344" y="131.94" style="fill: #ffffff; stroke: #ffffff; stroke-linejoin: miter"/>
     <use xlink:href="#md1fd07fba3" x="391.477004" y="131.94" style="fill: #ffffff; stroke: #ffffff; stroke-linejoin: miter"/>
     <use xlink:href="#md1fd07fba3" x="355.659249" y="131.94" style="fill: #ffffff; stroke: #ffffff; stroke-linejoin: miter"/>
     <use xlink:href="#md1fd07fba3" x="250.933363" y="131.94" style="fill: #ffffff; stroke: #ffffff; stroke-linejoin: miter"/>
     <use xlink:href="#md1fd07fba3" x="133.001942" y="131.94" style="fill: #ffffff; stroke: #ffffff; stroke-linejoin: miter"/>
     <use xlink:href="#md1fd07fba3" x="149.679324" y="131.94" style="fill: #ffffff; stroke: #ffffff; stroke-linejoin: miter"/>
     <use xlink:href="#md1fd07fba3" x="172.611593" y="131.94" style="fill: #ffffff; stroke: #ffffff; stroke-linejoin: miter"/>
     <use xlink:href="#md1fd07fba3" x="185.316181" y="131.94" style="fill: #ffffff; stroke: #ffffff; stroke-linejoin: miter"/>
    </g>
   </g>
   <g id="line2d_25">
    <path d="M 121.007029 256.68 
L 121.007029 201.046608 
" clip-path="url(#pf9c51a8c96)" style="fill: none; stroke-dasharray: 3.375,3.375; stroke-dashoffset: 0; stroke: #4c4c4c; stroke-width: 1.5"/>
   </g>
   <g id="line2d_26">
    <path d="M 145.636954 256.68 
L 145.636954 199.770287 
" clip-path="url(#pf9c51a8c96)" style="fill: none; stroke: #000000; stroke-opacity: 0.8; stroke-width: 1.2; stroke-linecap: round"/>
   </g>
   <g id="line2d_27">
    <path d="M 173.161244 256.68 
L 173.161244 202.280159 
" clip-path="url(#pf9c51a8c96)" style="fill: none; stroke-dasharray: 3.375,3.375; stroke-dashoffset: 0; stroke: #4c4c4c; stroke-width: 1.5"/>
   </g>
   <g id="line2d_28">
    <path d="M 172.611593 90.36 
L 172.611593 35.112259 
" clip-path="url(#pf9c51a8c96)" style="fill: none; stroke-dasharray: 3.375,3.375; stroke-dashoffset: 0; stroke: #4c4c4c; stroke-width: 1.5"/>
   </g>
   <g id="line2d_29">
    <path d="M 237.498226 90.36 
L 237.498226 35.696615 
" clip-path="url(#pf9c51a8c96)" style="fill: none; stroke: #000000; stroke-opacity: 0.8; stroke-width: 1.2; stroke-linecap: round"/>
   </g>
   <g id="line2d_30">
    <path d="M 305.035708 90.36 
L 305.035708 50.578689 
" clip-path="url(#pf9c51a8c96)" style="fill: none; stroke-dasharray: 3.375,3.375; stroke-dashoffset: 0; stroke: #4c4c4c; stroke-width: 1.5"/>
   </g>
   <g id="line2d_31">
    <path d="M 145.636954 256.68 
L 237.498226 90.36 
" clip-path="url(#pf9c51a8c96)" style="fill: none; stroke: #ff0000; stroke-opacity: 0.4; stroke-width: 2; stroke-linecap: round"/>
   </g>
   <g id="patch_5">
    <path d="M 56.71875 339.84 
L 56.71875 7.2 
" style="fill: none; stroke: #cccccc; stroke-width: 1.25; stroke-linejoin: miter; stroke-linecap: square"/>
   </g>
   <g id="patch_6">
    <path d="M 56.71875 339.84 
L 614.71875 339.84 
" style="fill: none; stroke: #cccccc; stroke-width: 1.25; stroke-linejoin: miter; stroke-linecap: square"/>
   </g>
   <g id="text_13">
    <text style="fill: #e6550d; font: 24px 'Arial', 'DejaVu Sans', 'Liberation Sans', 'Bitstream Vera Sans', sans-serif; text-anchor: middle" x="145.636954" y="283.2912" transform="rotate(-0 145.636954 283.2912)">6.4</text>
   </g>
   <g id="text_14">
    <text style="fill: #3182bd; font: 24px 'Arial', 'DejaVu Sans', 'Liberation Sans', 'Bitstream Vera Sans', sans-serif; text-anchor: middle" x="237.498226" y="116.9712" transform="rotate(-0 237.498226 116.9712)">13.0</text>
   </g>
   <g id="line2d_32">
    <defs>
     <path id="m8a47967e49" d="M 0 -5.5 
L -5.5 5.5 
L 5.5 5.5 
z
"/>
    </defs>
    <g clip-path="url(#pf9c51a8c96)">
     <use xlink:href="#m8a47967e49" x="173.161244" y="298.26" style="fill: #e6550d"/>
     <use xlink:href="#m8a47967e49" x="145.636954" y="298.26" style="fill: #e6550d"/>
     <use xlink:href="#m8a47967e49" x="172.103688" y="298.26" style="fill: #e6550d"/>
     <use xlink:href="#m8a47967e49" x="143.090471" y="298.26" style="fill: #e6550d"/>
     <use xlink:href="#m8a47967e49" x="178.98476" y="298.26" style="fill: #e6550d"/>
     <use xlink:href="#m8a47967e49" x="121.007029" y="298.26" style="fill: #e6550d"/>
     <use xlink:href="#m8a47967e49" x="215.887902" y="298.26" style="fill: #e6550d"/>
     <use xlink:href="#m8a47967e49" x="199.35663" y="298.26" style="fill: #e6550d"/>
     <use xlink:href="#m8a47967e49" x="167.609074" y="298.26" style="fill: #e6550d"/>
     <use xlink:href="#m8a47967e49" x="106.813513" y="298.26" style="fill: #e6550d"/>
     <use xlink:href="#m8a47967e49" x="100.843887" y="298.26" style="fill: #e6550d"/>
     <use xlink:href="#m8a47967e49" x="128.173363" y="298.26" style="fill: #e6550d"/>
     <use xlink:href="#m8a47967e49" x="118.397927" y="298.26" style="fill: #e6550d"/>
    </g>
   </g>
   <g id="line2d_33">
    <defs>
     <path id="m0d841090c0" d="M 0 -5.5 
L -5.5 5.5 
L 5.5 5.5 
z
"/>
    </defs>
    <g clip-path="url(#pf9c51a8c96)">
     <use xlink:href="#m0d841090c0" x="260.618351" y="131.94" style="fill: #3182bd"/>
     <use xlink:href="#m0d841090c0" x="305.035708" y="131.94" style="fill: #3182bd"/>
     <use xlink:href="#m0d841090c0" x="237.498226" y="131.94" style="fill: #3182bd"/>
     <use xlink:href="#m0d841090c0" x="206.209872" y="131.94" style="fill: #3182bd"/>
     <use xlink:href="#m0d841090c0" x="529.724635" y="131.94" style="fill: #3182bd"/>
     <use xlink:href="#m0d841090c0" x="140.321344" y="131.94" style="fill: #3182bd"/>
     <use xlink:href="#m0d841090c0" x="391.477004" y="131.94" style="fill: #3182bd"/>
     <use xlink:href="#m0d841090c0" x="355.659249" y="131.94" style="fill: #3182bd"/>
     <use xlink:href="#m0d841090c0" x="250.933363" y="131.94" style="fill: #3182bd"/>
     <use xlink:href="#m0d841090c0" x="133.001942" y="131.94" style="fill: #3182bd"/>
     <use xlink:href="#m0d841090c0" x="149.679324" y="131.94" style="fill: #3182bd"/>
     <use xlink:href="#m0d841090c0" x="172.611593" y="131.94" style="fill: #3182bd"/>
     <use xlink:href="#m0d841090c0" x="185.316181" y="131.94" style="fill: #3182bd"/>
    </g>
   </g>
   <g id="LineCollection_1">
    <path d="M 121.007029 256.68 
L 173.161244 256.68 
" clip-path="url(#pf9c51a8c96)" style="fill: none; stroke: #e6550d; stroke-width: 5"/>
   </g>
   <g id="LineCollection_2">
    <path d="M 172.611593 90.36 
L 305.035708 90.36 
" clip-path="url(#pf9c51a8c96)" style="fill: none; stroke: #3182bd; stroke-width: 5"/>
   </g>
   <g id="line2d_34">
    <defs>
     <path id="mf5302756f4" d="M 0 5 
C 1.326016 5 2.597899 4.473168 3.535534 3.535534 
C 4.473168 2.597899 5 1.326016 5 0 
C 5 -1.326016 4.473168 -2.597899 3.535534 -3.535534 
C 2.597899 -4.473168 1.326016 -5 0 -5 
C -1.326016 -5 -2.597899 -4.473168 -3.535534 -3.535534 
C -4.473168 -2.597899 -5 -1.326016 -5 0 
C -5 1.326016 -4.473168 2.597899 -3.535534 3.535534 
C -2.597899 4.473168 -1.326016 5 0 5 
z
" style="stroke: #e6550d"/>
    </defs>
    <g clip-path="url(#pf9c51a8c96)">
     <use xlink:href="#mf5302756f4" x="145.636954" y="256.68" style="fill: #e6550d; stroke: #e6550d"/>
    </g>
   </g>
   <g id="line2d_35">
    <defs>
     <path id="mb179fbc3f0" d="M 0 5 
C 1.326016 5 2.597899 4.473168 3.535534 3.535534 
C 4.473168 2.597899 5 1.326016 5 0 
C 5 -1.326016 4.473168 -2.597899 3.535534 -3.535534 
C 2.597899 -4.473168 1.326016 -5 0 -5 
C -1.326016 -5 -2.597899 -4.473168 -3.535534 -3.535534 
C -4.473168 -2.597899 -5 -1.326016 -5 0 
C -5 1.326016 -4.473168 2.597899 -3.535534 3.535534 
C -2.597899 4.473168 -1.326016 5 0 5 
z
" style="stroke: #3182bd"/>
    </defs>
    <g clip-path="url(#pf9c51a8c96)">
     <use xlink:href="#mb179fbc3f0" x="237.498226" y="90.36" style="fill: #3182bd; stroke: #3182bd"/>
    </g>
   </g>
  </g>
 </g>
 <defs>
  <clipPath id="pf9c51a8c96">
   <rect x="56.71875" y="7.2" width="558" height="332.64"/>
  </clipPath>
 </defs>
</svg>
