<?xml version="1.0" encoding="utf-8" standalone="no"?>
<!DOCTYPE svg PUBLIC "-//W3C//DTD SVG 1.1//EN"
  "http://www.w3.org/Graphics/SVG/1.1/DTD/svg11.dtd">
<svg xmlns:xlink="http://www.w3.org/1999/xlink" width="620.864729pt" height="510.308437pt" viewBox="0 0 620.864729 510.308437" xmlns="http://www.w3.org/2000/svg" version="1.1">
 <metadata>
  <rdf:RDF xmlns:dc="http://purl.org/dc/elements/1.1/" xmlns:cc="http://creativecommons.org/ns#" xmlns:rdf="http://www.w3.org/1999/02/22-rdf-syntax-ns#">
   <cc:Work>
    <dc:type rdf:resource="http://purl.org/dc/dcmitype/StillImage"/>
    <dc:date>2023-10-08T11:46:36.543719</dc:date>
    <dc:format>image/svg+xml</dc:format>
    <dc:creator>
     <cc:Agent>
      <dc:title>Matplotlib v3.7.1, https://matplotlib.org/</dc:title>
     </cc:Agent>
    </dc:creator>
   </cc:Work>
  </rdf:RDF>
 </metadata>
 <defs>
  <style type="text/css">*{stroke-linejoin: round; stroke-linecap: butt}</style>
 </defs>
 <g id="figure_1">
  <g id="patch_1">
   <path d="M 0 510.308437 
L 620.864729 510.308437 
L 620.864729 0 
L 0 0 
z
" style="fill: #ffffff"/>
  </g>
  <g id="axes_1">
   <g id="patch_2">
    <path d="M 44.822187 450.72 
L 602.822188 450.72 
L 602.822188 7.2 
L 44.822187 7.2 
z
" style="fill: #ffffff"/>
   </g>
   <g id="line2d_1">
    <path d="M 247.246776 167.895652 
L 188.608073 382.156522 
" clip-path="url(#p4e80efb293)" style="fill: none; stroke: #3182bd; stroke-opacity: 0.3; stroke-width: 3; stroke-linecap: round"/>
   </g>
   <g id="line2d_2">
    <path d="M 169.592936 178.608696 
L 108.553858 392.869565 
" clip-path="url(#p4e80efb293)" style="fill: none; stroke: #e6550d; stroke-opacity: 0.3; stroke-width: 3; stroke-linecap: round"/>
   </g>
   <g id="matplotlib.axis_1">
    <g id="xtick_1">
     <g id="line2d_3">
      <path d="M 44.822187 450.72 
L 44.822187 7.2 
" clip-path="url(#p4e80efb293)" style="fill: none; stroke: #d3d3d3; stroke-width: 0.5; stroke-linecap: round"/>
     </g>
     <g id="text_1">
      <text style="fill: #262626; font: 22px 'Arial', 'DejaVu Sans', 'Liberation Sans', 'Bitstream Vera Sans', sans-serif; text-anchor: middle" x="44.822187" y="475.967187" transform="rotate(-0 44.822187 475.967187)">0</text>
     </g>
    </g>
    <g id="xtick_2">
     <g id="line2d_4">
      <path d="M 114.398247 450.72 
L 114.398247 7.2 
" clip-path="url(#p4e80efb293)" style="fill: none; stroke: #d3d3d3; stroke-width: 0.5; stroke-linecap: round"/>
     </g>
     <g id="text_2">
      <text style="fill: #262626; font: 22px 'Arial', 'DejaVu Sans', 'Liberation Sans', 'Bitstream Vera Sans', sans-serif; text-anchor: middle" x="114.398247" y="475.967187" transform="rotate(-0 114.398247 475.967187)">5</text>
     </g>
    </g>
    <g id="xtick_3">
     <g id="line2d_5">
      <path d="M 183.974307 450.72 
L 183.974307 7.2 
" clip-path="url(#p4e80efb293)" style="fill: none; stroke: #d3d3d3; stroke-width: 0.5; stroke-linecap: round"/>
     </g>
     <g id="text_3">
      <text style="fill: #262626; font: 22px 'Arial', 'DejaVu Sans', 'Liberation Sans', 'Bitstream Vera Sans', sans-serif; text-anchor: middle" x="183.974307" y="475.967187" transform="rotate(-0 183.974307 475.967187)">10</text>
     </g>
    </g>
    <g id="xtick_4">
     <g id="line2d_6">
      <path d="M 253.550367 450.72 
L 253.550367 7.2 
" clip-path="url(#p4e80efb293)" style="fill: none; stroke: #d3d3d3; stroke-width: 0.5; stroke-linecap: round"/>
     </g>
     <g id="text_4">
      <text style="fill: #262626; font: 22px 'Arial', 'DejaVu Sans', 'Liberation Sans', 'Bitstream Vera Sans', sans-serif; text-anchor: middle" x="253.550367" y="475.967187" transform="rotate(-0 253.550367 475.967187)">15</text>
     </g>
    </g>
    <g id="xtick_5">
     <g id="line2d_7">
      <path d="M 323.126427 450.72 
L 323.126427 7.2 
" clip-path="url(#p4e80efb293)" style="fill: none; stroke: #d3d3d3; stroke-width: 0.5; stroke-linecap: round"/>
     </g>
     <g id="text_5">
      <text style="fill: #262626; font: 22px 'Arial', 'DejaVu Sans', 'Liberation Sans', 'Bitstream Vera Sans', sans-serif; text-anchor: middle" x="323.126427" y="475.967187" transform="rotate(-0 323.126427 475.967187)">20</text>
     </g>
    </g>
    <g id="xtick_6">
     <g id="line2d_8">
      <path d="M 392.702487 450.72 
L 392.702487 7.2 
" clip-path="url(#p4e80efb293)" style="fill: none; stroke: #d3d3d3; stroke-width: 0.5; stroke-linecap: round"/>
     </g>
     <g id="text_6">
      <text style="fill: #262626; font: 22px 'Arial', 'DejaVu Sans', 'Liberation Sans', 'Bitstream Vera Sans', sans-serif; text-anchor: middle" x="392.702487" y="475.967187" transform="rotate(-0 392.702487 475.967187)">25</text>
     </g>
    </g>
    <g id="xtick_7">
     <g id="line2d_9">
      <path d="M 462.278547 450.72 
L 462.278547 7.2 
" clip-path="url(#p4e80efb293)" style="fill: none; stroke: #d3d3d3; stroke-width: 0.5; stroke-linecap: round"/>
     </g>
     <g id="text_7">
      <text style="fill: #262626; font: 22px 'Arial', 'DejaVu Sans', 'Liberation Sans', 'Bitstream Vera Sans', sans-serif; text-anchor: middle" x="462.278547" y="475.967187" transform="rotate(-0 462.278547 475.967187)">30</text>
     </g>
    </g>
    <g id="xtick_8">
     <g id="line2d_10">
      <path d="M 531.854606 450.72 
L 531.854606 7.2 
" clip-path="url(#p4e80efb293)" style="fill: none; stroke: #d3d3d3; stroke-width: 0.5; stroke-linecap: round"/>
     </g>
     <g id="text_8">
      <text style="fill: #262626; font: 22px 'Arial', 'DejaVu Sans', 'Liberation Sans', 'Bitstream Vera Sans', sans-serif; text-anchor: middle" x="531.854606" y="475.967187" transform="rotate(-0 531.854606 475.967187)">35</text>
     </g>
    </g>
    <g id="xtick_9">
     <g id="line2d_11">
      <path d="M 601.430666 450.72 
L 601.430666 7.2 
" clip-path="url(#p4e80efb293)" style="fill: none; stroke: #d3d3d3; stroke-width: 0.5; stroke-linecap: round"/>
     </g>
     <g id="text_9">
      <text style="fill: #262626; font: 22px 'Arial', 'DejaVu Sans', 'Liberation Sans', 'Bitstream Vera Sans', sans-serif; text-anchor: middle" x="601.430666" y="475.967187" transform="rotate(-0 601.430666 475.967187)">40</text>
     </g>
    </g>
    <g id="text_10">
     <text style="fill: #262626; font: 20px 'Arial', 'DejaVu Sans', 'Liberation Sans', 'Bitstream Vera Sans', sans-serif; text-anchor: middle" x="323.822187" y="498.899062" transform="rotate(-0 323.822187 498.899062)">Median time per worker and halves (sec)</text>
    </g>
   </g>
   <g id="matplotlib.axis_2">
    <g id="ytick_1">
     <g id="text_11">
      <text style="fill: #262626; font: 22px 'Arial', 'DejaVu Sans', 'Liberation Sans', 'Bitstream Vera Sans', sans-serif; text-anchor: end" x="35.322187" y="68.638811" transform="rotate(-0 35.322187 68.638811)">H1</text>
     </g>
    </g>
    <g id="ytick_2">
     <g id="text_12">
      <text style="fill: #262626; font: 22px 'Arial', 'DejaVu Sans', 'Liberation Sans', 'Bitstream Vera Sans', sans-serif; text-anchor: end" x="35.322187" y="282.899681" transform="rotate(-0 35.322187 282.899681)">H2</text>
     </g>
    </g>
   </g>
   <g id="patch_3">
    <path d="M 44.822187 60.765217 
L 44.822187 60.765217 
L 44.822187 60.765217 
L 44.822187 60.765217 
z
" clip-path="url(#p4e80efb293)" style="fill: #cbdbea; stroke: #7c7c7c; stroke-width: 0.75; stroke-linejoin: miter"/>
   </g>
   <g id="PolyCollection_1">
    <path d="M 137.782761 60.765217 
L 137.782761 47.600646 
L 147.118322 47.168998 
L 156.453883 46.762716 
L 165.789444 46.384045 
L 175.125005 46.034979 
L 184.460567 45.717245 
L 193.796128 45.432297 
L 203.131689 45.181309 
L 212.46725 44.965181 
L 221.802811 44.784544 
L 231.138372 44.639772 
L 240.473933 44.531 
L 249.809494 44.45814 
L 259.145055 44.420907 
L 268.480616 44.418836 
L 277.816178 44.451305 
L 287.151739 44.517561 
L 296.4873 44.616737 
L 305.822861 44.74787 
L 315.158422 44.90992 
L 324.493983 45.101777 
L 333.829544 45.322276 
L 343.165105 45.5702 
L 352.500666 45.844286 
L 361.836227 46.14322 
L 371.171788 46.465642 
L 380.50735 46.810139 
L 389.842911 47.175241 
L 399.178472 47.559417 
L 408.514033 47.961071 
L 417.849594 48.378536 
L 427.185155 48.810076 
L 436.520716 49.253885 
L 445.856277 49.70809 
L 455.191838 50.170755 
L 464.527399 50.639893 
L 473.862961 51.113476 
L 483.198522 51.589448 
L 492.534083 52.065741 
L 501.869644 52.540298 
L 511.205205 53.011087 
L 520.540766 53.476126 
L 529.876327 53.933501 
L 539.211888 54.381388 
L 548.547449 54.818072 
L 557.88301 55.241967 
L 567.218572 55.651625 
L 576.554133 56.045758 
L 585.889694 56.423241 
L 595.225255 56.783123 
L 604.560816 57.12463 
L 613.896377 57.447165 
L 623.231938 57.750303 
L 632.567499 58.033791 
L 641.90306 58.297534 
L 651.238621 58.541588 
L 660.574183 58.766146 
L 669.909744 58.971522 
L 679.245305 59.158139 
L 688.580866 59.326511 
L 697.916427 59.477229 
L 707.251988 59.610942 
L 716.587549 59.728346 
L 725.92311 59.830169 
L 735.258671 59.917157 
L 744.594232 59.990066 
L 753.929793 60.04965 
L 763.265355 60.096656 
L 772.600916 60.131818 
L 781.936477 60.155852 
L 791.272038 60.169457 
L 800.607599 60.173313 
L 809.94316 60.168084 
L 819.278721 60.154417 
L 828.614282 60.13295 
L 837.949843 60.104311 
L 847.285404 60.069127 
L 856.620966 60.028026 
L 865.956527 59.981642 
L 875.292088 59.930619 
L 884.627649 59.875614 
L 893.96321 59.817297 
L 903.298771 59.756356 
L 912.634332 59.693496 
L 921.969893 59.629434 
L 931.305454 59.564899 
L 940.641015 59.50063 
L 949.976577 59.437365 
L 959.312138 59.37584 
L 968.647699 59.316778 
L 977.98326 59.260883 
L 987.318821 59.208827 
L 996.654382 59.161248 
L 1005.989943 59.118732 
L 1015.325504 59.081812 
L 1024.661065 59.050955 
L 1033.996626 59.026555 
L 1043.332187 59.008928 
L 1052.667749 58.998305 
L 1062.00331 58.99483 
L 1062.00331 60.765217 
L 1062.00331 60.765217 
L 1052.667749 60.765217 
L 1043.332187 60.765217 
L 1033.996626 60.765217 
L 1024.661065 60.765217 
L 1015.325504 60.765217 
L 1005.989943 60.765217 
L 996.654382 60.765217 
L 987.318821 60.765217 
L 977.98326 60.765217 
L 968.647699 60.765217 
L 959.312138 60.765217 
L 949.976577 60.765217 
L 940.641015 60.765217 
L 931.305454 60.765217 
L 921.969893 60.765217 
L 912.634332 60.765217 
L 903.298771 60.765217 
L 893.96321 60.765217 
L 884.627649 60.765217 
L 875.292088 60.765217 
L 865.956527 60.765217 
L 856.620966 60.765217 
L 847.285404 60.765217 
L 837.949843 60.765217 
L 828.614282 60.765217 
L 819.278721 60.765217 
L 809.94316 60.765217 
L 800.607599 60.765217 
L 791.272038 60.765217 
L 781.936477 60.765217 
L 772.600916 60.765217 
L 763.265355 60.765217 
L 753.929793 60.765217 
L 744.594232 60.765217 
L 735.258671 60.765217 
L 725.92311 60.765217 
L 716.587549 60.765217 
L 707.251988 60.765217 
L 697.916427 60.765217 
L 688.580866 60.765217 
L 679.245305 60.765217 
L 669.909744 60.765217 
L 660.574183 60.765217 
L 651.238621 60.765217 
L 641.90306 60.765217 
L 632.567499 60.765217 
L 623.231938 60.765217 
L 613.896377 60.765217 
L 604.560816 60.765217 
L 595.225255 60.765217 
L 585.889694 60.765217 
L 576.554133 60.765217 
L 567.218572 60.765217 
L 557.88301 60.765217 
L 548.547449 60.765217 
L 539.211888 60.765217 
L 529.876327 60.765217 
L 520.540766 60.765217 
L 511.205205 60.765217 
L 501.869644 60.765217 
L 492.534083 60.765217 
L 483.198522 60.765217 
L 473.862961 60.765217 
L 464.527399 60.765217 
L 455.191838 60.765217 
L 445.856277 60.765217 
L 436.520716 60.765217 
L 427.185155 60.765217 
L 417.849594 60.765217 
L 408.514033 60.765217 
L 399.178472 60.765217 
L 389.842911 60.765217 
L 380.50735 60.765217 
L 371.171788 60.765217 
L 361.836227 60.765217 
L 352.500666 60.765217 
L 343.165105 60.765217 
L 333.829544 60.765217 
L 324.493983 60.765217 
L 315.158422 60.765217 
L 305.822861 60.765217 
L 296.4873 60.765217 
L 287.151739 60.765217 
L 277.816178 60.765217 
L 268.480616 60.765217 
L 259.145055 60.765217 
L 249.809494 60.765217 
L 240.473933 60.765217 
L 231.138372 60.765217 
L 221.802811 60.765217 
L 212.46725 60.765217 
L 203.131689 60.765217 
L 193.796128 60.765217 
L 184.460567 60.765217 
L 175.125005 60.765217 
L 165.789444 60.765217 
L 156.453883 60.765217 
L 147.118322 60.765217 
L 137.782761 60.765217 
z
" clip-path="url(#p4e80efb293)" style="fill: #cbdbea; stroke: #7c7c7c; stroke-width: 1.5"/>
   </g>
   <g id="patch_4">
    <path d="M 44.822187 60.765217 
L 44.822187 60.765217 
L 44.822187 60.765217 
L 44.822187 60.765217 
z
" clip-path="url(#p4e80efb293)" style="fill: #f2d0ad; stroke: #7c7c7c; stroke-width: 0.75; stroke-linejoin: miter"/>
   </g>
   <g id="PolyCollection_2">
    <defs>
     <path id="m0a21dd3fb2" d="M 94.318596 -421.725603 
L 94.318596 -449.54322 
L 96.299476 -449.54322 
L 98.280356 -449.54322 
L 100.261235 -449.54322 
L 102.242115 -449.54322 
L 104.222995 -449.54322 
L 106.203874 -449.54322 
L 108.184754 -449.54322 
L 110.165633 -449.54322 
L 112.146513 -449.54322 
L 114.127393 -449.54322 
L 116.108272 -449.54322 
L 118.089152 -449.54322 
L 120.070032 -449.54322 
L 122.050911 -449.54322 
L 124.031791 -449.54322 
L 126.01267 -449.54322 
L 127.99355 -449.54322 
L 129.97443 -449.54322 
L 131.955309 -449.54322 
L 133.936189 -449.54322 
L 135.917068 -449.54322 
L 137.897948 -449.54322 
L 139.878828 -449.54322 
L 141.859707 -449.54322 
L 143.840587 -449.54322 
L 145.821467 -449.54322 
L 147.802346 -449.54322 
L 149.783226 -449.54322 
L 151.764105 -449.54322 
L 153.744985 -449.54322 
L 155.725865 -449.54322 
L 157.706744 -449.54322 
L 159.687624 -449.54322 
L 161.668504 -449.54322 
L 163.649383 -449.54322 
L 165.630263 -449.54322 
L 167.611142 -449.54322 
L 169.592022 -449.54322 
L 171.572902 -449.54322 
L 173.553781 -449.54322 
L 175.534661 -449.54322 
L 177.51554 -449.54322 
L 179.49642 -449.54322 
L 181.4773 -449.54322 
L 183.458179 -449.54322 
L 185.439059 -449.54322 
L 187.419939 -449.54322 
L 189.400818 -449.54322 
L 191.381698 -449.54322 
L 193.362577 -449.54322 
L 195.343457 -449.54322 
L 197.324337 -449.54322 
L 199.305216 -449.54322 
L 201.286096 -449.54322 
L 203.266976 -449.54322 
L 205.247855 -449.54322 
L 207.228735 -449.54322 
L 209.209614 -449.54322 
L 211.190494 -449.54322 
L 213.171374 -449.54322 
L 215.152253 -449.54322 
L 217.133133 -449.54322 
L 219.114012 -449.54322 
L 221.094892 -449.54322 
L 223.075772 -449.54322 
L 225.056651 -449.54322 
L 227.037531 -449.54322 
L 229.018411 -449.54322 
L 230.99929 -449.54322 
L 232.98017 -449.54322 
L 234.961049 -449.54322 
L 236.941929 -449.54322 
L 238.922809 -449.54322 
L 240.903688 -449.54322 
L 242.884568 -449.54322 
L 244.865448 -449.54322 
L 246.846327 -449.54322 
L 248.827207 -449.54322 
L 250.808086 -449.54322 
L 252.788966 -449.54322 
L 254.769846 -449.54322 
L 256.750725 -449.54322 
L 258.731605 -449.54322 
L 260.712484 -449.54322 
L 262.693364 -449.54322 
L 264.674244 -449.54322 
L 266.655123 -449.54322 
L 268.636003 -449.54322 
L 270.616883 -449.54322 
L 272.597762 -449.54322 
L 274.578642 -449.54322 
L 276.559521 -449.54322 
L 278.540401 -449.54322 
L 280.521281 -449.54322 
L 282.50216 -449.54322 
L 284.48304 -449.54322 
L 286.46392 -449.54322 
L 288.444799 -449.54322 
L 290.425679 -449.54322 
L 290.425679 -432.471427 
L 290.425679 -432.471427 
L 288.444799 -431.925357 
L 286.46392 -431.381173 
L 284.48304 -430.838504 
L 282.50216 -430.296846 
L 280.521281 -429.755571 
L 278.540401 -429.213955 
L 276.559521 -428.671197 
L 274.578642 -428.126449 
L 272.597762 -427.578841 
L 270.616883 -427.027511 
L 268.636003 -426.471639 
L 266.655123 -425.910474 
L 264.674244 -425.343365 
L 262.693364 -424.769789 
L 260.712484 -424.189376 
L 258.731605 -423.601936 
L 256.750725 -423.00747 
L 254.769846 -422.406193 
L 252.788966 -421.798539 
L 250.808086 -421.185169 
L 248.827207 -420.566969 
L 246.846327 -419.945046 
L 244.865448 -419.320714 
L 242.884568 -418.695483 
L 240.903688 -418.071035 
L 238.922809 -417.449197 
L 236.941929 -416.831916 
L 234.961049 -416.221226 
L 232.98017 -415.61921 
L 230.99929 -415.027969 
L 229.018411 -414.44958 
L 227.037531 -413.886064 
L 225.056651 -413.33935 
L 223.075772 -412.811237 
L 221.094892 -412.303369 
L 219.114012 -411.817203 
L 217.133133 -411.353991 
L 215.152253 -410.914754 
L 213.171374 -410.500276 
L 211.190494 -410.111091 
L 209.209614 -409.747481 
L 207.228735 -409.40948 
L 205.247855 -409.096878 
L 203.266976 -408.809239 
L 201.286096 -408.545916 
L 199.305216 -408.306071 
L 197.324337 -408.088705 
L 195.343457 -407.89268 
L 193.362577 -407.716757 
L 191.381698 -407.559622 
L 189.400818 -407.419922 
L 187.419939 -407.296299 
L 185.439059 -407.18742 
L 183.458179 -407.092012 
L 181.4773 -407.008888 
L 179.49642 -406.936978 
L 177.51554 -406.875349 
L 175.534661 -406.823233 
L 173.553781 -406.780035 
L 171.572902 -406.745357 
L 169.592022 -406.719001 
L 167.611142 -406.70098 
L 165.630263 -406.691518 
L 163.649383 -406.691046 
L 161.668504 -406.700205 
L 159.687624 -406.719827 
L 157.706744 -406.750935 
L 155.725865 -406.794717 
L 153.744985 -406.852518 
L 151.764105 -406.925815 
L 149.783226 -407.0162 
L 147.802346 -407.125354 
L 145.821467 -407.255024 
L 143.840587 -407.406999 
L 141.859707 -407.583082 
L 139.878828 -407.785066 
L 137.897948 -408.014707 
L 135.917068 -408.2737 
L 133.936189 -408.563649 
L 131.955309 -408.886049 
L 129.97443 -409.242255 
L 127.99355 -409.633467 
L 126.01267 -410.060703 
L 124.031791 -410.524786 
L 122.050911 -411.02632 
L 120.070032 -411.565681 
L 118.089152 -412.143 
L 116.108272 -412.758155 
L 114.127393 -413.410764 
L 112.146513 -414.100178 
L 110.165633 -414.825481 
L 108.184754 -415.585492 
L 106.203874 -416.378766 
L 104.222995 -417.203606 
L 102.242115 -418.05807 
L 100.261235 -418.939984 
L 98.280356 -419.846962 
L 96.299476 -420.776421 
L 94.318596 -421.725603 
z
" style="stroke: #7c7c7c; stroke-width: 1.5"/>
    </defs>
    <g clip-path="url(#p4e80efb293)">
     <use xlink:href="#m0a21dd3fb2" x="0" y="510.308437" style="fill: #f2d0ad; stroke: #7c7c7c; stroke-width: 1.5"/>
    </g>
   </g>
   <g id="PolyCollection_3">
    <defs>
     <path id="mb0da0a6baf" d="M 101.171838 -235.282351 
L 101.171838 -245.96831 
L 103.639258 -246.423644 
L 106.106679 -246.871521 
L 108.574099 -247.310061 
L 111.041519 -247.737458 
L 113.508939 -248.152006 
L 115.976359 -248.552117 
L 118.443779 -248.936334 
L 120.911199 -249.30335 
L 123.378619 -249.652014 
L 125.846039 -249.981339 
L 128.313459 -250.290511 
L 130.780879 -250.578883 
L 133.248299 -250.845979 
L 135.71572 -251.091481 
L 138.18314 -251.315228 
L 140.65056 -251.517196 
L 143.11798 -251.697492 
L 145.5854 -251.85633 
L 148.05282 -251.994021 
L 150.52024 -252.110948 
L 152.98766 -252.207553 
L 155.45508 -252.284313 
L 157.9225 -252.341727 
L 160.38992 -252.380299 
L 162.857341 -252.400519 
L 165.324761 -252.402858 
L 167.792181 -252.387752 
L 170.259601 -252.3556 
L 172.727021 -252.306757 
L 175.194441 -252.241534 
L 177.661861 -252.160201 
L 180.129281 -252.062991 
L 182.596701 -251.950106 
L 185.064121 -251.821732 
L 187.531541 -251.678041 
L 189.998961 -251.519213 
L 192.466382 -251.345443 
L 194.933802 -251.156955 
L 197.401222 -250.95402 
L 199.868642 -250.736961 
L 202.336062 -250.50617 
L 204.803482 -250.262116 
L 207.270902 -250.00535 
L 209.738322 -249.736511 
L 212.205742 -249.45633 
L 214.673162 -249.165629 
L 217.140582 -248.865317 
L 219.608003 -248.556386 
L 222.075423 -248.239905 
L 224.542843 -247.917005 
L 227.010263 -247.588874 
L 229.477683 -247.256739 
L 231.945103 -246.921854 
L 234.412523 -246.585485 
L 236.879943 -246.248895 
L 239.347363 -245.913327 
L 241.814783 -245.579995 
L 244.282203 -245.250063 
L 246.749623 -244.92464 
L 249.217044 -244.604763 
L 251.684464 -244.29139 
L 254.151884 -243.985395 
L 256.619304 -243.687557 
L 259.086724 -243.39856 
L 261.554144 -243.118989 
L 264.021564 -242.849327 
L 266.488984 -242.589961 
L 268.956404 -242.34118 
L 271.423824 -242.103179 
L 273.891244 -241.876063 
L 276.358664 -241.659851 
L 278.826085 -241.454484 
L 281.293505 -241.259827 
L 283.760925 -241.075678 
L 286.228345 -240.901769 
L 288.695765 -240.737778 
L 291.163185 -240.583327 
L 293.630605 -240.437993 
L 296.098025 -240.30131 
L 298.565445 -240.172775 
L 301.032865 -240.051852 
L 303.500285 -239.937975 
L 305.967706 -239.830554 
L 308.435126 -239.728982 
L 310.902546 -239.632633 
L 313.369966 -239.540874 
L 315.837386 -239.453064 
L 318.304806 -239.368564 
L 320.772226 -239.28674 
L 323.239646 -239.206968 
L 325.707066 -239.128644 
L 328.174486 -239.051186 
L 330.641906 -238.974044 
L 333.109326 -238.8967 
L 335.576747 -238.818683 
L 338.044167 -238.739567 
L 340.511587 -238.65898 
L 342.979007 -238.576607 
L 345.446427 -238.492193 
L 345.446427 -235.282351 
L 345.446427 -235.282351 
L 342.979007 -235.282351 
L 340.511587 -235.282351 
L 338.044167 -235.282351 
L 335.576747 -235.282351 
L 333.109326 -235.282351 
L 330.641906 -235.282351 
L 328.174486 -235.282351 
L 325.707066 -235.282351 
L 323.239646 -235.282351 
L 320.772226 -235.282351 
L 318.304806 -235.282351 
L 315.837386 -235.282351 
L 313.369966 -235.282351 
L 310.902546 -235.282351 
L 308.435126 -235.282351 
L 305.967706 -235.282351 
L 303.500285 -235.282351 
L 301.032865 -235.282351 
L 298.565445 -235.282351 
L 296.098025 -235.282351 
L 293.630605 -235.282351 
L 291.163185 -235.282351 
L 288.695765 -235.282351 
L 286.228345 -235.282351 
L 283.760925 -235.282351 
L 281.293505 -235.282351 
L 278.826085 -235.282351 
L 276.358664 -235.282351 
L 273.891244 -235.282351 
L 271.423824 -235.282351 
L 268.956404 -235.282351 
L 266.488984 -235.282351 
L 264.021564 -235.282351 
L 261.554144 -235.282351 
L 259.086724 -235.282351 
L 256.619304 -235.282351 
L 254.151884 -235.282351 
L 251.684464 -235.282351 
L 249.217044 -235.282351 
L 246.749623 -235.282351 
L 244.282203 -235.282351 
L 241.814783 -235.282351 
L 239.347363 -235.282351 
L 236.879943 -235.282351 
L 234.412523 -235.282351 
L 231.945103 -235.282351 
L 229.477683 -235.282351 
L 227.010263 -235.282351 
L 224.542843 -235.282351 
L 222.075423 -235.282351 
L 219.608003 -235.282351 
L 217.140582 -235.282351 
L 214.673162 -235.282351 
L 212.205742 -235.282351 
L 209.738322 -235.282351 
L 207.270902 -235.282351 
L 204.803482 -235.282351 
L 202.336062 -235.282351 
L 199.868642 -235.282351 
L 197.401222 -235.282351 
L 194.933802 -235.282351 
L 192.466382 -235.282351 
L 189.998961 -235.282351 
L 187.531541 -235.282351 
L 185.064121 -235.282351 
L 182.596701 -235.282351 
L 180.129281 -235.282351 
L 177.661861 -235.282351 
L 175.194441 -235.282351 
L 172.727021 -235.282351 
L 170.259601 -235.282351 
L 167.792181 -235.282351 
L 165.324761 -235.282351 
L 162.857341 -235.282351 
L 160.38992 -235.282351 
L 157.9225 -235.282351 
L 155.45508 -235.282351 
L 152.98766 -235.282351 
L 150.52024 -235.282351 
L 148.05282 -235.282351 
L 145.5854 -235.282351 
L 143.11798 -235.282351 
L 140.65056 -235.282351 
L 138.18314 -235.282351 
L 135.71572 -235.282351 
L 133.248299 -235.282351 
L 130.780879 -235.282351 
L 128.313459 -235.282351 
L 125.846039 -235.282351 
L 123.378619 -235.282351 
L 120.911199 -235.282351 
L 118.443779 -235.282351 
L 115.976359 -235.282351 
L 113.508939 -235.282351 
L 111.041519 -235.282351 
L 108.574099 -235.282351 
L 106.106679 -235.282351 
L 103.639258 -235.282351 
L 101.171838 -235.282351 
z
" style="stroke: #7c7c7c; stroke-width: 1.5"/>
    </defs>
    <g clip-path="url(#p4e80efb293)">
     <use xlink:href="#mb0da0a6baf" x="0" y="510.308437" style="fill: #cbdbea; stroke: #7c7c7c; stroke-width: 1.5"/>
    </g>
   </g>
   <g id="PolyCollection_4">
    <defs>
     <path id="m25cfbadc7a" d="M 84.675355 -203.758318 
L 84.675355 -235.282351 
L 85.578719 -235.282351 
L 86.482083 -235.282351 
L 87.385448 -235.282351 
L 88.288812 -235.282351 
L 89.192176 -235.282351 
L 90.09554 -235.282351 
L 90.998905 -235.282351 
L 91.902269 -235.282351 
L 92.805633 -235.282351 
L 93.708998 -235.282351 
L 94.612362 -235.282351 
L 95.515726 -235.282351 
L 96.419091 -235.282351 
L 97.322455 -235.282351 
L 98.225819 -235.282351 
L 99.129184 -235.282351 
L 100.032548 -235.282351 
L 100.935912 -235.282351 
L 101.839277 -235.282351 
L 102.742641 -235.282351 
L 103.646005 -235.282351 
L 104.54937 -235.282351 
L 105.452734 -235.282351 
L 106.356098 -235.282351 
L 107.259462 -235.282351 
L 108.162827 -235.282351 
L 109.066191 -235.282351 
L 109.969555 -235.282351 
L 110.87292 -235.282351 
L 111.776284 -235.282351 
L 112.679648 -235.282351 
L 113.583013 -235.282351 
L 114.486377 -235.282351 
L 115.389741 -235.282351 
L 116.293106 -235.282351 
L 117.19647 -235.282351 
L 118.099834 -235.282351 
L 119.003199 -235.282351 
L 119.906563 -235.282351 
L 120.809927 -235.282351 
L 121.713292 -235.282351 
L 122.616656 -235.282351 
L 123.52002 -235.282351 
L 124.423385 -235.282351 
L 125.326749 -235.282351 
L 126.230113 -235.282351 
L 127.133477 -235.282351 
L 128.036842 -235.282351 
L 128.940206 -235.282351 
L 129.84357 -235.282351 
L 130.746935 -235.282351 
L 131.650299 -235.282351 
L 132.553663 -235.282351 
L 133.457028 -235.282351 
L 134.360392 -235.282351 
L 135.263756 -235.282351 
L 136.167121 -235.282351 
L 137.070485 -235.282351 
L 137.973849 -235.282351 
L 138.877214 -235.282351 
L 139.780578 -235.282351 
L 140.683942 -235.282351 
L 141.587307 -235.282351 
L 142.490671 -235.282351 
L 143.394035 -235.282351 
L 144.297399 -235.282351 
L 145.200764 -235.282351 
L 146.104128 -235.282351 
L 147.007492 -235.282351 
L 147.910857 -235.282351 
L 148.814221 -235.282351 
L 149.717585 -235.282351 
L 150.62095 -235.282351 
L 151.524314 -235.282351 
L 152.427678 -235.282351 
L 153.331043 -235.282351 
L 154.234407 -235.282351 
L 155.137771 -235.282351 
L 156.041136 -235.282351 
L 156.9445 -235.282351 
L 157.847864 -235.282351 
L 158.751229 -235.282351 
L 159.654593 -235.282351 
L 160.557957 -235.282351 
L 161.461321 -235.282351 
L 162.364686 -235.282351 
L 163.26805 -235.282351 
L 164.171414 -235.282351 
L 165.074779 -235.282351 
L 165.978143 -235.282351 
L 166.881507 -235.282351 
L 167.784872 -235.282351 
L 168.688236 -235.282351 
L 169.5916 -235.282351 
L 170.494965 -235.282351 
L 171.398329 -235.282351 
L 172.301693 -235.282351 
L 173.205058 -235.282351 
L 174.108422 -235.282351 
L 174.108422 -222.07826 
L 174.108422 -222.07826 
L 173.205058 -221.837931 
L 172.301693 -221.610467 
L 171.398329 -221.395592 
L 170.494965 -221.1929 
L 169.5916 -221.001861 
L 168.688236 -220.82183 
L 167.784872 -220.652062 
L 166.881507 -220.491717 
L 165.978143 -220.339881 
L 165.074779 -220.195574 
L 164.171414 -220.057763 
L 163.26805 -219.925381 
L 162.364686 -219.797336 
L 161.461321 -219.67252 
L 160.557957 -219.549827 
L 159.654593 -219.42816 
L 158.751229 -219.306437 
L 157.847864 -219.183599 
L 156.9445 -219.058619 
L 156.041136 -218.930499 
L 155.137771 -218.798275 
L 154.234407 -218.661018 
L 153.331043 -218.517829 
L 152.427678 -218.367839 
L 151.524314 -218.210204 
L 150.62095 -218.044098 
L 149.717585 -217.868711 
L 148.814221 -217.68324 
L 147.910857 -217.486886 
L 147.007492 -217.278846 
L 146.104128 -217.05831 
L 145.200764 -216.824457 
L 144.297399 -216.576455 
L 143.394035 -216.313456 
L 142.490671 -216.034603 
L 141.587307 -215.739029 
L 140.683942 -215.425864 
L 139.780578 -215.094246 
L 138.877214 -214.743325 
L 137.973849 -214.37228 
L 137.070485 -213.980333 
L 136.167121 -213.566763 
L 135.263756 -213.130925 
L 134.360392 -212.672267 
L 133.457028 -212.190356 
L 132.553663 -211.68489 
L 131.650299 -211.155725 
L 130.746935 -210.602893 
L 129.84357 -210.026623 
L 128.940206 -209.427356 
L 128.036842 -208.805768 
L 127.133477 -208.162777 
L 126.230113 -207.499562 
L 125.326749 -206.817569 
L 124.423385 -206.11852 
L 123.52002 -205.404413 
L 122.616656 -204.677522 
L 121.713292 -203.940394 
L 120.809927 -203.195843 
L 119.906563 -202.446931 
L 119.003199 -201.69696 
L 118.099834 -200.949446 
L 117.19647 -200.2081 
L 116.293106 -199.476801 
L 115.389741 -198.759566 
L 114.486377 -198.060516 
L 113.583013 -197.383847 
L 112.679648 -196.733786 
L 111.776284 -196.114561 
L 110.87292 -195.530359 
L 109.969555 -194.985287 
L 109.066191 -194.483331 
L 108.162827 -194.028323 
L 107.259462 -193.623899 
L 106.356098 -193.273466 
L 105.452734 -192.980163 
L 104.54937 -192.746839 
L 103.646005 -192.576014 
L 102.742641 -192.46986 
L 101.839277 -192.430177 
L 100.935912 -192.458372 
L 100.032548 -192.555449 
L 99.129184 -192.721996 
L 98.225819 -192.958177 
L 97.322455 -193.263734 
L 96.419091 -193.637983 
L 95.515726 -194.079827 
L 94.612362 -194.58776 
L 93.708998 -195.159886 
L 92.805633 -195.793932 
L 91.902269 -196.487272 
L 90.998905 -197.236953 
L 90.09554 -198.039716 
L 89.192176 -198.89203 
L 88.288812 -199.790125 
L 87.385448 -200.730019 
L 86.482083 -201.707561 
L 85.578719 -202.718458 
L 84.675355 -203.758318 
z
" style="stroke: #7c7c7c; stroke-width: 1.5"/>
    </defs>
    <g clip-path="url(#p4e80efb293)">
     <use xlink:href="#m25cfbadc7a" x="0" y="510.308437" style="fill: #f2d0ad; stroke: #7c7c7c; stroke-width: 1.5"/>
    </g>
   </g>
   <g id="line2d_12">
    <defs>
     <path id="md572c5a7eb" d="M 0 -5.5 
L -5.5 5.5 
L 5.5 5.5 
z
" style="stroke: #ffffff; stroke-linejoin: miter"/>
    </defs>
    <g clip-path="url(#p4e80efb293)">
     <use xlink:href="#md572c5a7eb" x="342.204183" y="125.043478" style="fill: #ffffff; stroke: #ffffff; stroke-linejoin: miter"/>
     <use xlink:href="#md572c5a7eb" x="405.114856" y="125.043478" style="fill: #ffffff; stroke: #ffffff; stroke-linejoin: miter"/>
     <use xlink:href="#md572c5a7eb" x="446.902237" y="125.043478" style="fill: #ffffff; stroke: #ffffff; stroke-linejoin: miter"/>
     <use xlink:href="#md572c5a7eb" x="214.413833" y="125.043478" style="fill: #ffffff; stroke: #ffffff; stroke-linejoin: miter"/>
     <use xlink:href="#md572c5a7eb" x="1062.00331" y="125.043478" style="fill: #ffffff; stroke: #ffffff; stroke-linejoin: miter"/>
     <use xlink:href="#md572c5a7eb" x="164.451265" y="125.043478" style="fill: #ffffff; stroke: #ffffff; stroke-linejoin: miter"/>
     <use xlink:href="#md572c5a7eb" x="398.004183" y="125.043478" style="fill: #ffffff; stroke: #ffffff; stroke-linejoin: miter"/>
     <use xlink:href="#md572c5a7eb" x="401.051614" y="125.043478" style="fill: #ffffff; stroke: #ffffff; stroke-linejoin: miter"/>
     <use xlink:href="#md572c5a7eb" x="210.594108" y="125.043478" style="fill: #ffffff; stroke: #ffffff; stroke-linejoin: miter"/>
     <use xlink:href="#md572c5a7eb" x="139.814382" y="125.043478" style="fill: #ffffff; stroke: #ffffff; stroke-linejoin: miter"/>
     <use xlink:href="#md572c5a7eb" x="137.782761" y="125.043478" style="fill: #ffffff; stroke: #ffffff; stroke-linejoin: miter"/>
     <use xlink:href="#md572c5a7eb" x="247.246776" y="125.043478" style="fill: #ffffff; stroke: #ffffff; stroke-linejoin: miter"/>
     <use xlink:href="#md572c5a7eb" x="212.556153" y="125.043478" style="fill: #ffffff; stroke: #ffffff; stroke-linejoin: miter"/>
    </g>
   </g>
   <g id="line2d_13">
    <g clip-path="url(#p4e80efb293)">
     <use xlink:href="#md572c5a7eb" x="198.75922" y="339.304348" style="fill: #ffffff; stroke: #ffffff; stroke-linejoin: miter"/>
     <use xlink:href="#md572c5a7eb" x="201.305704" y="339.304348" style="fill: #ffffff; stroke: #ffffff; stroke-linejoin: miter"/>
     <use xlink:href="#md572c5a7eb" x="211.192462" y="339.304348" style="fill: #ffffff; stroke: #ffffff; stroke-linejoin: miter"/>
     <use xlink:href="#md572c5a7eb" x="140.948472" y="339.304348" style="fill: #ffffff; stroke: #ffffff; stroke-linejoin: miter"/>
     <use xlink:href="#md572c5a7eb" x="188.608073" y="339.304348" style="fill: #ffffff; stroke: #ffffff; stroke-linejoin: miter"/>
     <use xlink:href="#md572c5a7eb" x="120.221764" y="339.304348" style="fill: #ffffff; stroke: #ffffff; stroke-linejoin: miter"/>
     <use xlink:href="#md572c5a7eb" x="345.446427" y="339.304348" style="fill: #ffffff; stroke: #ffffff; stroke-linejoin: miter"/>
     <use xlink:href="#md572c5a7eb" x="282.438347" y="339.304348" style="fill: #ffffff; stroke: #ffffff; stroke-linejoin: miter"/>
     <use xlink:href="#md572c5a7eb" x="239.036801" y="339.304348" style="fill: #ffffff; stroke: #ffffff; stroke-linejoin: miter"/>
     <use xlink:href="#md572c5a7eb" x="101.171838" y="339.304348" style="fill: #ffffff; stroke: #ffffff; stroke-linejoin: miter"/>
     <use xlink:href="#md572c5a7eb" x="140.858023" y="339.304348" style="fill: #ffffff; stroke: #ffffff; stroke-linejoin: miter"/>
     <use xlink:href="#md572c5a7eb" x="130.658173" y="339.304348" style="fill: #ffffff; stroke: #ffffff; stroke-linejoin: miter"/>
     <use xlink:href="#md572c5a7eb" x="162.259619" y="339.304348" style="fill: #ffffff; stroke: #ffffff; stroke-linejoin: miter"/>
    </g>
   </g>
   <g id="line2d_14">
    <g clip-path="url(#p4e80efb293)">
     <use xlink:href="#md572c5a7eb" x="167.679594" y="142.184348" style="fill: #ffffff; stroke: #ffffff; stroke-linejoin: miter"/>
     <use xlink:href="#md572c5a7eb" x="169.592936" y="142.184348" style="fill: #ffffff; stroke: #ffffff; stroke-linejoin: miter"/>
     <use xlink:href="#md572c5a7eb" x="274.277075" y="142.184348" style="fill: #ffffff; stroke: #ffffff; stroke-linejoin: miter"/>
     <use xlink:href="#md572c5a7eb" x="139.341265" y="142.184348" style="fill: #ffffff; stroke: #ffffff; stroke-linejoin: miter"/>
     <use xlink:href="#md572c5a7eb" x="223.117798" y="142.184348" style="fill: #ffffff; stroke: #ffffff; stroke-linejoin: miter"/>
     <use xlink:href="#md572c5a7eb" x="221.190542" y="142.184348" style="fill: #ffffff; stroke: #ffffff; stroke-linejoin: miter"/>
     <use xlink:href="#md572c5a7eb" x="203.99134" y="142.184348" style="fill: #ffffff; stroke: #ffffff; stroke-linejoin: miter"/>
     <use xlink:href="#md572c5a7eb" x="210.489744" y="142.184348" style="fill: #ffffff; stroke: #ffffff; stroke-linejoin: miter"/>
     <use xlink:href="#md572c5a7eb" x="290.425679" y="142.184348" style="fill: #ffffff; stroke: #ffffff; stroke-linejoin: miter"/>
     <use xlink:href="#md572c5a7eb" x="114.439993" y="142.184348" style="fill: #ffffff; stroke: #ffffff; stroke-linejoin: miter"/>
     <use xlink:href="#md572c5a7eb" x="94.318596" y="142.184348" style="fill: #ffffff; stroke: #ffffff; stroke-linejoin: miter"/>
     <use xlink:href="#md572c5a7eb" x="142.541764" y="142.184348" style="fill: #ffffff; stroke: #ffffff; stroke-linejoin: miter"/>
     <use xlink:href="#md572c5a7eb" x="108.470367" y="142.184348" style="fill: #ffffff; stroke: #ffffff; stroke-linejoin: miter"/>
    </g>
   </g>
   <g id="line2d_15">
    <g clip-path="url(#p4e80efb293)">
     <use xlink:href="#md572c5a7eb" x="142.806153" y="356.445217" style="fill: #ffffff; stroke: #ffffff; stroke-linejoin: miter"/>
     <use xlink:href="#md572c5a7eb" x="109.096552" y="356.445217" style="fill: #ffffff; stroke: #ffffff; stroke-linejoin: miter"/>
     <use xlink:href="#md572c5a7eb" x="142.019943" y="356.445217" style="fill: #ffffff; stroke: #ffffff; stroke-linejoin: miter"/>
     <use xlink:href="#md572c5a7eb" x="96.238896" y="356.445217" style="fill: #ffffff; stroke: #ffffff; stroke-linejoin: miter"/>
     <use xlink:href="#md572c5a7eb" x="120.152187" y="356.445217" style="fill: #ffffff; stroke: #ffffff; stroke-linejoin: miter"/>
     <use xlink:href="#md572c5a7eb" x="108.553858" y="356.445217" style="fill: #ffffff; stroke: #ffffff; stroke-linejoin: miter"/>
     <use xlink:href="#md572c5a7eb" x="174.108422" y="356.445217" style="fill: #ffffff; stroke: #ffffff; stroke-linejoin: miter"/>
     <use xlink:href="#md572c5a7eb" x="172.090716" y="356.445217" style="fill: #ffffff; stroke: #ffffff; stroke-linejoin: miter"/>
     <use xlink:href="#md572c5a7eb" x="102.424207" y="356.445217" style="fill: #ffffff; stroke: #ffffff; stroke-linejoin: miter"/>
     <use xlink:href="#md572c5a7eb" x="89.928347" y="356.445217" style="fill: #ffffff; stroke: #ffffff; stroke-linejoin: miter"/>
     <use xlink:href="#md572c5a7eb" x="84.675355" y="356.445217" style="fill: #ffffff; stroke: #ffffff; stroke-linejoin: miter"/>
     <use xlink:href="#md572c5a7eb" x="93.692412" y="356.445217" style="fill: #ffffff; stroke: #ffffff; stroke-linejoin: miter"/>
     <use xlink:href="#md572c5a7eb" x="103.697449" y="356.445217" style="fill: #ffffff; stroke: #ffffff; stroke-linejoin: miter"/>
    </g>
   </g>
   <g id="line2d_16">
    <path d="M 210.594108 45.123182 
L 210.594108 60.765217 
" clip-path="url(#p4e80efb293)" style="fill: none; stroke-dasharray: 3.375,3.375; stroke-dashoffset: 0; stroke: #7c7c7c; stroke-width: 1.5"/>
   </g>
   <g id="line2d_17">
    <path d="M 247.246776 44.621211 
L 247.246776 60.765217 
" clip-path="url(#p4e80efb293)" style="fill: none; stroke: #000000; stroke-width: 1.2; stroke-linecap: round"/>
   </g>
   <g id="line2d_18">
    <path d="M 401.051614 47.691475 
L 401.051614 60.765217 
" clip-path="url(#p4e80efb293)" style="fill: none; stroke-dasharray: 3.375,3.375; stroke-dashoffset: 0; stroke: #7c7c7c; stroke-width: 1.5"/>
   </g>
   <g id="line2d_19">
    <path d="M 139.341265 60.765217 
L 139.341265 102.10579 
" clip-path="url(#p4e80efb293)" style="fill: none; stroke-dasharray: 3.375,3.375; stroke-dashoffset: 0; stroke: #7c7c7c; stroke-width: 1.5"/>
   </g>
   <g id="line2d_20">
    <path d="M 169.592936 60.765217 
L 169.592936 103.161194 
" clip-path="url(#p4e80efb293)" style="fill: none; stroke: #000000; stroke-width: 1.2; stroke-linecap: round"/>
   </g>
   <g id="line2d_21">
    <path d="M 221.190542 60.765217 
L 221.190542 97.63267 
" clip-path="url(#p4e80efb293)" style="fill: none; stroke-dasharray: 3.375,3.375; stroke-dashoffset: 0; stroke: #7c7c7c; stroke-width: 1.5"/>
   </g>
   <g id="line2d_22">
    <path d="M 140.858023 258.95359 
L 140.858023 275.026087 
" clip-path="url(#p4e80efb293)" style="fill: none; stroke-dasharray: 3.375,3.375; stroke-dashoffset: 0; stroke: #7c7c7c; stroke-width: 1.5"/>
   </g>
   <g id="line2d_23">
    <path d="M 188.608073 258.794353 
L 188.608073 275.026087 
" clip-path="url(#p4e80efb293)" style="fill: none; stroke: #000000; stroke-width: 1.2; stroke-linecap: round"/>
   </g>
   <g id="line2d_24">
    <path d="M 211.192462 260.993847 
L 211.192462 275.026087 
" clip-path="url(#p4e80efb293)" style="fill: none; stroke-dasharray: 3.375,3.375; stroke-dashoffset: 0; stroke: #7c7c7c; stroke-width: 1.5"/>
   </g>
   <g id="line2d_25">
    <path d="M 96.238896 275.026087 
L 96.238896 316.254011 
" clip-path="url(#p4e80efb293)" style="fill: none; stroke-dasharray: 3.375,3.375; stroke-dashoffset: 0; stroke: #7c7c7c; stroke-width: 1.5"/>
   </g>
   <g id="line2d_26">
    <path d="M 108.553858 275.026087 
L 108.553858 315.867574 
" clip-path="url(#p4e80efb293)" style="fill: none; stroke: #000000; stroke-width: 1.2; stroke-linecap: round"/>
   </g>
   <g id="line2d_27">
    <path d="M 142.019943 275.026087 
L 142.019943 294.373976 
" clip-path="url(#p4e80efb293)" style="fill: none; stroke-dasharray: 3.375,3.375; stroke-dashoffset: 0; stroke: #7c7c7c; stroke-width: 1.5"/>
   </g>
   <g id="patch_5">
    <path d="M 44.822187 450.72 
L 44.822187 7.2 
" style="fill: none; stroke: #cccccc; stroke-width: 1.25; stroke-linejoin: miter; stroke-linecap: square"/>
   </g>
   <g id="patch_6">
    <path d="M 44.822187 450.72 
L 602.822187 450.72 
" style="fill: none; stroke: #cccccc; stroke-width: 1.25; stroke-linejoin: miter; stroke-linecap: square"/>
   </g>
   <g id="text_13">
    <text style="fill: #3182bd; font: 24px 'Arial', 'DejaVu Sans', 'Liberation Sans', 'Bitstream Vera Sans', sans-serif; text-anchor: middle" x="247.246776" y="206.462609" transform="rotate(-0 247.246776 206.462609)">14.5</text>
   </g>
   <g id="text_14">
    <text style="fill: #3182bd; font: 24px 'Arial', 'DejaVu Sans', 'Liberation Sans', 'Bitstream Vera Sans', sans-serif; text-anchor: middle" x="188.608073" y="420.723478" transform="rotate(-0 188.608073 420.723478)">10.3</text>
   </g>
   <g id="text_15">
    <text style="fill: #e6550d; font: 24px 'Arial', 'DejaVu Sans', 'Liberation Sans', 'Bitstream Vera Sans', sans-serif; text-anchor: middle" x="169.592936" y="217.175652" transform="rotate(-0 169.592936 217.175652)">9.0</text>
   </g>
   <g id="text_16">
    <text style="fill: #e6550d; font: 24px 'Arial', 'DejaVu Sans', 'Liberation Sans', 'Bitstream Vera Sans', sans-serif; text-anchor: middle" x="108.553858" y="431.436522" transform="rotate(-0 108.553858 431.436522)">4.6</text>
   </g>
   <g id="legend_1">
    <g id="patch_7">
     <path d="M 479.601562 446.32 
L 594.022188 446.32 
Q 598.422188 446.32 598.422188 441.92 
L 598.422188 390.680625 
Q 598.422188 386.280625 594.022188 386.280625 
L 479.601562 386.280625 
Q 475.201563 386.280625 475.201563 390.680625 
L 475.201563 441.92 
Q 475.201563 446.32 479.601562 446.32 
z
" style="fill: #ffffff"/>
    </g>
    <g id="patch_8">
     <path d="M 484.001563 410.827812 
L 528.001563 410.827812 
L 528.001563 395.427812 
L 484.001563 395.427812 
z
" style="fill: #cbdbea; stroke: #7c7c7c; stroke-width: 0.75; stroke-linejoin: miter"/>
    </g>
    <g id="text_17">
     <text style="fill: #262626; font: 22px 'Arial', 'DejaVu Sans', 'Liberation Sans', 'Bitstream Vera Sans', sans-serif; text-anchor: start" x="545.601562" y="410.827812" transform="rotate(-0 545.601562 410.827812)">SQL</text>
    </g>
    <g id="patch_9">
     <path d="M 484.001563 433.1475 
L 528.001563 433.1475 
L 528.001563 417.7475 
L 484.001563 417.7475 
z
" style="fill: #f2d0ad; stroke: #7c7c7c; stroke-width: 0.75; stroke-linejoin: miter"/>
    </g>
    <g id="text_18">
     <text style="fill: #262626; font: 22px 'Arial', 'DejaVu Sans', 'Liberation Sans', 'Bitstream Vera Sans', sans-serif; text-anchor: start" x="545.601562" y="433.1475" transform="rotate(-0 545.601562 433.1475)">DX</text>
    </g>
   </g>
   <g id="line2d_28">
    <defs>
     <path id="mfd156f7ca6" d="M 0 -5.5 
L -5.5 5.5 
L 5.5 5.5 
z
"/>
    </defs>
    <g clip-path="url(#p4e80efb293)">
     <use xlink:href="#mfd156f7ca6" x="342.204183" y="125.043478" style="fill: #3182bd"/>
     <use xlink:href="#mfd156f7ca6" x="405.114856" y="125.043478" style="fill: #3182bd"/>
     <use xlink:href="#mfd156f7ca6" x="446.902237" y="125.043478" style="fill: #3182bd"/>
     <use xlink:href="#mfd156f7ca6" x="214.413833" y="125.043478" style="fill: #3182bd"/>
     <use xlink:href="#mfd156f7ca6" x="1062.00331" y="125.043478" style="fill: #3182bd"/>
     <use xlink:href="#mfd156f7ca6" x="164.451265" y="125.043478" style="fill: #3182bd"/>
     <use xlink:href="#mfd156f7ca6" x="398.004183" y="125.043478" style="fill: #3182bd"/>
     <use xlink:href="#mfd156f7ca6" x="401.051614" y="125.043478" style="fill: #3182bd"/>
     <use xlink:href="#mfd156f7ca6" x="210.594108" y="125.043478" style="fill: #3182bd"/>
     <use xlink:href="#mfd156f7ca6" x="139.814382" y="125.043478" style="fill: #3182bd"/>
     <use xlink:href="#mfd156f7ca6" x="137.782761" y="125.043478" style="fill: #3182bd"/>
     <use xlink:href="#mfd156f7ca6" x="247.246776" y="125.043478" style="fill: #3182bd"/>
     <use xlink:href="#mfd156f7ca6" x="212.556153" y="125.043478" style="fill: #3182bd"/>
    </g>
   </g>
   <g id="line2d_29">
    <g clip-path="url(#p4e80efb293)">
     <use xlink:href="#mfd156f7ca6" x="198.75922" y="339.304348" style="fill: #3182bd"/>
     <use xlink:href="#mfd156f7ca6" x="201.305704" y="339.304348" style="fill: #3182bd"/>
     <use xlink:href="#mfd156f7ca6" x="211.192462" y="339.304348" style="fill: #3182bd"/>
     <use xlink:href="#mfd156f7ca6" x="140.948472" y="339.304348" style="fill: #3182bd"/>
     <use xlink:href="#mfd156f7ca6" x="188.608073" y="339.304348" style="fill: #3182bd"/>
     <use xlink:href="#mfd156f7ca6" x="120.221764" y="339.304348" style="fill: #3182bd"/>
     <use xlink:href="#mfd156f7ca6" x="345.446427" y="339.304348" style="fill: #3182bd"/>
     <use xlink:href="#mfd156f7ca6" x="282.438347" y="339.304348" style="fill: #3182bd"/>
     <use xlink:href="#mfd156f7ca6" x="239.036801" y="339.304348" style="fill: #3182bd"/>
     <use xlink:href="#mfd156f7ca6" x="101.171838" y="339.304348" style="fill: #3182bd"/>
     <use xlink:href="#mfd156f7ca6" x="140.858023" y="339.304348" style="fill: #3182bd"/>
     <use xlink:href="#mfd156f7ca6" x="130.658173" y="339.304348" style="fill: #3182bd"/>
     <use xlink:href="#mfd156f7ca6" x="162.259619" y="339.304348" style="fill: #3182bd"/>
    </g>
   </g>
   <g id="line2d_30">
    <defs>
     <path id="m7ab384f12c" d="M 0 -5.5 
L -5.5 5.5 
L 5.5 5.5 
z
"/>
    </defs>
    <g clip-path="url(#p4e80efb293)">
     <use xlink:href="#m7ab384f12c" x="167.679594" y="142.184348" style="fill: #e6550d"/>
     <use xlink:href="#m7ab384f12c" x="169.592936" y="142.184348" style="fill: #e6550d"/>
     <use xlink:href="#m7ab384f12c" x="274.277075" y="142.184348" style="fill: #e6550d"/>
     <use xlink:href="#m7ab384f12c" x="139.341265" y="142.184348" style="fill: #e6550d"/>
     <use xlink:href="#m7ab384f12c" x="223.117798" y="142.184348" style="fill: #e6550d"/>
     <use xlink:href="#m7ab384f12c" x="221.190542" y="142.184348" style="fill: #e6550d"/>
     <use xlink:href="#m7ab384f12c" x="203.99134" y="142.184348" style="fill: #e6550d"/>
     <use xlink:href="#m7ab384f12c" x="210.489744" y="142.184348" style="fill: #e6550d"/>
     <use xlink:href="#m7ab384f12c" x="290.425679" y="142.184348" style="fill: #e6550d"/>
     <use xlink:href="#m7ab384f12c" x="114.439993" y="142.184348" style="fill: #e6550d"/>
     <use xlink:href="#m7ab384f12c" x="94.318596" y="142.184348" style="fill: #e6550d"/>
     <use xlink:href="#m7ab384f12c" x="142.541764" y="142.184348" style="fill: #e6550d"/>
     <use xlink:href="#m7ab384f12c" x="108.470367" y="142.184348" style="fill: #e6550d"/>
    </g>
   </g>
   <g id="line2d_31">
    <g clip-path="url(#p4e80efb293)">
     <use xlink:href="#m7ab384f12c" x="142.806153" y="356.445217" style="fill: #e6550d"/>
     <use xlink:href="#m7ab384f12c" x="109.096552" y="356.445217" style="fill: #e6550d"/>
     <use xlink:href="#m7ab384f12c" x="142.019943" y="356.445217" style="fill: #e6550d"/>
     <use xlink:href="#m7ab384f12c" x="96.238896" y="356.445217" style="fill: #e6550d"/>
     <use xlink:href="#m7ab384f12c" x="120.152187" y="356.445217" style="fill: #e6550d"/>
     <use xlink:href="#m7ab384f12c" x="108.553858" y="356.445217" style="fill: #e6550d"/>
     <use xlink:href="#m7ab384f12c" x="174.108422" y="356.445217" style="fill: #e6550d"/>
     <use xlink:href="#m7ab384f12c" x="172.090716" y="356.445217" style="fill: #e6550d"/>
     <use xlink:href="#m7ab384f12c" x="102.424207" y="356.445217" style="fill: #e6550d"/>
     <use xlink:href="#m7ab384f12c" x="89.928347" y="356.445217" style="fill: #e6550d"/>
     <use xlink:href="#m7ab384f12c" x="84.675355" y="356.445217" style="fill: #e6550d"/>
     <use xlink:href="#m7ab384f12c" x="93.692412" y="356.445217" style="fill: #e6550d"/>
     <use xlink:href="#m7ab384f12c" x="103.697449" y="356.445217" style="fill: #e6550d"/>
    </g>
   </g>
   <g id="LineCollection_1">
    <path d="M 210.594108 167.895652 
L 401.051614 167.895652 
" clip-path="url(#p4e80efb293)" style="fill: none; stroke: #3182bd; stroke-width: 3"/>
   </g>
   <g id="LineCollection_2">
    <path d="M 140.858023 382.156522 
L 211.192462 382.156522 
" clip-path="url(#p4e80efb293)" style="fill: none; stroke: #3182bd; stroke-width: 3"/>
   </g>
   <g id="LineCollection_3">
    <path d="M 139.341265 178.608696 
L 221.190542 178.608696 
" clip-path="url(#p4e80efb293)" style="fill: none; stroke: #e6550d; stroke-width: 3"/>
   </g>
   <g id="LineCollection_4">
    <path d="M 96.238896 392.869565 
L 142.019943 392.869565 
" clip-path="url(#p4e80efb293)" style="fill: none; stroke: #e6550d; stroke-width: 3"/>
   </g>
   <g id="line2d_32">
    <defs>
     <path id="m1085d0e348" d="M 0 5 
C 1.326016 5 2.597899 4.473168 3.535534 3.535534 
C 4.473168 2.597899 5 1.326016 5 0 
C 5 -1.326016 4.473168 -2.597899 3.535534 -3.535534 
C 2.597899 -4.473168 1.326016 -5 0 -5 
C -1.326016 -5 -2.597899 -4.473168 -3.535534 -3.535534 
C -4.473168 -2.597899 -5 -1.326016 -5 0 
C -5 1.326016 -4.473168 2.597899 -3.535534 3.535534 
C -2.597899 4.473168 -1.326016 5 0 5 
z
" style="stroke: #3182bd"/>
    </defs>
    <g clip-path="url(#p4e80efb293)">
     <use xlink:href="#m1085d0e348" x="247.246776" y="167.895652" style="fill: #3182bd; stroke: #3182bd"/>
    </g>
   </g>
   <g id="line2d_33">
    <g clip-path="url(#p4e80efb293)">
     <use xlink:href="#m1085d0e348" x="188.608073" y="382.156522" style="fill: #3182bd; stroke: #3182bd"/>
    </g>
   </g>
   <g id="line2d_34">
    <defs>
     <path id="m9cb4891cb9" d="M 0 5 
C 1.326016 5 2.597899 4.473168 3.535534 3.535534 
C 4.473168 2.597899 5 1.326016 5 0 
C 5 -1.326016 4.473168 -2.597899 3.535534 -3.535534 
C 2.597899 -4.473168 1.326016 -5 0 -5 
C -1.326016 -5 -2.597899 -4.473168 -3.535534 -3.535534 
C -4.473168 -2.597899 -5 -1.326016 -5 0 
C -5 1.326016 -4.473168 2.597899 -3.535534 3.535534 
C -2.597899 4.473168 -1.326016 5 0 5 
z
" style="stroke: #e6550d"/>
    </defs>
    <g clip-path="url(#p4e80efb293)">
     <use xlink:href="#m9cb4891cb9" x="169.592936" y="178.608696" style="fill: #e6550d; stroke: #e6550d"/>
    </g>
   </g>
   <g id="line2d_35">
    <g clip-path="url(#p4e80efb293)">
     <use xlink:href="#m9cb4891cb9" x="108.553858" y="392.869565" style="fill: #e6550d; stroke: #e6550d"/>
    </g>
   </g>
  </g>
 </g>
 <defs>
  <clipPath id="p4e80efb293">
   <rect x="44.822187" y="7.2" width="558" height="443.52"/>
  </clipPath>
 </defs>
</svg>
