<?xml version="1.0" encoding="utf-8" standalone="no"?>
<!DOCTYPE svg PUBLIC "-//W3C//DTD SVG 1.1//EN"
  "http://www.w3.org/Graphics/SVG/1.1/DTD/svg11.dtd">
<svg xmlns:xlink="http://www.w3.org/1999/xlink" width="620.48537pt" height="565.748438pt" viewBox="0 0 620.48537 565.748438" xmlns="http://www.w3.org/2000/svg" version="1.1">
 <metadata>
  <rdf:RDF xmlns:dc="http://purl.org/dc/elements/1.1/" xmlns:cc="http://creativecommons.org/ns#" xmlns:rdf="http://www.w3.org/1999/02/22-rdf-syntax-ns#">
   <cc:Work>
    <dc:type rdf:resource="http://purl.org/dc/dcmitype/StillImage"/>
    <dc:date>2023-10-08T11:46:37.300445</dc:date>
    <dc:format>image/svg+xml</dc:format>
    <dc:creator>
     <cc:Agent>
      <dc:title>Matplotlib v3.7.1, https://matplotlib.org/</dc:title>
     </cc:Agent>
    </dc:creator>
   </cc:Work>
  </rdf:RDF>
 </metadata>
 <defs>
  <style type="text/css">*{stroke-linejoin: round; stroke-linecap: butt}</style>
 </defs>
 <g id="figure_1">
  <g id="patch_1">
   <path d="M 0 565.748438 
L 620.48537 565.748438 
L 620.48537 0 
L 0 0 
z
" style="fill: #ffffff"/>
  </g>
  <g id="axes_1">
   <g id="patch_2">
    <path d="M 43.60875 506.16 
L 601.60875 506.16 
L 601.60875 7.2 
L 43.60875 7.2 
z
" style="fill: #ffffff"/>
   </g>
   <g id="line2d_1">
    <path d="M 135.519879 97.373494 
L 190.04891 217.604819 
" clip-path="url(#pcdcdb4ea87)" style="fill: none; stroke: #3182bd; stroke-opacity: 0.3; stroke-width: 3; stroke-linecap: round"/>
   </g>
   <g id="line2d_2">
    <path d="M 190.04891 217.604819 
L 204.720798 337.836145 
" clip-path="url(#pcdcdb4ea87)" style="fill: none; stroke: #3182bd; stroke-opacity: 0.3; stroke-width: 3; stroke-linecap: round"/>
   </g>
   <g id="line2d_3">
    <path d="M 204.720798 337.836145 
L 155.532067 458.06747 
" clip-path="url(#pcdcdb4ea87)" style="fill: none; stroke: #3182bd; stroke-opacity: 0.3; stroke-width: 3; stroke-linecap: round"/>
   </g>
   <g id="line2d_4">
    <path d="M 84.881797 105.789687 
L 150.559679 226.021012 
" clip-path="url(#pcdcdb4ea87)" style="fill: none; stroke: #e6550d; stroke-opacity: 0.3; stroke-width: 3; stroke-linecap: round"/>
   </g>
   <g id="line2d_5">
    <path d="M 150.559679 226.021012 
L 170.337741 346.252337 
" clip-path="url(#pcdcdb4ea87)" style="fill: none; stroke: #e6550d; stroke-opacity: 0.3; stroke-width: 3; stroke-linecap: round"/>
   </g>
   <g id="line2d_6">
    <path d="M 170.337741 346.252337 
L 88.895383 466.483663 
" clip-path="url(#pcdcdb4ea87)" style="fill: none; stroke: #e6550d; stroke-opacity: 0.3; stroke-width: 3; stroke-linecap: round"/>
   </g>
   <g id="matplotlib.axis_1">
    <g id="xtick_1">
     <g id="line2d_7">
      <path d="M 43.60875 506.16 
L 43.60875 7.2 
" clip-path="url(#pcdcdb4ea87)" style="fill: none; stroke: #d3d3d3; stroke-width: 0.5; stroke-linecap: round"/>
     </g>
     <g id="text_1">
      <text style="fill: #262626; font: 22px 'Arial', 'DejaVu Sans', 'Liberation Sans', 'Bitstream Vera Sans', sans-serif; text-anchor: middle" x="43.60875" y="531.407188" transform="rotate(-0 43.60875 531.407188)">0</text>
     </g>
    </g>
    <g id="xtick_2">
     <g id="line2d_8">
      <path d="M 99.353006 506.16 
L 99.353006 7.2 
" clip-path="url(#pcdcdb4ea87)" style="fill: none; stroke: #d3d3d3; stroke-width: 0.5; stroke-linecap: round"/>
     </g>
     <g id="text_2">
      <text style="fill: #262626; font: 22px 'Arial', 'DejaVu Sans', 'Liberation Sans', 'Bitstream Vera Sans', sans-serif; text-anchor: middle" x="99.353006" y="531.407188" transform="rotate(-0 99.353006 531.407188)">5</text>
     </g>
    </g>
    <g id="xtick_3">
     <g id="line2d_9">
      <path d="M 155.097261 506.16 
L 155.097261 7.2 
" clip-path="url(#pcdcdb4ea87)" style="fill: none; stroke: #d3d3d3; stroke-width: 0.5; stroke-linecap: round"/>
     </g>
     <g id="text_3">
      <text style="fill: #262626; font: 22px 'Arial', 'DejaVu Sans', 'Liberation Sans', 'Bitstream Vera Sans', sans-serif; text-anchor: middle" x="155.097261" y="531.407188" transform="rotate(-0 155.097261 531.407188)">10</text>
     </g>
    </g>
    <g id="xtick_4">
     <g id="line2d_10">
      <path d="M 210.841517 506.16 
L 210.841517 7.2 
" clip-path="url(#pcdcdb4ea87)" style="fill: none; stroke: #d3d3d3; stroke-width: 0.5; stroke-linecap: round"/>
     </g>
     <g id="text_4">
      <text style="fill: #262626; font: 22px 'Arial', 'DejaVu Sans', 'Liberation Sans', 'Bitstream Vera Sans', sans-serif; text-anchor: middle" x="210.841517" y="531.407188" transform="rotate(-0 210.841517 531.407188)">15</text>
     </g>
    </g>
    <g id="xtick_5">
     <g id="line2d_11">
      <path d="M 266.585773 506.16 
L 266.585773 7.2 
" clip-path="url(#pcdcdb4ea87)" style="fill: none; stroke: #d3d3d3; stroke-width: 0.5; stroke-linecap: round"/>
     </g>
     <g id="text_5">
      <text style="fill: #262626; font: 22px 'Arial', 'DejaVu Sans', 'Liberation Sans', 'Bitstream Vera Sans', sans-serif; text-anchor: middle" x="266.585773" y="531.407188" transform="rotate(-0 266.585773 531.407188)">20</text>
     </g>
    </g>
    <g id="xtick_6">
     <g id="line2d_12">
      <path d="M 322.330029 506.16 
L 322.330029 7.2 
" clip-path="url(#pcdcdb4ea87)" style="fill: none; stroke: #d3d3d3; stroke-width: 0.5; stroke-linecap: round"/>
     </g>
     <g id="text_6">
      <text style="fill: #262626; font: 22px 'Arial', 'DejaVu Sans', 'Liberation Sans', 'Bitstream Vera Sans', sans-serif; text-anchor: middle" x="322.330029" y="531.407188" transform="rotate(-0 322.330029 531.407188)">25</text>
     </g>
    </g>
    <g id="xtick_7">
     <g id="line2d_13">
      <path d="M 378.074284 506.16 
L 378.074284 7.2 
" clip-path="url(#pcdcdb4ea87)" style="fill: none; stroke: #d3d3d3; stroke-width: 0.5; stroke-linecap: round"/>
     </g>
     <g id="text_7">
      <text style="fill: #262626; font: 22px 'Arial', 'DejaVu Sans', 'Liberation Sans', 'Bitstream Vera Sans', sans-serif; text-anchor: middle" x="378.074284" y="531.407188" transform="rotate(-0 378.074284 531.407188)">30</text>
     </g>
    </g>
    <g id="xtick_8">
     <g id="line2d_14">
      <path d="M 433.81854 506.16 
L 433.81854 7.2 
" clip-path="url(#pcdcdb4ea87)" style="fill: none; stroke: #d3d3d3; stroke-width: 0.5; stroke-linecap: round"/>
     </g>
     <g id="text_8">
      <text style="fill: #262626; font: 22px 'Arial', 'DejaVu Sans', 'Liberation Sans', 'Bitstream Vera Sans', sans-serif; text-anchor: middle" x="433.81854" y="531.407188" transform="rotate(-0 433.81854 531.407188)">35</text>
     </g>
    </g>
    <g id="xtick_9">
     <g id="line2d_15">
      <path d="M 489.562796 506.16 
L 489.562796 7.2 
" clip-path="url(#pcdcdb4ea87)" style="fill: none; stroke: #d3d3d3; stroke-width: 0.5; stroke-linecap: round"/>
     </g>
     <g id="text_9">
      <text style="fill: #262626; font: 22px 'Arial', 'DejaVu Sans', 'Liberation Sans', 'Bitstream Vera Sans', sans-serif; text-anchor: middle" x="489.562796" y="531.407188" transform="rotate(-0 489.562796 531.407188)">40</text>
     </g>
    </g>
    <g id="xtick_10">
     <g id="line2d_16">
      <path d="M 545.307052 506.16 
L 545.307052 7.2 
" clip-path="url(#pcdcdb4ea87)" style="fill: none; stroke: #d3d3d3; stroke-width: 0.5; stroke-linecap: round"/>
     </g>
     <g id="text_10">
      <text style="fill: #262626; font: 22px 'Arial', 'DejaVu Sans', 'Liberation Sans', 'Bitstream Vera Sans', sans-serif; text-anchor: middle" x="545.307052" y="531.407188" transform="rotate(-0 545.307052 531.407188)">45</text>
     </g>
    </g>
    <g id="xtick_11">
     <g id="line2d_17">
      <path d="M 601.051307 506.16 
L 601.051307 7.2 
" clip-path="url(#pcdcdb4ea87)" style="fill: none; stroke: #d3d3d3; stroke-width: 0.5; stroke-linecap: round"/>
     </g>
     <g id="text_11">
      <text style="fill: #262626; font: 22px 'Arial', 'DejaVu Sans', 'Liberation Sans', 'Bitstream Vera Sans', sans-serif; text-anchor: middle" x="601.051307" y="531.407188" transform="rotate(-0 601.051307 531.407188)">50</text>
     </g>
    </g>
    <g id="text_12">
     <text style="fill: #262626; font: 20px 'Arial', 'DejaVu Sans', 'Liberation Sans', 'Bitstream Vera Sans', sans-serif; text-anchor: middle" x="322.60875" y="554.339063" transform="rotate(-0 322.60875 554.339063)">Median time per worker (sec)</text>
    </g>
   </g>
   <g id="matplotlib.axis_2">
    <g id="ytick_1">
     <g id="text_13">
      <text style="fill: #262626; font: 22px 'Arial', 'DejaVu Sans', 'Liberation Sans', 'Bitstream Vera Sans', sans-serif; text-anchor: end" x="34.10875" y="45.131425" transform="rotate(-0 34.10875 45.131425)">P1</text>
     </g>
    </g>
    <g id="ytick_2">
     <g id="text_14">
      <text style="fill: #262626; font: 22px 'Arial', 'DejaVu Sans', 'Liberation Sans', 'Bitstream Vera Sans', sans-serif; text-anchor: end" x="34.10875" y="165.36275" transform="rotate(-0 34.10875 165.36275)">P2</text>
     </g>
    </g>
    <g id="ytick_3">
     <g id="text_15">
      <text style="fill: #262626; font: 22px 'Arial', 'DejaVu Sans', 'Liberation Sans', 'Bitstream Vera Sans', sans-serif; text-anchor: end" x="34.10875" y="285.594076" transform="rotate(-0 34.10875 285.594076)">P3</text>
     </g>
    </g>
    <g id="ytick_4">
     <g id="text_16">
      <text style="fill: #262626; font: 22px 'Arial', 'DejaVu Sans', 'Liberation Sans', 'Bitstream Vera Sans', sans-serif; text-anchor: end" x="34.10875" y="405.825401" transform="rotate(-0 34.10875 405.825401)">P4</text>
     </g>
    </g>
   </g>
   <g id="patch_3">
    <path d="M 43.60875 37.257831 
L 43.60875 37.257831 
L 43.60875 37.257831 
L 43.60875 37.257831 
z
" clip-path="url(#pcdcdb4ea87)" style="fill: #cbdbea; stroke: #7c7c7c; stroke-width: 0.75; stroke-linejoin: miter"/>
   </g>
   <g id="PolyCollection_1">
    <defs>
     <path id="m84d3c91446" d="M 81.882756 -528.490606 
L 81.882756 -532.494387 
L 84.344062 -532.649237 
L 86.805368 -532.800284 
L 89.266674 -532.94671 
L 91.72798 -533.087703 
L 94.189286 -533.222458 
L 96.650592 -533.350186 
L 99.111898 -533.470123 
L 101.573204 -533.581536 
L 104.03451 -533.683732 
L 106.495816 -533.776065 
L 108.957122 -533.857941 
L 111.418428 -533.92883 
L 113.879734 -533.988269 
L 116.34104 -534.035867 
L 118.802345 -534.071315 
L 121.263651 -534.094386 
L 123.724957 -534.104944 
L 126.186263 -534.102942 
L 128.647569 -534.088426 
L 131.108875 -534.061537 
L 133.570181 -534.022512 
L 136.031487 -533.971679 
L 138.492793 -533.909458 
L 140.954099 -533.836357 
L 143.415405 -533.752965 
L 145.876711 -533.65995 
L 148.338017 -533.55805 
L 150.799323 -533.448067 
L 153.260629 -533.330857 
L 155.721935 -533.207321 
L 158.183241 -533.078394 
L 160.644547 -532.945041 
L 163.105853 -532.808236 
L 165.567159 -532.66896 
L 168.028465 -532.528186 
L 170.489771 -532.38687 
L 172.951077 -532.245938 
L 175.412383 -532.10628 
L 177.873689 -531.968737 
L 180.334995 -531.834095 
L 182.796301 -531.703076 
L 185.257607 -531.576332 
L 187.718913 -531.454439 
L 190.180219 -531.337894 
L 192.641524 -531.227109 
L 195.10283 -531.122412 
L 197.564136 -531.024044 
L 200.025442 -530.932162 
L 202.486748 -530.846839 
L 204.948054 -530.768068 
L 207.40936 -530.695766 
L 209.870666 -530.629778 
L 212.331972 -530.569885 
L 214.793278 -530.515808 
L 217.254584 -530.46722 
L 219.71589 -530.423749 
L 222.177196 -530.384987 
L 224.638502 -530.350503 
L 227.099808 -530.319846 
L 229.561114 -530.292554 
L 232.02242 -530.268166 
L 234.483726 -530.246226 
L 236.945032 -530.22629 
L 239.406338 -530.207935 
L 241.867644 -530.19076 
L 244.32895 -530.174396 
L 246.790256 -530.158507 
L 249.251562 -530.142793 
L 251.712868 -530.126992 
L 254.174174 -530.110883 
L 256.63548 -530.094282 
L 259.096786 -530.077047 
L 261.558092 -530.059069 
L 264.019398 -530.04028 
L 266.480704 -530.020639 
L 268.942009 -530.000137 
L 271.403315 -529.97879 
L 273.864621 -529.956634 
L 276.325927 -529.933723 
L 278.787233 -529.910124 
L 281.248539 -529.885913 
L 283.709845 -529.861171 
L 286.171151 -529.83598 
L 288.632457 -529.81042 
L 291.093763 -529.784567 
L 293.555069 -529.758489 
L 296.016375 -529.732245 
L 298.477681 -529.705884 
L 300.938987 -529.679445 
L 303.400293 -529.652953 
L 305.861599 -529.626424 
L 308.322905 -529.599864 
L 310.784211 -529.573267 
L 313.245517 -529.546622 
L 315.706823 -529.519908 
L 318.168129 -529.493104 
L 320.629435 -529.466182 
L 323.090741 -529.439117 
L 325.552047 -529.411883 
L 325.552047 -528.490606 
L 325.552047 -528.490606 
L 323.090741 -528.490606 
L 320.629435 -528.490606 
L 318.168129 -528.490606 
L 315.706823 -528.490606 
L 313.245517 -528.490606 
L 310.784211 -528.490606 
L 308.322905 -528.490606 
L 305.861599 -528.490606 
L 303.400293 -528.490606 
L 300.938987 -528.490606 
L 298.477681 -528.490606 
L 296.016375 -528.490606 
L 293.555069 -528.490606 
L 291.093763 -528.490606 
L 288.632457 -528.490606 
L 286.171151 -528.490606 
L 283.709845 -528.490606 
L 281.248539 -528.490606 
L 278.787233 -528.490606 
L 276.325927 -528.490606 
L 273.864621 -528.490606 
L 271.403315 -528.490606 
L 268.942009 -528.490606 
L 266.480704 -528.490606 
L 264.019398 -528.490606 
L 261.558092 -528.490606 
L 259.096786 -528.490606 
L 256.63548 -528.490606 
L 254.174174 -528.490606 
L 251.712868 -528.490606 
L 249.251562 -528.490606 
L 246.790256 -528.490606 
L 244.32895 -528.490606 
L 241.867644 -528.490606 
L 239.406338 -528.490606 
L 236.945032 -528.490606 
L 234.483726 -528.490606 
L 232.02242 -528.490606 
L 229.561114 -528.490606 
L 227.099808 -528.490606 
L 224.638502 -528.490606 
L 222.177196 -528.490606 
L 219.71589 -528.490606 
L 217.254584 -528.490606 
L 214.793278 -528.490606 
L 212.331972 -528.490606 
L 209.870666 -528.490606 
L 207.40936 -528.490606 
L 204.948054 -528.490606 
L 202.486748 -528.490606 
L 200.025442 -528.490606 
L 197.564136 -528.490606 
L 195.10283 -528.490606 
L 192.641524 -528.490606 
L 190.180219 -528.490606 
L 187.718913 -528.490606 
L 185.257607 -528.490606 
L 182.796301 -528.490606 
L 180.334995 -528.490606 
L 177.873689 -528.490606 
L 175.412383 -528.490606 
L 172.951077 -528.490606 
L 170.489771 -528.490606 
L 168.028465 -528.490606 
L 165.567159 -528.490606 
L 163.105853 -528.490606 
L 160.644547 -528.490606 
L 158.183241 -528.490606 
L 155.721935 -528.490606 
L 153.260629 -528.490606 
L 150.799323 -528.490606 
L 148.338017 -528.490606 
L 145.876711 -528.490606 
L 143.415405 -528.490606 
L 140.954099 -528.490606 
L 138.492793 -528.490606 
L 136.031487 -528.490606 
L 133.570181 -528.490606 
L 131.108875 -528.490606 
L 128.647569 -528.490606 
L 126.186263 -528.490606 
L 123.724957 -528.490606 
L 121.263651 -528.490606 
L 118.802345 -528.490606 
L 116.34104 -528.490606 
L 113.879734 -528.490606 
L 111.418428 -528.490606 
L 108.957122 -528.490606 
L 106.495816 -528.490606 
L 104.03451 -528.490606 
L 101.573204 -528.490606 
L 99.111898 -528.490606 
L 96.650592 -528.490606 
L 94.189286 -528.490606 
L 91.72798 -528.490606 
L 89.266674 -528.490606 
L 86.805368 -528.490606 
L 84.344062 -528.490606 
L 81.882756 -528.490606 
z
" style="stroke: #7c7c7c; stroke-width: 1.5"/>
    </defs>
    <g clip-path="url(#pcdcdb4ea87)">
     <use xlink:href="#m84d3c91446" x="0" y="565.748438" style="fill: #cbdbea; stroke: #7c7c7c; stroke-width: 1.5"/>
    </g>
   </g>
   <g id="patch_4">
    <path d="M 43.60875 37.257831 
L 43.60875 37.257831 
L 43.60875 37.257831 
L 43.60875 37.257831 
z
" clip-path="url(#pcdcdb4ea87)" style="fill: #f2d0ad; stroke: #7c7c7c; stroke-width: 0.75; stroke-linejoin: miter"/>
   </g>
   <g id="PolyCollection_2">
    <defs>
     <path id="m6da0a77a94" d="M 70.856542 -517.8947 
L 70.856542 -528.490606 
L 71.223103 -528.490606 
L 71.589664 -528.490606 
L 71.956224 -528.490606 
L 72.322785 -528.490606 
L 72.689346 -528.490606 
L 73.055906 -528.490606 
L 73.422467 -528.490606 
L 73.789028 -528.490606 
L 74.155589 -528.490606 
L 74.522149 -528.490606 
L 74.88871 -528.490606 
L 75.255271 -528.490606 
L 75.621831 -528.490606 
L 75.988392 -528.490606 
L 76.354953 -528.490606 
L 76.721514 -528.490606 
L 77.088074 -528.490606 
L 77.454635 -528.490606 
L 77.821196 -528.490606 
L 78.187756 -528.490606 
L 78.554317 -528.490606 
L 78.920878 -528.490606 
L 79.287439 -528.490606 
L 79.653999 -528.490606 
L 80.02056 -528.490606 
L 80.387121 -528.490606 
L 80.753681 -528.490606 
L 81.120242 -528.490606 
L 81.486803 -528.490606 
L 81.853364 -528.490606 
L 82.219924 -528.490606 
L 82.586485 -528.490606 
L 82.953046 -528.490606 
L 83.319606 -528.490606 
L 83.686167 -528.490606 
L 84.052728 -528.490606 
L 84.419289 -528.490606 
L 84.785849 -528.490606 
L 85.15241 -528.490606 
L 85.518971 -528.490606 
L 85.885531 -528.490606 
L 86.252092 -528.490606 
L 86.618653 -528.490606 
L 86.985214 -528.490606 
L 87.351774 -528.490606 
L 87.718335 -528.490606 
L 88.084896 -528.490606 
L 88.451456 -528.490606 
L 88.818017 -528.490606 
L 89.184578 -528.490606 
L 89.551139 -528.490606 
L 89.917699 -528.490606 
L 90.28426 -528.490606 
L 90.650821 -528.490606 
L 91.017381 -528.490606 
L 91.383942 -528.490606 
L 91.750503 -528.490606 
L 92.117064 -528.490606 
L 92.483624 -528.490606 
L 92.850185 -528.490606 
L 93.216746 -528.490606 
L 93.583306 -528.490606 
L 93.949867 -528.490606 
L 94.316428 -528.490606 
L 94.682988 -528.490606 
L 95.049549 -528.490606 
L 95.41611 -528.490606 
L 95.782671 -528.490606 
L 96.149231 -528.490606 
L 96.515792 -528.490606 
L 96.882353 -528.490606 
L 97.248913 -528.490606 
L 97.615474 -528.490606 
L 97.982035 -528.490606 
L 98.348596 -528.490606 
L 98.715156 -528.490606 
L 99.081717 -528.490606 
L 99.448278 -528.490606 
L 99.814838 -528.490606 
L 100.181399 -528.490606 
L 100.54796 -528.490606 
L 100.914521 -528.490606 
L 101.281081 -528.490606 
L 101.647642 -528.490606 
L 102.014203 -528.490606 
L 102.380763 -528.490606 
L 102.747324 -528.490606 
L 103.113885 -528.490606 
L 103.480446 -528.490606 
L 103.847006 -528.490606 
L 104.213567 -528.490606 
L 104.580128 -528.490606 
L 104.946688 -528.490606 
L 105.313249 -528.490606 
L 105.67981 -528.490606 
L 106.046371 -528.490606 
L 106.412931 -528.490606 
L 106.779492 -528.490606 
L 107.146053 -528.490606 
L 107.146053 -509.198308 
L 107.146053 -509.198308 
L 106.779492 -508.905997 
L 106.412931 -508.647263 
L 106.046371 -508.422848 
L 105.67981 -508.23322 
L 105.313249 -508.078558 
L 104.946688 -507.958748 
L 104.580128 -507.873384 
L 104.213567 -507.821763 
L 103.847006 -507.802897 
L 103.480446 -507.815514 
L 103.113885 -507.858071 
L 102.747324 -507.928769 
L 102.380763 -508.025568 
L 102.014203 -508.146206 
L 101.647642 -508.288219 
L 101.281081 -508.448971 
L 100.914521 -508.625669 
L 100.54796 -508.815401 
L 100.181399 -509.015157 
L 99.814838 -509.221859 
L 99.448278 -509.432396 
L 99.081717 -509.643647 
L 98.715156 -509.852517 
L 98.348596 -510.055964 
L 97.982035 -510.251029 
L 97.615474 -510.434864 
L 97.248913 -510.604761 
L 96.882353 -510.758177 
L 96.515792 -510.89276 
L 96.149231 -511.006366 
L 95.782671 -511.097089 
L 95.41611 -511.163272 
L 95.049549 -511.203526 
L 94.682988 -511.216745 
L 94.316428 -511.202114 
L 93.949867 -511.159122 
L 93.583306 -511.087562 
L 93.216746 -510.987539 
L 92.850185 -510.859468 
L 92.483624 -510.704073 
L 92.117064 -510.522375 
L 91.750503 -510.315692 
L 91.383942 -510.085621 
L 91.017381 -509.834028 
L 90.650821 -509.563026 
L 90.28426 -509.274961 
L 89.917699 -508.972385 
L 89.551139 -508.658038 
L 89.184578 -508.334813 
L 88.818017 -508.005737 
L 88.451456 -507.673937 
L 88.084896 -507.342609 
L 87.718335 -507.014989 
L 87.351774 -506.69432 
L 86.985214 -506.383818 
L 86.618653 -506.086645 
L 86.252092 -505.805873 
L 85.885531 -505.544456 
L 85.518971 -505.3052 
L 85.15241 -505.090739 
L 84.785849 -504.903506 
L 84.419289 -504.745711 
L 84.052728 -504.619325 
L 83.686167 -504.526057 
L 83.319606 -504.467344 
L 82.953046 -504.444341 
L 82.586485 -504.45791 
L 82.219924 -504.508618 
L 81.853364 -504.596739 
L 81.486803 -504.722255 
L 81.120242 -504.88486 
L 80.753681 -505.083977 
L 80.387121 -505.318762 
L 80.02056 -505.588126 
L 79.653999 -505.89075 
L 79.287439 -506.225104 
L 78.920878 -506.589472 
L 78.554317 -506.981974 
L 78.187756 -507.400588 
L 77.821196 -507.843179 
L 77.454635 -508.307521 
L 77.088074 -508.791325 
L 76.721514 -509.292259 
L 76.354953 -509.807979 
L 75.988392 -510.336147 
L 75.621831 -510.874452 
L 75.255271 -511.420634 
L 74.88871 -511.972498 
L 74.522149 -512.527933 
L 74.155589 -513.084922 
L 73.789028 -513.641561 
L 73.422467 -514.196059 
L 73.055906 -514.746755 
L 72.689346 -515.292116 
L 72.322785 -515.830746 
L 71.956224 -516.36138 
L 71.589664 -516.882892 
L 71.223103 -517.394287 
L 70.856542 -517.8947 
z
" style="stroke: #7c7c7c; stroke-width: 1.5"/>
    </defs>
    <g clip-path="url(#pcdcdb4ea87)">
     <use xlink:href="#m6da0a77a94" x="0" y="565.748438" style="fill: #f2d0ad; stroke: #7c7c7c; stroke-width: 1.5"/>
    </g>
   </g>
   <g id="PolyCollection_3">
    <path d="M 118.049629 157.489157 
L 118.049629 149.774301 
L 127.144614 149.559162 
L 136.239599 149.36543 
L 145.334584 149.194783 
L 154.429569 149.048692 
L 163.524554 148.928403 
L 172.619539 148.834918 
L 181.714524 148.768986 
L 190.809509 148.731088 
L 199.904494 148.72144 
L 208.999479 148.739987 
L 218.094464 148.786409 
L 227.189449 148.860128 
L 236.284434 148.960323 
L 245.379419 149.085941 
L 254.474404 149.235718 
L 263.569389 149.408199 
L 272.664374 149.601758 
L 281.759359 149.814629 
L 290.854344 150.044925 
L 299.949329 150.29067 
L 309.044314 150.54982 
L 318.139299 150.820294 
L 327.234284 151.099997 
L 336.329269 151.386845 
L 345.424254 151.678791 
L 354.51924 151.973842 
L 363.614225 152.27008 
L 372.70921 152.565681 
L 381.804195 152.858931 
L 390.89918 153.148235 
L 399.994165 153.432131 
L 409.08915 153.709296 
L 418.184135 153.978551 
L 427.27912 154.238869 
L 436.374105 154.48937 
L 445.46909 154.729322 
L 454.564075 154.95814 
L 463.65906 155.17538 
L 472.754045 155.380732 
L 481.84903 155.574012 
L 490.944015 155.755156 
L 500.039 155.924206 
L 509.133985 156.081303 
L 518.22897 156.226675 
L 527.323955 156.360626 
L 536.41894 156.483523 
L 545.513925 156.595787 
L 554.60891 156.697883 
L 563.703895 156.790303 
L 572.79888 156.873566 
L 581.893865 156.9482 
L 590.98885 157.014738 
L 600.083835 157.073709 
L 609.17882 157.125632 
L 618.273805 157.171008 
L 627.36879 157.210318 
L 636.463775 157.244016 
L 645.55876 157.272528 
L 654.653745 157.296248 
L 663.74873 157.315539 
L 672.843715 157.330729 
L 681.9387 157.342116 
L 691.033685 157.349962 
L 700.12867 157.354503 
L 709.223655 157.355944 
L 718.31864 157.354464 
L 727.413625 157.35022 
L 736.50861 157.343351 
L 745.603595 157.333979 
L 754.69858 157.322215 
L 763.793565 157.30816 
L 772.88855 157.291914 
L 781.983535 157.273577 
L 791.07852 157.25325 
L 800.173505 157.231045 
L 809.26849 157.207082 
L 818.363475 157.181496 
L 827.45846 157.154438 
L 836.553445 157.126077 
L 845.64843 157.096599 
L 854.743415 157.066212 
L 863.8384 157.035141 
L 872.933385 157.003634 
L 882.02837 156.971951 
L 891.123355 156.94037 
L 900.21834 156.909182 
L 909.313325 156.878686 
L 918.40831 156.849185 
L 927.503295 156.820984 
L 936.59828 156.794383 
L 945.693265 156.769675 
L 954.78825 156.747137 
L 963.883236 156.727029 
L 972.978221 156.709586 
L 982.073206 156.695016 
L 991.168191 156.683495 
L 1000.263176 156.675164 
L 1009.358161 156.670125 
L 1018.453146 156.66844 
L 1018.453146 157.489157 
L 1018.453146 157.489157 
L 1009.358161 157.489157 
L 1000.263176 157.489157 
L 991.168191 157.489157 
L 982.073206 157.489157 
L 972.978221 157.489157 
L 963.883236 157.489157 
L 954.78825 157.489157 
L 945.693265 157.489157 
L 936.59828 157.489157 
L 927.503295 157.489157 
L 918.40831 157.489157 
L 909.313325 157.489157 
L 900.21834 157.489157 
L 891.123355 157.489157 
L 882.02837 157.489157 
L 872.933385 157.489157 
L 863.8384 157.489157 
L 854.743415 157.489157 
L 845.64843 157.489157 
L 836.553445 157.489157 
L 827.45846 157.489157 
L 818.363475 157.489157 
L 809.26849 157.489157 
L 800.173505 157.489157 
L 791.07852 157.489157 
L 781.983535 157.489157 
L 772.88855 157.489157 
L 763.793565 157.489157 
L 754.69858 157.489157 
L 745.603595 157.489157 
L 736.50861 157.489157 
L 727.413625 157.489157 
L 718.31864 157.489157 
L 709.223655 157.489157 
L 700.12867 157.489157 
L 691.033685 157.489157 
L 681.9387 157.489157 
L 672.843715 157.489157 
L 663.74873 157.489157 
L 654.653745 157.489157 
L 645.55876 157.489157 
L 636.463775 157.489157 
L 627.36879 157.489157 
L 618.273805 157.489157 
L 609.17882 157.489157 
L 600.083835 157.489157 
L 590.98885 157.489157 
L 581.893865 157.489157 
L 572.79888 157.489157 
L 563.703895 157.489157 
L 554.60891 157.489157 
L 545.513925 157.489157 
L 536.41894 157.489157 
L 527.323955 157.489157 
L 518.22897 157.489157 
L 509.133985 157.489157 
L 500.039 157.489157 
L 490.944015 157.489157 
L 481.84903 157.489157 
L 472.754045 157.489157 
L 463.65906 157.489157 
L 454.564075 157.489157 
L 445.46909 157.489157 
L 436.374105 157.489157 
L 427.27912 157.489157 
L 418.184135 157.489157 
L 409.08915 157.489157 
L 399.994165 157.489157 
L 390.89918 157.489157 
L 381.804195 157.489157 
L 372.70921 157.489157 
L 363.614225 157.489157 
L 354.51924 157.489157 
L 345.424254 157.489157 
L 336.329269 157.489157 
L 327.234284 157.489157 
L 318.139299 157.489157 
L 309.044314 157.489157 
L 299.949329 157.489157 
L 290.854344 157.489157 
L 281.759359 157.489157 
L 272.664374 157.489157 
L 263.569389 157.489157 
L 254.474404 157.489157 
L 245.379419 157.489157 
L 236.284434 157.489157 
L 227.189449 157.489157 
L 218.094464 157.489157 
L 208.999479 157.489157 
L 199.904494 157.489157 
L 190.809509 157.489157 
L 181.714524 157.489157 
L 172.619539 157.489157 
L 163.524554 157.489157 
L 154.429569 157.489157 
L 145.334584 157.489157 
L 136.239599 157.489157 
L 127.144614 157.489157 
L 118.049629 157.489157 
z
" clip-path="url(#pcdcdb4ea87)" style="fill: #cbdbea; stroke: #7c7c7c; stroke-width: 1.5"/>
   </g>
   <g id="PolyCollection_4">
    <defs>
     <path id="m9da3479a4a" d="M 86.883016 -389.03906 
L 86.883016 -408.259281 
L 88.240923 -408.259281 
L 89.598831 -408.259281 
L 90.956738 -408.259281 
L 92.314646 -408.259281 
L 93.672553 -408.259281 
L 95.030461 -408.259281 
L 96.388369 -408.259281 
L 97.746276 -408.259281 
L 99.104184 -408.259281 
L 100.462091 -408.259281 
L 101.819999 -408.259281 
L 103.177906 -408.259281 
L 104.535814 -408.259281 
L 105.893721 -408.259281 
L 107.251629 -408.259281 
L 108.609536 -408.259281 
L 109.967444 -408.259281 
L 111.325352 -408.259281 
L 112.683259 -408.259281 
L 114.041167 -408.259281 
L 115.399074 -408.259281 
L 116.756982 -408.259281 
L 118.114889 -408.259281 
L 119.472797 -408.259281 
L 120.830704 -408.259281 
L 122.188612 -408.259281 
L 123.54652 -408.259281 
L 124.904427 -408.259281 
L 126.262335 -408.259281 
L 127.620242 -408.259281 
L 128.97815 -408.259281 
L 130.336057 -408.259281 
L 131.693965 -408.259281 
L 133.051872 -408.259281 
L 134.40978 -408.259281 
L 135.767687 -408.259281 
L 137.125595 -408.259281 
L 138.483503 -408.259281 
L 139.84141 -408.259281 
L 141.199318 -408.259281 
L 142.557225 -408.259281 
L 143.915133 -408.259281 
L 145.27304 -408.259281 
L 146.630948 -408.259281 
L 147.988855 -408.259281 
L 149.346763 -408.259281 
L 150.70467 -408.259281 
L 152.062578 -408.259281 
L 153.420486 -408.259281 
L 154.778393 -408.259281 
L 156.136301 -408.259281 
L 157.494208 -408.259281 
L 158.852116 -408.259281 
L 160.210023 -408.259281 
L 161.567931 -408.259281 
L 162.925838 -408.259281 
L 164.283746 -408.259281 
L 165.641653 -408.259281 
L 166.999561 -408.259281 
L 168.357469 -408.259281 
L 169.715376 -408.259281 
L 171.073284 -408.259281 
L 172.431191 -408.259281 
L 173.789099 -408.259281 
L 175.147006 -408.259281 
L 176.504914 -408.259281 
L 177.862821 -408.259281 
L 179.220729 -408.259281 
L 180.578636 -408.259281 
L 181.936544 -408.259281 
L 183.294452 -408.259281 
L 184.652359 -408.259281 
L 186.010267 -408.259281 
L 187.368174 -408.259281 
L 188.726082 -408.259281 
L 190.083989 -408.259281 
L 191.441897 -408.259281 
L 192.799804 -408.259281 
L 194.157712 -408.259281 
L 195.515619 -408.259281 
L 196.873527 -408.259281 
L 198.231435 -408.259281 
L 199.589342 -408.259281 
L 200.94725 -408.259281 
L 202.305157 -408.259281 
L 203.663065 -408.259281 
L 205.020972 -408.259281 
L 206.37888 -408.259281 
L 207.736787 -408.259281 
L 209.094695 -408.259281 
L 210.452603 -408.259281 
L 211.81051 -408.259281 
L 213.168418 -408.259281 
L 214.526325 -408.259281 
L 215.884233 -408.259281 
L 217.24214 -408.259281 
L 218.600048 -408.259281 
L 219.957955 -408.259281 
L 221.315863 -408.259281 
L 221.315863 -392.131878 
L 221.315863 -392.131878 
L 219.957955 -391.568798 
L 218.600048 -391.014027 
L 217.24214 -390.469565 
L 215.884233 -389.9374 
L 214.526325 -389.4195 
L 213.168418 -388.917788 
L 211.81051 -388.434135 
L 210.452603 -387.970337 
L 209.094695 -387.5281 
L 207.736787 -387.109027 
L 206.37888 -386.714599 
L 205.020972 -386.346166 
L 203.663065 -386.004928 
L 202.305157 -385.691925 
L 200.94725 -385.408029 
L 199.589342 -385.153931 
L 198.231435 -384.930133 
L 196.873527 -384.736946 
L 195.515619 -384.574482 
L 194.157712 -384.442654 
L 192.799804 -384.341176 
L 191.441897 -384.269561 
L 190.083989 -384.22713 
L 188.726082 -384.213016 
L 187.368174 -384.226167 
L 186.010267 -384.265362 
L 184.652359 -384.329218 
L 183.294452 -384.416202 
L 181.936544 -384.524648 
L 180.578636 -384.652767 
L 179.220729 -384.798669 
L 177.862821 -384.960374 
L 176.504914 -385.135832 
L 175.147006 -385.322941 
L 173.789099 -385.519565 
L 172.431191 -385.72355 
L 171.073284 -385.932743 
L 169.715376 -386.145009 
L 168.357469 -386.358248 
L 166.999561 -386.570412 
L 165.641653 -386.779517 
L 164.283746 -386.98366 
L 162.925838 -387.181031 
L 161.567931 -387.369927 
L 160.210023 -387.54876 
L 158.852116 -387.716068 
L 157.494208 -387.870525 
L 156.136301 -388.010944 
L 154.778393 -388.13629 
L 153.420486 -388.245676 
L 152.062578 -388.338375 
L 150.70467 -388.413818 
L 149.346763 -388.471598 
L 147.988855 -388.511466 
L 146.630948 -388.533339 
L 145.27304 -388.53729 
L 143.915133 -388.523553 
L 142.557225 -388.492517 
L 141.199318 -388.444721 
L 139.84141 -388.380854 
L 138.483503 -388.301748 
L 137.125595 -388.208372 
L 135.767687 -388.101827 
L 134.40978 -387.983339 
L 133.051872 -387.854253 
L 131.693965 -387.71602 
L 130.336057 -387.570197 
L 128.97815 -387.418428 
L 127.620242 -387.262443 
L 126.262335 -387.104039 
L 124.904427 -386.945078 
L 123.54652 -386.787466 
L 122.188612 -386.633148 
L 120.830704 -386.484088 
L 119.472797 -386.342263 
L 118.114889 -386.209643 
L 116.756982 -386.088179 
L 115.399074 -385.979789 
L 114.041167 -385.886342 
L 112.683259 -385.809643 
L 111.325352 -385.75142 
L 109.967444 -385.713307 
L 108.609536 -385.696832 
L 107.251629 -385.703402 
L 105.893721 -385.734292 
L 104.535814 -385.790632 
L 103.177906 -385.873394 
L 101.819999 -385.983386 
L 100.462091 -386.121244 
L 99.104184 -386.287419 
L 97.746276 -386.48218 
L 96.388369 -386.705605 
L 95.030461 -386.957582 
L 93.672553 -387.237806 
L 92.314646 -387.545786 
L 90.956738 -387.880843 
L 89.598831 -388.242121 
L 88.240923 -388.628591 
L 86.883016 -389.03906 
z
" style="stroke: #7c7c7c; stroke-width: 1.5"/>
    </defs>
    <g clip-path="url(#pcdcdb4ea87)">
     <use xlink:href="#m9da3479a4a" x="0" y="565.748438" style="fill: #f2d0ad; stroke: #7c7c7c; stroke-width: 1.5"/>
    </g>
   </g>
   <g id="PolyCollection_5">
    <defs>
     <path id="m8ba0f38417" d="M 113.500898 -288.027956 
L 113.500898 -302.09078 
L 116.542958 -302.738928 
L 119.585017 -303.386244 
L 122.627077 -304.030038 
L 125.669137 -304.667527 
L 128.711197 -305.295853 
L 131.753256 -305.912114 
L 134.795316 -306.513381 
L 137.837376 -307.09673 
L 140.879436 -307.659272 
L 143.921495 -308.198177 
L 146.963555 -308.710711 
L 150.005615 -309.194261 
L 153.047675 -309.646367 
L 156.089734 -310.064756 
L 159.131794 -310.447362 
L 162.173854 -310.792359 
L 165.215914 -311.098186 
L 168.257974 -311.36356 
L 171.300033 -311.587506 
L 174.342093 -311.769362 
L 177.384153 -311.908795 
L 180.426213 -312.005803 
L 183.468272 -312.060723 
L 186.510332 -312.074221 
L 189.552392 -312.047287 
L 192.594452 -311.981224 
L 195.636511 -311.877627 
L 198.678571 -311.738367 
L 201.720631 -311.565557 
L 204.762691 -311.36153 
L 207.80475 -311.128804 
L 210.84681 -310.870045 
L 213.88887 -310.588032 
L 216.93093 -310.285619 
L 219.972989 -309.965693 
L 223.015049 -309.63114 
L 226.057109 -309.284803 
L 229.099169 -308.929448 
L 232.141228 -308.56773 
L 235.183288 -308.202162 
L 238.225348 -307.835089 
L 241.267408 -307.46866 
L 244.309467 -307.104815 
L 247.351527 -306.745269 
L 250.393587 -306.3915 
L 253.435647 -306.044747 
L 256.477706 -305.706009 
L 259.519766 -305.376052 
L 262.561826 -305.055414 
L 265.603886 -304.744425 
L 268.645946 -304.443217 
L 271.688005 -304.151747 
L 274.730065 -303.86982 
L 277.772125 -303.597111 
L 280.814185 -303.33319 
L 283.856244 -303.07755 
L 286.898304 -302.829627 
L 289.940364 -302.588829 
L 292.982424 -302.354555 
L 296.024483 -302.126218 
L 299.066543 -301.903259 
L 302.108603 -301.685168 
L 305.150663 -301.471491 
L 308.192722 -301.261839 
L 311.234782 -301.055897 
L 314.276842 -300.853421 
L 317.318902 -300.654239 
L 320.360961 -300.458249 
L 323.403021 -300.265406 
L 326.445081 -300.075719 
L 329.487141 -299.889235 
L 332.5292 -299.706028 
L 335.57126 -299.526189 
L 338.61332 -299.349804 
L 341.65538 -299.176948 
L 344.697439 -299.007668 
L 347.739499 -298.841971 
L 350.781559 -298.679815 
L 353.823619 -298.521097 
L 356.865679 -298.365649 
L 359.907738 -298.213235 
L 362.949798 -298.063544 
L 365.991858 -297.916195 
L 369.033918 -297.770738 
L 372.075977 -297.626661 
L 375.118037 -297.483395 
L 378.160097 -297.340328 
L 381.202157 -297.196812 
L 384.244216 -297.052179 
L 387.286276 -296.905753 
L 390.328336 -296.756864 
L 393.370396 -296.604865 
L 396.412455 -296.449145 
L 399.454515 -296.289143 
L 402.496575 -296.12436 
L 405.538635 -295.954372 
L 408.580694 -295.778841 
L 411.622754 -295.59752 
L 414.664814 -295.410262 
L 414.664814 -288.027956 
L 414.664814 -288.027956 
L 411.622754 -288.027956 
L 408.580694 -288.027956 
L 405.538635 -288.027956 
L 402.496575 -288.027956 
L 399.454515 -288.027956 
L 396.412455 -288.027956 
L 393.370396 -288.027956 
L 390.328336 -288.027956 
L 387.286276 -288.027956 
L 384.244216 -288.027956 
L 381.202157 -288.027956 
L 378.160097 -288.027956 
L 375.118037 -288.027956 
L 372.075977 -288.027956 
L 369.033918 -288.027956 
L 365.991858 -288.027956 
L 362.949798 -288.027956 
L 359.907738 -288.027956 
L 356.865679 -288.027956 
L 353.823619 -288.027956 
L 350.781559 -288.027956 
L 347.739499 -288.027956 
L 344.697439 -288.027956 
L 341.65538 -288.027956 
L 338.61332 -288.027956 
L 335.57126 -288.027956 
L 332.5292 -288.027956 
L 329.487141 -288.027956 
L 326.445081 -288.027956 
L 323.403021 -288.027956 
L 320.360961 -288.027956 
L 317.318902 -288.027956 
L 314.276842 -288.027956 
L 311.234782 -288.027956 
L 308.192722 -288.027956 
L 305.150663 -288.027956 
L 302.108603 -288.027956 
L 299.066543 -288.027956 
L 296.024483 -288.027956 
L 292.982424 -288.027956 
L 289.940364 -288.027956 
L 286.898304 -288.027956 
L 283.856244 -288.027956 
L 280.814185 -288.027956 
L 277.772125 -288.027956 
L 274.730065 -288.027956 
L 271.688005 -288.027956 
L 268.645946 -288.027956 
L 265.603886 -288.027956 
L 262.561826 -288.027956 
L 259.519766 -288.027956 
L 256.477706 -288.027956 
L 253.435647 -288.027956 
L 250.393587 -288.027956 
L 247.351527 -288.027956 
L 244.309467 -288.027956 
L 241.267408 -288.027956 
L 238.225348 -288.027956 
L 235.183288 -288.027956 
L 232.141228 -288.027956 
L 229.099169 -288.027956 
L 226.057109 -288.027956 
L 223.015049 -288.027956 
L 219.972989 -288.027956 
L 216.93093 -288.027956 
L 213.88887 -288.027956 
L 210.84681 -288.027956 
L 207.80475 -288.027956 
L 204.762691 -288.027956 
L 201.720631 -288.027956 
L 198.678571 -288.027956 
L 195.636511 -288.027956 
L 192.594452 -288.027956 
L 189.552392 -288.027956 
L 186.510332 -288.027956 
L 183.468272 -288.027956 
L 180.426213 -288.027956 
L 177.384153 -288.027956 
L 174.342093 -288.027956 
L 171.300033 -288.027956 
L 168.257974 -288.027956 
L 165.215914 -288.027956 
L 162.173854 -288.027956 
L 159.131794 -288.027956 
L 156.089734 -288.027956 
L 153.047675 -288.027956 
L 150.005615 -288.027956 
L 146.963555 -288.027956 
L 143.921495 -288.027956 
L 140.879436 -288.027956 
L 137.837376 -288.027956 
L 134.795316 -288.027956 
L 131.753256 -288.027956 
L 128.711197 -288.027956 
L 125.669137 -288.027956 
L 122.627077 -288.027956 
L 119.585017 -288.027956 
L 116.542958 -288.027956 
L 113.500898 -288.027956 
z
" style="stroke: #7c7c7c; stroke-width: 1.5"/>
    </defs>
    <g clip-path="url(#pcdcdb4ea87)">
     <use xlink:href="#m8ba0f38417" x="0" y="565.748438" style="fill: #cbdbea; stroke: #7c7c7c; stroke-width: 1.5"/>
    </g>
   </g>
   <g id="PolyCollection_6">
    <defs>
     <path id="m15ed762e3e" d="M 82.434624 -273.373115 
L 82.434624 -288.027956 
L 87.355828 -288.027956 
L 92.277033 -288.027956 
L 97.198237 -288.027956 
L 102.119441 -288.027956 
L 107.040645 -288.027956 
L 111.96185 -288.027956 
L 116.883054 -288.027956 
L 121.804258 -288.027956 
L 126.725462 -288.027956 
L 131.646667 -288.027956 
L 136.567871 -288.027956 
L 141.489075 -288.027956 
L 146.410279 -288.027956 
L 151.331484 -288.027956 
L 156.252688 -288.027956 
L 161.173892 -288.027956 
L 166.095096 -288.027956 
L 171.016301 -288.027956 
L 175.937505 -288.027956 
L 180.858709 -288.027956 
L 185.779913 -288.027956 
L 190.701118 -288.027956 
L 195.622322 -288.027956 
L 200.543526 -288.027956 
L 205.46473 -288.027956 
L 210.385935 -288.027956 
L 215.307139 -288.027956 
L 220.228343 -288.027956 
L 225.149547 -288.027956 
L 230.070752 -288.027956 
L 234.991956 -288.027956 
L 239.91316 -288.027956 
L 244.834364 -288.027956 
L 249.755569 -288.027956 
L 254.676773 -288.027956 
L 259.597977 -288.027956 
L 264.519181 -288.027956 
L 269.440386 -288.027956 
L 274.36159 -288.027956 
L 279.282794 -288.027956 
L 284.203998 -288.027956 
L 289.125203 -288.027956 
L 294.046407 -288.027956 
L 298.967611 -288.027956 
L 303.888815 -288.027956 
L 308.81002 -288.027956 
L 313.731224 -288.027956 
L 318.652428 -288.027956 
L 323.573632 -288.027956 
L 328.494837 -288.027956 
L 333.416041 -288.027956 
L 338.337245 -288.027956 
L 343.258449 -288.027956 
L 348.179654 -288.027956 
L 353.100858 -288.027956 
L 358.022062 -288.027956 
L 362.943266 -288.027956 
L 367.864471 -288.027956 
L 372.785675 -288.027956 
L 377.706879 -288.027956 
L 382.628083 -288.027956 
L 387.549288 -288.027956 
L 392.470492 -288.027956 
L 397.391696 -288.027956 
L 402.3129 -288.027956 
L 407.234105 -288.027956 
L 412.155309 -288.027956 
L 417.076513 -288.027956 
L 421.997717 -288.027956 
L 426.918922 -288.027956 
L 431.840126 -288.027956 
L 436.76133 -288.027956 
L 441.682534 -288.027956 
L 446.603739 -288.027956 
L 451.524943 -288.027956 
L 456.446147 -288.027956 
L 461.367351 -288.027956 
L 466.288556 -288.027956 
L 471.20976 -288.027956 
L 476.130964 -288.027956 
L 481.052168 -288.027956 
L 485.973373 -288.027956 
L 490.894577 -288.027956 
L 495.815781 -288.027956 
L 500.736985 -288.027956 
L 505.65819 -288.027956 
L 510.579394 -288.027956 
L 515.500598 -288.027956 
L 520.421802 -288.027956 
L 525.343007 -288.027956 
L 530.264211 -288.027956 
L 535.185415 -288.027956 
L 540.106619 -288.027956 
L 545.027824 -288.027956 
L 549.949028 -288.027956 
L 554.870232 -288.027956 
L 559.791436 -288.027956 
L 564.712641 -288.027956 
L 569.633845 -288.027956 
L 569.633845 -285.519414 
L 569.633845 -285.519414 
L 564.712641 -285.479347 
L 559.791436 -285.442557 
L 554.870232 -285.408735 
L 549.949028 -285.377509 
L 545.027824 -285.348452 
L 540.106619 -285.321092 
L 535.185415 -285.294917 
L 530.264211 -285.269385 
L 525.343007 -285.243932 
L 520.421802 -285.217984 
L 515.500598 -285.190963 
L 510.579394 -285.1623 
L 505.65819 -285.131441 
L 500.736985 -285.097857 
L 495.815781 -285.061051 
L 490.894577 -285.020562 
L 485.973373 -284.975974 
L 481.052168 -284.926917 
L 476.130964 -284.873068 
L 471.20976 -284.814157 
L 466.288556 -284.749963 
L 461.367351 -284.68031 
L 456.446147 -284.60507 
L 451.524943 -284.524155 
L 446.603739 -284.437512 
L 441.682534 -284.345117 
L 436.76133 -284.24697 
L 431.840126 -284.143087 
L 426.918922 -284.033492 
L 421.997717 -283.91821 
L 417.076513 -283.797259 
L 412.155309 -283.670645 
L 407.234105 -283.538355 
L 402.3129 -283.40035 
L 397.391696 -283.256559 
L 392.470492 -283.106878 
L 387.549288 -282.951167 
L 382.628083 -282.789244 
L 377.706879 -282.620887 
L 372.785675 -282.445836 
L 367.864471 -282.26379 
L 362.943266 -282.074413 
L 358.022062 -281.87734 
L 353.100858 -281.672175 
L 348.179654 -281.458506 
L 343.258449 -281.235905 
L 338.337245 -281.003942 
L 333.416041 -280.76219 
L 328.494837 -280.510239 
L 323.573632 -280.247705 
L 318.652428 -279.974243 
L 313.731224 -279.68956 
L 308.81002 -279.393426 
L 303.888815 -279.085689 
L 298.967611 -278.766289 
L 294.046407 -278.435271 
L 289.125203 -278.092797 
L 284.203998 -277.73916 
L 279.282794 -277.374799 
L 274.36159 -277.000304 
L 269.440386 -276.616431 
L 264.519181 -276.224108 
L 259.597977 -275.824443 
L 254.676773 -275.418727 
L 249.755569 -275.008436 
L 244.834364 -274.59523 
L 239.91316 -274.180953 
L 234.991956 -273.76762 
L 230.070752 -273.357413 
L 225.149547 -272.952663 
L 220.228343 -272.555838 
L 215.307139 -272.169519 
L 210.385935 -271.796381 
L 205.46473 -271.439163 
L 200.543526 -271.100641 
L 195.622322 -270.783601 
L 190.701118 -270.490799 
L 185.779913 -270.224933 
L 180.858709 -269.988602 
L 175.937505 -269.784277 
L 171.016301 -269.614262 
L 166.095096 -269.480658 
L 161.173892 -269.385338 
L 156.252688 -269.329908 
L 151.331484 -269.315686 
L 146.410279 -269.343676 
L 141.489075 -269.414546 
L 136.567871 -269.52862 
L 131.646667 -269.68586 
L 126.725462 -269.885865 
L 121.804258 -270.127869 
L 116.883054 -270.410749 
L 111.96185 -270.733035 
L 107.040645 -271.092923 
L 102.119441 -271.488301 
L 97.198237 -271.916771 
L 92.277033 -272.375678 
L 87.355828 -272.862147 
L 82.434624 -273.373115 
z
" style="stroke: #7c7c7c; stroke-width: 1.5"/>
    </defs>
    <g clip-path="url(#pcdcdb4ea87)">
     <use xlink:href="#m15ed762e3e" x="0" y="565.748438" style="fill: #f2d0ad; stroke: #7c7c7c; stroke-width: 1.5"/>
    </g>
   </g>
   <g id="PolyCollection_7">
    <defs>
     <path id="me882285599" d="M 87.145014 -167.79663 
L 87.145014 -178.031105 
L 90.795418 -178.423818 
L 94.445822 -178.798728 
L 98.096226 -179.153135 
L 101.74663 -179.48447 
L 105.397034 -179.790341 
L 109.047439 -180.068561 
L 112.697843 -180.317187 
L 116.348247 -180.534546 
L 119.998651 -180.719265 
L 123.649055 -180.870291 
L 127.299459 -180.986905 
L 130.949863 -181.068738 
L 134.600268 -181.115773 
L 138.250672 -181.128343 
L 141.901076 -181.10713 
L 145.55148 -181.053143 
L 149.201884 -180.96771 
L 152.852288 -180.852444 
L 156.502692 -180.709223 
L 160.153097 -180.540149 
L 163.803501 -180.347519 
L 167.453905 -180.133781 
L 171.104309 -179.90149 
L 174.754713 -179.653275 
L 178.405117 -179.391785 
L 182.055521 -179.119656 
L 185.705926 -178.839465 
L 189.35633 -178.553695 
L 193.006734 -178.264699 
L 196.657138 -177.974669 
L 200.307542 -177.68561 
L 203.957946 -177.399318 
L 207.60835 -177.117361 
L 211.258755 -176.841071 
L 214.909159 -176.571536 
L 218.559563 -176.309598 
L 222.209967 -176.05586 
L 225.860371 -175.810694 
L 229.510775 -175.574254 
L 233.161179 -175.346491 
L 236.811584 -175.127181 
L 240.461988 -174.915938 
L 244.112392 -174.71225 
L 247.762796 -174.515498 
L 251.4132 -174.324987 
L 255.063604 -174.139971 
L 258.714008 -173.959684 
L 262.364413 -173.78336 
L 266.014817 -173.610262 
L 269.665221 -173.439699 
L 273.315625 -173.271048 
L 276.966029 -173.103771 
L 280.616433 -172.937423 
L 284.266837 -172.771666 
L 287.917242 -172.606274 
L 291.567646 -172.441138 
L 295.21805 -172.27626 
L 298.868454 -172.111759 
L 302.518858 -171.947856 
L 306.169262 -171.784874 
L 309.819666 -171.62322 
L 313.47007 -171.463378 
L 317.120475 -171.305895 
L 320.770879 -171.151363 
L 324.421283 -171.000409 
L 328.071687 -170.853671 
L 331.722091 -170.711792 
L 335.372495 -170.575399 
L 339.022899 -170.445089 
L 342.673304 -170.321417 
L 346.323708 -170.204881 
L 349.974112 -170.095915 
L 353.624516 -169.994875 
L 357.27492 -169.902035 
L 360.925324 -169.817579 
L 364.575728 -169.741597 
L 368.226133 -169.674085 
L 371.876537 -169.614938 
L 375.526941 -169.563962 
L 379.177345 -169.520865 
L 382.827749 -169.485271 
L 386.478153 -169.456723 
L 390.128557 -169.434687 
L 393.778962 -169.418569 
L 397.429366 -169.407714 
L 401.07977 -169.401426 
L 404.730174 -169.398973 
L 408.380578 -169.399603 
L 412.030982 -169.40255 
L 415.681386 -169.407053 
L 419.331791 -169.412361 
L 422.982195 -169.417748 
L 426.632599 -169.42252 
L 430.283003 -169.42603 
L 433.933407 -169.427681 
L 437.583811 -169.426935 
L 441.234215 -169.423323 
L 444.88462 -169.416445 
L 448.535024 -169.405977 
L 448.535024 -167.79663 
L 448.535024 -167.79663 
L 444.88462 -167.79663 
L 441.234215 -167.79663 
L 437.583811 -167.79663 
L 433.933407 -167.79663 
L 430.283003 -167.79663 
L 426.632599 -167.79663 
L 422.982195 -167.79663 
L 419.331791 -167.79663 
L 415.681386 -167.79663 
L 412.030982 -167.79663 
L 408.380578 -167.79663 
L 404.730174 -167.79663 
L 401.07977 -167.79663 
L 397.429366 -167.79663 
L 393.778962 -167.79663 
L 390.128557 -167.79663 
L 386.478153 -167.79663 
L 382.827749 -167.79663 
L 379.177345 -167.79663 
L 375.526941 -167.79663 
L 371.876537 -167.79663 
L 368.226133 -167.79663 
L 364.575728 -167.79663 
L 360.925324 -167.79663 
L 357.27492 -167.79663 
L 353.624516 -167.79663 
L 349.974112 -167.79663 
L 346.323708 -167.79663 
L 342.673304 -167.79663 
L 339.022899 -167.79663 
L 335.372495 -167.79663 
L 331.722091 -167.79663 
L 328.071687 -167.79663 
L 324.421283 -167.79663 
L 320.770879 -167.79663 
L 317.120475 -167.79663 
L 313.47007 -167.79663 
L 309.819666 -167.79663 
L 306.169262 -167.79663 
L 302.518858 -167.79663 
L 298.868454 -167.79663 
L 295.21805 -167.79663 
L 291.567646 -167.79663 
L 287.917242 -167.79663 
L 284.266837 -167.79663 
L 280.616433 -167.79663 
L 276.966029 -167.79663 
L 273.315625 -167.79663 
L 269.665221 -167.79663 
L 266.014817 -167.79663 
L 262.364413 -167.79663 
L 258.714008 -167.79663 
L 255.063604 -167.79663 
L 251.4132 -167.79663 
L 247.762796 -167.79663 
L 244.112392 -167.79663 
L 240.461988 -167.79663 
L 236.811584 -167.79663 
L 233.161179 -167.79663 
L 229.510775 -167.79663 
L 225.860371 -167.79663 
L 222.209967 -167.79663 
L 218.559563 -167.79663 
L 214.909159 -167.79663 
L 211.258755 -167.79663 
L 207.60835 -167.79663 
L 203.957946 -167.79663 
L 200.307542 -167.79663 
L 196.657138 -167.79663 
L 193.006734 -167.79663 
L 189.35633 -167.79663 
L 185.705926 -167.79663 
L 182.055521 -167.79663 
L 178.405117 -167.79663 
L 174.754713 -167.79663 
L 171.104309 -167.79663 
L 167.453905 -167.79663 
L 163.803501 -167.79663 
L 160.153097 -167.79663 
L 156.502692 -167.79663 
L 152.852288 -167.79663 
L 149.201884 -167.79663 
L 145.55148 -167.79663 
L 141.901076 -167.79663 
L 138.250672 -167.79663 
L 134.600268 -167.79663 
L 130.949863 -167.79663 
L 127.299459 -167.79663 
L 123.649055 -167.79663 
L 119.998651 -167.79663 
L 116.348247 -167.79663 
L 112.697843 -167.79663 
L 109.047439 -167.79663 
L 105.397034 -167.79663 
L 101.74663 -167.79663 
L 98.096226 -167.79663 
L 94.445822 -167.79663 
L 90.795418 -167.79663 
L 87.145014 -167.79663 
z
" style="stroke: #7c7c7c; stroke-width: 1.5"/>
    </defs>
    <g clip-path="url(#pcdcdb4ea87)">
     <use xlink:href="#me882285599" x="0" y="565.748438" style="fill: #cbdbea; stroke: #7c7c7c; stroke-width: 1.5"/>
    </g>
   </g>
   <g id="PolyCollection_8">
    <defs>
     <path id="m5209ae5d21" d="M 76.21914 -145.253379 
L 76.21914 -167.79663 
L 77.724235 -167.79663 
L 79.229329 -167.79663 
L 80.734424 -167.79663 
L 82.239519 -167.79663 
L 83.744614 -167.79663 
L 85.249709 -167.79663 
L 86.754804 -167.79663 
L 88.259899 -167.79663 
L 89.764994 -167.79663 
L 91.270089 -167.79663 
L 92.775184 -167.79663 
L 94.280278 -167.79663 
L 95.785373 -167.79663 
L 97.290468 -167.79663 
L 98.795563 -167.79663 
L 100.300658 -167.79663 
L 101.805753 -167.79663 
L 103.310848 -167.79663 
L 104.815943 -167.79663 
L 106.321038 -167.79663 
L 107.826133 -167.79663 
L 109.331228 -167.79663 
L 110.836322 -167.79663 
L 112.341417 -167.79663 
L 113.846512 -167.79663 
L 115.351607 -167.79663 
L 116.856702 -167.79663 
L 118.361797 -167.79663 
L 119.866892 -167.79663 
L 121.371987 -167.79663 
L 122.877082 -167.79663 
L 124.382177 -167.79663 
L 125.887271 -167.79663 
L 127.392366 -167.79663 
L 128.897461 -167.79663 
L 130.402556 -167.79663 
L 131.907651 -167.79663 
L 133.412746 -167.79663 
L 134.917841 -167.79663 
L 136.422936 -167.79663 
L 137.928031 -167.79663 
L 139.433126 -167.79663 
L 140.938221 -167.79663 
L 142.443315 -167.79663 
L 143.94841 -167.79663 
L 145.453505 -167.79663 
L 146.9586 -167.79663 
L 148.463695 -167.79663 
L 149.96879 -167.79663 
L 151.473885 -167.79663 
L 152.97898 -167.79663 
L 154.484075 -167.79663 
L 155.98917 -167.79663 
L 157.494264 -167.79663 
L 158.999359 -167.79663 
L 160.504454 -167.79663 
L 162.009549 -167.79663 
L 163.514644 -167.79663 
L 165.019739 -167.79663 
L 166.524834 -167.79663 
L 168.029929 -167.79663 
L 169.535024 -167.79663 
L 171.040119 -167.79663 
L 172.545214 -167.79663 
L 174.050308 -167.79663 
L 175.555403 -167.79663 
L 177.060498 -167.79663 
L 178.565593 -167.79663 
L 180.070688 -167.79663 
L 181.575783 -167.79663 
L 183.080878 -167.79663 
L 184.585973 -167.79663 
L 186.091068 -167.79663 
L 187.596163 -167.79663 
L 189.101257 -167.79663 
L 190.606352 -167.79663 
L 192.111447 -167.79663 
L 193.616542 -167.79663 
L 195.121637 -167.79663 
L 196.626732 -167.79663 
L 198.131827 -167.79663 
L 199.636922 -167.79663 
L 201.142017 -167.79663 
L 202.647112 -167.79663 
L 204.152207 -167.79663 
L 205.657301 -167.79663 
L 207.162396 -167.79663 
L 208.667491 -167.79663 
L 210.172586 -167.79663 
L 211.677681 -167.79663 
L 213.182776 -167.79663 
L 214.687871 -167.79663 
L 216.192966 -167.79663 
L 217.698061 -167.79663 
L 219.203156 -167.79663 
L 220.70825 -167.79663 
L 222.213345 -167.79663 
L 223.71844 -167.79663 
L 225.223535 -167.79663 
L 225.223535 -161.810458 
L 225.223535 -161.810458 
L 223.71844 -161.591021 
L 222.213345 -161.369418 
L 220.70825 -161.145887 
L 219.203156 -160.920689 
L 217.698061 -160.694115 
L 216.192966 -160.466484 
L 214.687871 -160.238147 
L 213.182776 -160.00949 
L 211.677681 -159.780932 
L 210.172586 -159.552929 
L 208.667491 -159.325971 
L 207.162396 -159.100583 
L 205.657301 -158.877321 
L 204.152207 -158.656773 
L 202.647112 -158.43955 
L 201.142017 -158.226289 
L 199.636922 -158.017641 
L 198.131827 -157.81427 
L 196.626732 -157.61684 
L 195.121637 -157.426015 
L 193.616542 -157.242444 
L 192.111447 -157.066757 
L 190.606352 -156.899552 
L 189.101257 -156.741386 
L 187.596163 -156.592767 
L 186.091068 -156.454141 
L 184.585973 -156.325885 
L 183.080878 -156.208294 
L 181.575783 -156.101575 
L 180.070688 -156.005834 
L 178.565593 -155.921074 
L 177.060498 -155.847181 
L 175.555403 -155.783923 
L 174.050308 -155.73094 
L 172.545214 -155.687747 
L 171.040119 -155.653724 
L 169.535024 -155.628122 
L 168.029929 -155.610059 
L 166.524834 -155.598523 
L 165.019739 -155.59238 
L 163.514644 -155.590375 
L 162.009549 -155.591141 
L 160.504454 -155.593211 
L 158.999359 -155.595027 
L 157.494264 -155.594951 
L 155.98917 -155.591284 
L 154.484075 -155.582278 
L 152.97898 -155.566153 
L 151.473885 -155.54112 
L 149.96879 -155.505396 
L 148.463695 -155.457226 
L 146.9586 -155.394907 
L 145.453505 -155.316805 
L 143.94841 -155.22138 
L 142.443315 -155.107207 
L 140.938221 -154.973 
L 139.433126 -154.817628 
L 137.928031 -154.640143 
L 136.422936 -154.439793 
L 134.917841 -154.216042 
L 133.412746 -153.968587 
L 131.907651 -153.697372 
L 130.402556 -153.402599 
L 128.897461 -153.084741 
L 127.392366 -152.744543 
L 125.887271 -152.383032 
L 124.382177 -152.001515 
L 122.877082 -151.601576 
L 121.371987 -151.185072 
L 119.866892 -150.754124 
L 118.361797 -150.311103 
L 116.856702 -149.858615 
L 115.351607 -149.399481 
L 113.846512 -148.936717 
L 112.341417 -148.473505 
L 110.836322 -148.01317 
L 109.331228 -147.559143 
L 107.826133 -147.114934 
L 106.321038 -146.684095 
L 104.815943 -146.270184 
L 103.310848 -145.87673 
L 101.805753 -145.507194 
L 100.300658 -145.164936 
L 98.795563 -144.853173 
L 97.290468 -144.57495 
L 95.785373 -144.333101 
L 94.280278 -144.130222 
L 92.775184 -143.968637 
L 91.270089 -143.85038 
L 89.764994 -143.777164 
L 88.259899 -143.750365 
L 86.754804 -143.771011 
L 85.249709 -143.839766 
L 83.744614 -143.956923 
L 82.239519 -144.122409 
L 80.734424 -144.335778 
L 79.229329 -144.596224 
L 77.724235 -144.902589 
L 76.21914 -145.253379 
z
" style="stroke: #7c7c7c; stroke-width: 1.5"/>
    </defs>
    <g clip-path="url(#pcdcdb4ea87)">
     <use xlink:href="#m5209ae5d21" x="0" y="565.748438" style="fill: #f2d0ad; stroke: #7c7c7c; stroke-width: 1.5"/>
    </g>
   </g>
   <g id="line2d_18">
    <defs>
     <path id="mddbb9523df" d="M 0 -5 
L -5 5 
L 5 5 
z
" style="stroke: #ffffff; stroke-linejoin: miter"/>
    </defs>
    <g clip-path="url(#pcdcdb4ea87)">
     <use xlink:href="#mddbb9523df" x="250.375343" y="73.327229" style="fill: #ffffff; stroke: #ffffff; stroke-linejoin: miter"/>
     <use xlink:href="#mddbb9523df" x="129.683455" y="73.327229" style="fill: #ffffff; stroke: #ffffff; stroke-linejoin: miter"/>
     <use xlink:href="#mddbb9523df" x="163.55924" y="73.327229" style="fill: #ffffff; stroke: #ffffff; stroke-linejoin: miter"/>
     <use xlink:href="#mddbb9523df" x="139.544614" y="73.327229" style="fill: #ffffff; stroke: #ffffff; stroke-linejoin: miter"/>
     <use xlink:href="#mddbb9523df" x="325.552047" y="73.327229" style="fill: #ffffff; stroke: #ffffff; stroke-linejoin: miter"/>
     <use xlink:href="#mddbb9523df" x="102.363196" y="73.327229" style="fill: #ffffff; stroke: #ffffff; stroke-linejoin: miter"/>
     <use xlink:href="#mddbb9523df" x="246.707371" y="73.327229" style="fill: #ffffff; stroke: #ffffff; stroke-linejoin: miter"/>
     <use xlink:href="#mddbb9523df" x="135.519879" y="73.327229" style="fill: #ffffff; stroke: #ffffff; stroke-linejoin: miter"/>
     <use xlink:href="#mddbb9523df" x="115.797561" y="73.327229" style="fill: #ffffff; stroke: #ffffff; stroke-linejoin: miter"/>
     <use xlink:href="#mddbb9523df" x="86.197361" y="73.327229" style="fill: #ffffff; stroke: #ffffff; stroke-linejoin: miter"/>
     <use xlink:href="#mddbb9523df" x="81.882756" y="73.327229" style="fill: #ffffff; stroke: #ffffff; stroke-linejoin: miter"/>
     <use xlink:href="#mddbb9523df" x="125.636422" y="73.327229" style="fill: #ffffff; stroke: #ffffff; stroke-linejoin: miter"/>
     <use xlink:href="#mddbb9523df" x="146.311967" y="73.327229" style="fill: #ffffff; stroke: #ffffff; stroke-linejoin: miter"/>
    </g>
   </g>
   <g id="line2d_19">
    <g clip-path="url(#pcdcdb4ea87)">
     <use xlink:href="#mddbb9523df" x="235.541797" y="193.558554" style="fill: #ffffff; stroke: #ffffff; stroke-linejoin: miter"/>
     <use xlink:href="#mddbb9523df" x="251.183635" y="193.558554" style="fill: #ffffff; stroke: #ffffff; stroke-linejoin: miter"/>
     <use xlink:href="#mddbb9523df" x="190.04891" y="193.558554" style="fill: #ffffff; stroke: #ffffff; stroke-linejoin: miter"/>
     <use xlink:href="#mddbb9523df" x="157.19882" y="193.558554" style="fill: #ffffff; stroke: #ffffff; stroke-linejoin: miter"/>
     <use xlink:href="#mddbb9523df" x="1018.453146" y="193.558554" style="fill: #ffffff; stroke: #ffffff; stroke-linejoin: miter"/>
     <use xlink:href="#mddbb9523df" x="152.165114" y="193.558554" style="fill: #ffffff; stroke: #ffffff; stroke-linejoin: miter"/>
     <use xlink:href="#mddbb9523df" x="340.396742" y="193.558554" style="fill: #ffffff; stroke: #ffffff; stroke-linejoin: miter"/>
     <use xlink:href="#mddbb9523df" x="274.512606" y="193.558554" style="fill: #ffffff; stroke: #ffffff; stroke-linejoin: miter"/>
     <use xlink:href="#mddbb9523df" x="296.827032" y="193.558554" style="fill: #ffffff; stroke: #ffffff; stroke-linejoin: miter"/>
     <use xlink:href="#mddbb9523df" x="118.049629" y="193.558554" style="fill: #ffffff; stroke: #ffffff; stroke-linejoin: miter"/>
     <use xlink:href="#mddbb9523df" x="128.875164" y="193.558554" style="fill: #ffffff; stroke: #ffffff; stroke-linejoin: miter"/>
     <use xlink:href="#mddbb9523df" x="150.280958" y="193.558554" style="fill: #ffffff; stroke: #ffffff; stroke-linejoin: miter"/>
     <use xlink:href="#mddbb9523df" x="148.814884" y="193.558554" style="fill: #ffffff; stroke: #ffffff; stroke-linejoin: miter"/>
    </g>
   </g>
   <g id="line2d_20">
    <g clip-path="url(#pcdcdb4ea87)">
     <use xlink:href="#mddbb9523df" x="193.460458" y="313.78988" style="fill: #ffffff; stroke: #ffffff; stroke-linejoin: miter"/>
     <use xlink:href="#mddbb9523df" x="304.335783" y="313.78988" style="fill: #ffffff; stroke: #ffffff; stroke-linejoin: miter"/>
     <use xlink:href="#mddbb9523df" x="283.526452" y="313.78988" style="fill: #ffffff; stroke: #ffffff; stroke-linejoin: miter"/>
     <use xlink:href="#mddbb9523df" x="192.100298" y="313.78988" style="fill: #ffffff; stroke: #ffffff; stroke-linejoin: miter"/>
     <use xlink:href="#mddbb9523df" x="170.761397" y="313.78988" style="fill: #ffffff; stroke: #ffffff; stroke-linejoin: miter"/>
     <use xlink:href="#mddbb9523df" x="304.547611" y="313.78988" style="fill: #ffffff; stroke: #ffffff; stroke-linejoin: miter"/>
     <use xlink:href="#mddbb9523df" x="414.664814" y="313.78988" style="fill: #ffffff; stroke: #ffffff; stroke-linejoin: miter"/>
     <use xlink:href="#mddbb9523df" x="393.314764" y="313.78988" style="fill: #ffffff; stroke: #ffffff; stroke-linejoin: miter"/>
     <use xlink:href="#mddbb9523df" x="204.720798" y="313.78988" style="fill: #ffffff; stroke: #ffffff; stroke-linejoin: miter"/>
     <use xlink:href="#mddbb9523df" x="113.500898" y="313.78988" style="fill: #ffffff; stroke: #ffffff; stroke-linejoin: miter"/>
     <use xlink:href="#mddbb9523df" x="155.927851" y="313.78988" style="fill: #ffffff; stroke: #ffffff; stroke-linejoin: miter"/>
     <use xlink:href="#mddbb9523df" x="157.956942" y="313.78988" style="fill: #ffffff; stroke: #ffffff; stroke-linejoin: miter"/>
     <use xlink:href="#mddbb9523df" x="205.384155" y="313.78988" style="fill: #ffffff; stroke: #ffffff; stroke-linejoin: miter"/>
    </g>
   </g>
   <g id="line2d_21">
    <g clip-path="url(#pcdcdb4ea87)">
     <use xlink:href="#mddbb9523df" x="138.011647" y="434.021205" style="fill: #ffffff; stroke: #ffffff; stroke-linejoin: miter"/>
     <use xlink:href="#mddbb9523df" x="238.964494" y="434.021205" style="fill: #ffffff; stroke: #ffffff; stroke-linejoin: miter"/>
     <use xlink:href="#mddbb9523df" x="155.532067" y="434.021205" style="fill: #ffffff; stroke: #ffffff; stroke-linejoin: miter"/>
     <use xlink:href="#mddbb9523df" x="167.082276" y="434.021205" style="fill: #ffffff; stroke: #ffffff; stroke-linejoin: miter"/>
     <use xlink:href="#mddbb9523df" x="448.535024" y="434.021205" style="fill: #ffffff; stroke: #ffffff; stroke-linejoin: miter"/>
     <use xlink:href="#mddbb9523df" x="87.145014" y="434.021205" style="fill: #ffffff; stroke: #ffffff; stroke-linejoin: miter"/>
     <use xlink:href="#mddbb9523df" x="266.80875" y="434.021205" style="fill: #ffffff; stroke: #ffffff; stroke-linejoin: miter"/>
     <use xlink:href="#mddbb9523df" x="292.874764" y="434.021205" style="fill: #ffffff; stroke: #ffffff; stroke-linejoin: miter"/>
     <use xlink:href="#mddbb9523df" x="121.371987" y="434.021205" style="fill: #ffffff; stroke: #ffffff; stroke-linejoin: miter"/>
     <use xlink:href="#mddbb9523df" x="155.821937" y="434.021205" style="fill: #ffffff; stroke: #ffffff; stroke-linejoin: miter"/>
     <use xlink:href="#mddbb9523df" x="116.366153" y="434.021205" style="fill: #ffffff; stroke: #ffffff; stroke-linejoin: miter"/>
     <use xlink:href="#mddbb9523df" x="111.343595" y="434.021205" style="fill: #ffffff; stroke: #ffffff; stroke-linejoin: miter"/>
     <use xlink:href="#mddbb9523df" x="129.086992" y="434.021205" style="fill: #ffffff; stroke: #ffffff; stroke-linejoin: miter"/>
    </g>
   </g>
   <g id="line2d_22">
    <g clip-path="url(#pcdcdb4ea87)">
     <use xlink:href="#mddbb9523df" x="103.427911" y="84.148048" style="fill: #ffffff; stroke: #ffffff; stroke-linejoin: miter"/>
     <use xlink:href="#mddbb9523df" x="107.146053" y="84.148048" style="fill: #ffffff; stroke: #ffffff; stroke-linejoin: miter"/>
     <use xlink:href="#mddbb9523df" x="104.782496" y="84.148048" style="fill: #ffffff; stroke: #ffffff; stroke-linejoin: miter"/>
     <use xlink:href="#mddbb9523df" x="95.545673" y="84.148048" style="fill: #ffffff; stroke: #ffffff; stroke-linejoin: miter"/>
     <use xlink:href="#mddbb9523df" x="84.881797" y="84.148048" style="fill: #ffffff; stroke: #ffffff; stroke-linejoin: miter"/>
     <use xlink:href="#mddbb9523df" x="81.414504" y="84.148048" style="fill: #ffffff; stroke: #ffffff; stroke-linejoin: miter"/>
     <use xlink:href="#mddbb9523df" x="105.802616" y="84.148048" style="fill: #ffffff; stroke: #ffffff; stroke-linejoin: miter"/>
     <use xlink:href="#mddbb9523df" x="105.685553" y="84.148048" style="fill: #ffffff; stroke: #ffffff; stroke-linejoin: miter"/>
     <use xlink:href="#mddbb9523df" x="82.03884" y="84.148048" style="fill: #ffffff; stroke: #ffffff; stroke-linejoin: miter"/>
     <use xlink:href="#mddbb9523df" x="83.633126" y="84.148048" style="fill: #ffffff; stroke: #ffffff; stroke-linejoin: miter"/>
     <use xlink:href="#mddbb9523df" x="70.856542" y="84.148048" style="fill: #ffffff; stroke: #ffffff; stroke-linejoin: miter"/>
     <use xlink:href="#mddbb9523df" x="84.407971" y="84.148048" style="fill: #ffffff; stroke: #ffffff; stroke-linejoin: miter"/>
     <use xlink:href="#mddbb9523df" x="79.675283" y="84.148048" style="fill: #ffffff; stroke: #ffffff; stroke-linejoin: miter"/>
    </g>
   </g>
   <g id="line2d_23">
    <g clip-path="url(#pcdcdb4ea87)">
     <use xlink:href="#mddbb9523df" x="176.006932" y="204.379373" style="fill: #ffffff; stroke: #ffffff; stroke-linejoin: miter"/>
     <use xlink:href="#mddbb9523df" x="150.559679" y="204.379373" style="fill: #ffffff; stroke: #ffffff; stroke-linejoin: miter"/>
     <use xlink:href="#mddbb9523df" x="196.403755" y="204.379373" style="fill: #ffffff; stroke: #ffffff; stroke-linejoin: miter"/>
     <use xlink:href="#mddbb9523df" x="191.676642" y="204.379373" style="fill: #ffffff; stroke: #ffffff; stroke-linejoin: miter"/>
     <use xlink:href="#mddbb9523df" x="134.661417" y="204.379373" style="fill: #ffffff; stroke: #ffffff; stroke-linejoin: miter"/>
     <use xlink:href="#mddbb9523df" x="94.670488" y="204.379373" style="fill: #ffffff; stroke: #ffffff; stroke-linejoin: miter"/>
     <use xlink:href="#mddbb9523df" x="221.315863" y="204.379373" style="fill: #ffffff; stroke: #ffffff; stroke-linejoin: miter"/>
     <use xlink:href="#mddbb9523df" x="192.245234" y="204.379373" style="fill: #ffffff; stroke: #ffffff; stroke-linejoin: miter"/>
     <use xlink:href="#mddbb9523df" x="200.272406" y="204.379373" style="fill: #ffffff; stroke: #ffffff; stroke-linejoin: miter"/>
     <use xlink:href="#mddbb9523df" x="86.883016" y="204.379373" style="fill: #ffffff; stroke: #ffffff; stroke-linejoin: miter"/>
     <use xlink:href="#mddbb9523df" x="115.652626" y="204.379373" style="fill: #ffffff; stroke: #ffffff; stroke-linejoin: miter"/>
     <use xlink:href="#mddbb9523df" x="101.933965" y="204.379373" style="fill: #ffffff; stroke: #ffffff; stroke-linejoin: miter"/>
     <use xlink:href="#mddbb9523df" x="94.241257" y="204.379373" style="fill: #ffffff; stroke: #ffffff; stroke-linejoin: miter"/>
    </g>
   </g>
   <g id="line2d_24">
    <g clip-path="url(#pcdcdb4ea87)">
     <use xlink:href="#mddbb9523df" x="137.68833" y="324.610699" style="fill: #ffffff; stroke: #ffffff; stroke-linejoin: miter"/>
     <use xlink:href="#mddbb9523df" x="135.257881" y="324.610699" style="fill: #ffffff; stroke: #ffffff; stroke-linejoin: miter"/>
     <use xlink:href="#mddbb9523df" x="317.207132" y="324.610699" style="fill: #ffffff; stroke: #ffffff; stroke-linejoin: miter"/>
     <use xlink:href="#mddbb9523df" x="135.687112" y="324.610699" style="fill: #ffffff; stroke: #ffffff; stroke-linejoin: miter"/>
     <use xlink:href="#mddbb9523df" x="406.247431" y="324.610699" style="fill: #ffffff; stroke: #ffffff; stroke-linejoin: miter"/>
     <use xlink:href="#mddbb9523df" x="263.006992" y="324.610699" style="fill: #ffffff; stroke: #ffffff; stroke-linejoin: miter"/>
     <use xlink:href="#mddbb9523df" x="569.633845" y="324.610699" style="fill: #ffffff; stroke: #ffffff; stroke-linejoin: miter"/>
     <use xlink:href="#mddbb9523df" x="188.187052" y="324.610699" style="fill: #ffffff; stroke: #ffffff; stroke-linejoin: miter"/>
     <use xlink:href="#mddbb9523df" x="210.518201" y="324.610699" style="fill: #ffffff; stroke: #ffffff; stroke-linejoin: miter"/>
     <use xlink:href="#mddbb9523df" x="107.402476" y="324.610699" style="fill: #ffffff; stroke: #ffffff; stroke-linejoin: miter"/>
     <use xlink:href="#mddbb9523df" x="82.434624" y="324.610699" style="fill: #ffffff; stroke: #ffffff; stroke-linejoin: miter"/>
     <use xlink:href="#mddbb9523df" x="170.337741" y="324.610699" style="fill: #ffffff; stroke: #ffffff; stroke-linejoin: miter"/>
     <use xlink:href="#mddbb9523df" x="114.25902" y="324.610699" style="fill: #ffffff; stroke: #ffffff; stroke-linejoin: miter"/>
    </g>
   </g>
   <g id="line2d_25">
    <g clip-path="url(#pcdcdb4ea87)">
     <use xlink:href="#mddbb9523df" x="177.590069" y="444.842024" style="fill: #ffffff; stroke: #ffffff; stroke-linejoin: miter"/>
     <use xlink:href="#mddbb9523df" x="147.672127" y="444.842024" style="fill: #ffffff; stroke: #ffffff; stroke-linejoin: miter"/>
     <use xlink:href="#mddbb9523df" x="167.717761" y="444.842024" style="fill: #ffffff; stroke: #ffffff; stroke-linejoin: miter"/>
     <use xlink:href="#mddbb9523df" x="87.323395" y="444.842024" style="fill: #ffffff; stroke: #ffffff; stroke-linejoin: miter"/>
     <use xlink:href="#mddbb9523df" x="104.314245" y="444.842024" style="fill: #ffffff; stroke: #ffffff; stroke-linejoin: miter"/>
     <use xlink:href="#mddbb9523df" x="87.245353" y="444.842024" style="fill: #ffffff; stroke: #ffffff; stroke-linejoin: miter"/>
     <use xlink:href="#mddbb9523df" x="187.61846" y="444.842024" style="fill: #ffffff; stroke: #ffffff; stroke-linejoin: miter"/>
     <use xlink:href="#mddbb9523df" x="225.223535" y="444.842024" style="fill: #ffffff; stroke: #ffffff; stroke-linejoin: miter"/>
     <use xlink:href="#mddbb9523df" x="83.922996" y="444.842024" style="fill: #ffffff; stroke: #ffffff; stroke-linejoin: miter"/>
     <use xlink:href="#mddbb9523df" x="79.60839" y="444.842024" style="fill: #ffffff; stroke: #ffffff; stroke-linejoin: miter"/>
     <use xlink:href="#mddbb9523df" x="76.21914" y="444.842024" style="fill: #ffffff; stroke: #ffffff; stroke-linejoin: miter"/>
     <use xlink:href="#mddbb9523df" x="85.177242" y="444.842024" style="fill: #ffffff; stroke: #ffffff; stroke-linejoin: miter"/>
     <use xlink:href="#mddbb9523df" x="88.895383" y="444.842024" style="fill: #ffffff; stroke: #ffffff; stroke-linejoin: miter"/>
    </g>
   </g>
   <g id="line2d_26">
    <path d="M 115.797561 31.768023 
L 115.797561 37.257831 
" clip-path="url(#pcdcdb4ea87)" style="fill: none; stroke-dasharray: 3.375,3.375; stroke-dashoffset: 0; stroke: #7c7c7c; stroke-width: 1.5"/>
   </g>
   <g id="line2d_27">
    <path d="M 135.519879 31.831569 
L 135.519879 37.257831 
" clip-path="url(#pcdcdb4ea87)" style="fill: none; stroke: #000000; stroke-opacity: 0.8; stroke-width: 1.2; stroke-linecap: round"/>
   </g>
   <g id="line2d_28">
    <path d="M 163.55924 32.983378 
L 163.55924 37.257831 
" clip-path="url(#pcdcdb4ea87)" style="fill: none; stroke-dasharray: 3.375,3.375; stroke-dashoffset: 0; stroke: #7c7c7c; stroke-width: 1.5"/>
   </g>
   <g id="line2d_29">
    <path d="M 82.03884 37.257831 
L 82.03884 61 
" clip-path="url(#pcdcdb4ea87)" style="fill: none; stroke-dasharray: 3.375,3.375; stroke-dashoffset: 0; stroke: #7c7c7c; stroke-width: 1.5"/>
   </g>
   <g id="line2d_30">
    <path d="M 84.881797 37.257831 
L 84.881797 60.609061 
" clip-path="url(#pcdcdb4ea87)" style="fill: none; stroke: #000000; stroke-opacity: 0.8; stroke-width: 1.2; stroke-linecap: round"/>
   </g>
   <g id="line2d_31">
    <path d="M 104.782496 37.257831 
L 104.782496 57.584371 
" clip-path="url(#pcdcdb4ea87)" style="fill: none; stroke-dasharray: 3.375,3.375; stroke-dashoffset: 0; stroke: #7c7c7c; stroke-width: 1.5"/>
   </g>
   <g id="line2d_32">
    <path d="M 150.280958 149.133097 
L 150.280958 157.489157 
" clip-path="url(#pcdcdb4ea87)" style="fill: none; stroke-dasharray: 3.375,3.375; stroke-dashoffset: 0; stroke: #7c7c7c; stroke-width: 1.5"/>
   </g>
   <g id="line2d_33">
    <path d="M 190.04891 148.818669 
L 190.04891 157.489157 
" clip-path="url(#pcdcdb4ea87)" style="fill: none; stroke: #000000; stroke-opacity: 0.8; stroke-width: 1.2; stroke-linecap: round"/>
   </g>
   <g id="line2d_34">
    <path d="M 274.512606 149.680632 
L 274.512606 157.489157 
" clip-path="url(#pcdcdb4ea87)" style="fill: none; stroke-dasharray: 3.375,3.375; stroke-dashoffset: 0; stroke: #7c7c7c; stroke-width: 1.5"/>
   </g>
   <g id="line2d_35">
    <path d="M 101.933965 157.489157 
L 101.933965 179.542292 
" clip-path="url(#pcdcdb4ea87)" style="fill: none; stroke-dasharray: 3.375,3.375; stroke-dashoffset: 0; stroke: #7c7c7c; stroke-width: 1.5"/>
   </g>
   <g id="line2d_36">
    <path d="M 150.559679 157.489157 
L 150.559679 177.136164 
" clip-path="url(#pcdcdb4ea87)" style="fill: none; stroke: #000000; stroke-opacity: 0.8; stroke-width: 1.2; stroke-linecap: round"/>
   </g>
   <g id="line2d_37">
    <path d="M 192.245234 157.489157 
L 192.245234 181.168081 
" clip-path="url(#pcdcdb4ea87)" style="fill: none; stroke-dasharray: 3.375,3.375; stroke-dashoffset: 0; stroke: #7c7c7c; stroke-width: 1.5"/>
   </g>
   <g id="line2d_38">
    <path d="M 170.761397 254.396527 
L 170.761397 277.720482 
" clip-path="url(#pcdcdb4ea87)" style="fill: none; stroke-dasharray: 3.375,3.375; stroke-dashoffset: 0; stroke: #7c7c7c; stroke-width: 1.5"/>
   </g>
   <g id="line2d_39">
    <path d="M 204.720798 254.620243 
L 204.720798 277.720482 
" clip-path="url(#pcdcdb4ea87)" style="fill: none; stroke: #000000; stroke-opacity: 0.8; stroke-width: 1.2; stroke-linecap: round"/>
   </g>
   <g id="line2d_40">
    <path d="M 304.335783 264.411382 
L 304.335783 277.720482 
" clip-path="url(#pcdcdb4ea87)" style="fill: none; stroke-dasharray: 3.375,3.375; stroke-dashoffset: 0; stroke: #7c7c7c; stroke-width: 1.5"/>
   </g>
   <g id="line2d_41">
    <path d="M 135.257881 277.720482 
L 135.257881 296.034824 
" clip-path="url(#pcdcdb4ea87)" style="fill: none; stroke-dasharray: 3.375,3.375; stroke-dashoffset: 0; stroke: #7c7c7c; stroke-width: 1.5"/>
   </g>
   <g id="line2d_42">
    <path d="M 170.337741 277.720482 
L 170.337741 295.950039 
" clip-path="url(#pcdcdb4ea87)" style="fill: none; stroke: #000000; stroke-opacity: 0.8; stroke-width: 1.2; stroke-linecap: round"/>
   </g>
   <g id="line2d_43">
    <path d="M 263.006992 277.720482 
L 263.006992 289.406291 
" clip-path="url(#pcdcdb4ea87)" style="fill: none; stroke-dasharray: 3.375,3.375; stroke-dashoffset: 0; stroke: #7c7c7c; stroke-width: 1.5"/>
   </g>
   <g id="line2d_44">
    <path d="M 121.371987 385.158398 
L 121.371987 397.951807 
" clip-path="url(#pcdcdb4ea87)" style="fill: none; stroke-dasharray: 3.375,3.375; stroke-dashoffset: 0; stroke: #7c7c7c; stroke-width: 1.5"/>
   </g>
   <g id="line2d_45">
    <path d="M 155.532067 385.168341 
L 155.532067 397.951807 
" clip-path="url(#pcdcdb4ea87)" style="fill: none; stroke: #000000; stroke-opacity: 0.8; stroke-width: 1.2; stroke-linecap: round"/>
   </g>
   <g id="line2d_46">
    <path d="M 238.964494 390.903692 
L 238.964494 397.951807 
" clip-path="url(#pcdcdb4ea87)" style="fill: none; stroke-dasharray: 3.375,3.375; stroke-dashoffset: 0; stroke: #7c7c7c; stroke-width: 1.5"/>
   </g>
   <g id="line2d_47">
    <path d="M 85.177242 397.951807 
L 85.177242 421.669103 
" clip-path="url(#pcdcdb4ea87)" style="fill: none; stroke-dasharray: 3.375,3.375; stroke-dashoffset: 0; stroke: #7c7c7c; stroke-width: 1.5"/>
   </g>
   <g id="line2d_48">
    <path d="M 88.895383 397.951807 
L 88.895383 421.75761 
" clip-path="url(#pcdcdb4ea87)" style="fill: none; stroke: #000000; stroke-opacity: 0.8; stroke-width: 1.2; stroke-linecap: round"/>
   </g>
   <g id="line2d_49">
    <path d="M 167.717761 397.951807 
L 167.717761 410.016513 
" clip-path="url(#pcdcdb4ea87)" style="fill: none; stroke-dasharray: 3.375,3.375; stroke-dashoffset: 0; stroke: #7c7c7c; stroke-width: 1.5"/>
   </g>
   <g id="patch_5">
    <path d="M 43.60875 506.16 
L 43.60875 7.2 
" style="fill: none; stroke: #cccccc; stroke-width: 1.25; stroke-linejoin: miter; stroke-linecap: square"/>
   </g>
   <g id="patch_6">
    <path d="M 43.60875 506.16 
L 601.60875 506.16 
" style="fill: none; stroke: #cccccc; stroke-width: 1.25; stroke-linejoin: miter; stroke-linecap: square"/>
   </g>
   <g id="text_17">
    <text style="fill: #3182bd; font: 20px 'Arial', 'DejaVu Sans', 'Liberation Sans', 'Bitstream Vera Sans', sans-serif; text-anchor: middle" x="135.519879" y="123.824386" transform="rotate(-0 135.519879 123.824386)">8.2</text>
   </g>
   <g id="text_18">
    <text style="fill: #3182bd; font: 20px 'Arial', 'DejaVu Sans', 'Liberation Sans', 'Bitstream Vera Sans', sans-serif; text-anchor: middle" x="190.04891" y="244.055711" transform="rotate(-0 190.04891 244.055711)">13.1</text>
   </g>
   <g id="text_19">
    <text style="fill: #3182bd; font: 20px 'Arial', 'DejaVu Sans', 'Liberation Sans', 'Bitstream Vera Sans', sans-serif; text-anchor: middle" x="204.720798" y="364.287036" transform="rotate(-0 204.720798 364.287036)">14.5</text>
   </g>
   <g id="text_20">
    <text style="fill: #3182bd; font: 20px 'Arial', 'DejaVu Sans', 'Liberation Sans', 'Bitstream Vera Sans', sans-serif; text-anchor: middle" x="155.532067" y="484.518361" transform="rotate(-0 155.532067 484.518361)">10.0</text>
   </g>
   <g id="text_21">
    <text style="fill: #e6550d; font: 20px 'Arial', 'DejaVu Sans', 'Liberation Sans', 'Bitstream Vera Sans', sans-serif; text-anchor: middle" x="84.881797" y="132.240578" transform="rotate(-0 84.881797 132.240578)">3.7</text>
   </g>
   <g id="text_22">
    <text style="fill: #e6550d; font: 20px 'Arial', 'DejaVu Sans', 'Liberation Sans', 'Bitstream Vera Sans', sans-serif; text-anchor: middle" x="150.559679" y="252.471904" transform="rotate(-0 150.559679 252.471904)">9.6</text>
   </g>
   <g id="text_23">
    <text style="fill: #e6550d; font: 20px 'Arial', 'DejaVu Sans', 'Liberation Sans', 'Bitstream Vera Sans', sans-serif; text-anchor: middle" x="170.337741" y="372.703229" transform="rotate(-0 170.337741 372.703229)">11.4</text>
   </g>
   <g id="text_24">
    <text style="fill: #e6550d; font: 20px 'Arial', 'DejaVu Sans', 'Liberation Sans', 'Bitstream Vera Sans', sans-serif; text-anchor: middle" x="88.895383" y="492.934554" transform="rotate(-0 88.895383 492.934554)">4.1</text>
   </g>
   <g id="legend_1">
    <g id="patch_7">
     <path d="M 478.388125 501.76 
L 592.80875 501.76 
Q 597.20875 501.76 597.20875 497.36 
L 597.20875 446.120625 
Q 597.20875 441.720625 592.80875 441.720625 
L 478.388125 441.720625 
Q 473.988125 441.720625 473.988125 446.120625 
L 473.988125 497.36 
Q 473.988125 501.76 478.388125 501.76 
z
" style="fill: #ffffff"/>
    </g>
    <g id="patch_8">
     <path d="M 482.788125 466.267812 
L 526.788125 466.267812 
L 526.788125 450.867813 
L 482.788125 450.867813 
z
" style="fill: #cbdbea; stroke: #7c7c7c; stroke-width: 0.75; stroke-linejoin: miter"/>
    </g>
    <g id="text_25">
     <text style="fill: #262626; font: 22px 'Arial', 'DejaVu Sans', 'Liberation Sans', 'Bitstream Vera Sans', sans-serif; text-anchor: start" x="544.388125" y="466.267812" transform="rotate(-0 544.388125 466.267812)">SQL</text>
    </g>
    <g id="patch_9">
     <path d="M 482.788125 488.5875 
L 526.788125 488.5875 
L 526.788125 473.1875 
L 482.788125 473.1875 
z
" style="fill: #f2d0ad; stroke: #7c7c7c; stroke-width: 0.75; stroke-linejoin: miter"/>
    </g>
    <g id="text_26">
     <text style="fill: #262626; font: 22px 'Arial', 'DejaVu Sans', 'Liberation Sans', 'Bitstream Vera Sans', sans-serif; text-anchor: start" x="544.388125" y="488.5875" transform="rotate(-0 544.388125 488.5875)">DX</text>
    </g>
   </g>
   <g id="line2d_50">
    <defs>
     <path id="m2d74fe79d3" d="M 0 -5 
L -5 5 
L 5 5 
z
"/>
    </defs>
    <g clip-path="url(#pcdcdb4ea87)">
     <use xlink:href="#m2d74fe79d3" x="250.375343" y="73.327229" style="fill: #3182bd"/>
     <use xlink:href="#m2d74fe79d3" x="129.683455" y="73.327229" style="fill: #3182bd"/>
     <use xlink:href="#m2d74fe79d3" x="163.55924" y="73.327229" style="fill: #3182bd"/>
     <use xlink:href="#m2d74fe79d3" x="139.544614" y="73.327229" style="fill: #3182bd"/>
     <use xlink:href="#m2d74fe79d3" x="325.552047" y="73.327229" style="fill: #3182bd"/>
     <use xlink:href="#m2d74fe79d3" x="102.363196" y="73.327229" style="fill: #3182bd"/>
     <use xlink:href="#m2d74fe79d3" x="246.707371" y="73.327229" style="fill: #3182bd"/>
     <use xlink:href="#m2d74fe79d3" x="135.519879" y="73.327229" style="fill: #3182bd"/>
     <use xlink:href="#m2d74fe79d3" x="115.797561" y="73.327229" style="fill: #3182bd"/>
     <use xlink:href="#m2d74fe79d3" x="86.197361" y="73.327229" style="fill: #3182bd"/>
     <use xlink:href="#m2d74fe79d3" x="81.882756" y="73.327229" style="fill: #3182bd"/>
     <use xlink:href="#m2d74fe79d3" x="125.636422" y="73.327229" style="fill: #3182bd"/>
     <use xlink:href="#m2d74fe79d3" x="146.311967" y="73.327229" style="fill: #3182bd"/>
    </g>
   </g>
   <g id="line2d_51">
    <g clip-path="url(#pcdcdb4ea87)">
     <use xlink:href="#m2d74fe79d3" x="235.541797" y="193.558554" style="fill: #3182bd"/>
     <use xlink:href="#m2d74fe79d3" x="251.183635" y="193.558554" style="fill: #3182bd"/>
     <use xlink:href="#m2d74fe79d3" x="190.04891" y="193.558554" style="fill: #3182bd"/>
     <use xlink:href="#m2d74fe79d3" x="157.19882" y="193.558554" style="fill: #3182bd"/>
     <use xlink:href="#m2d74fe79d3" x="1018.453146" y="193.558554" style="fill: #3182bd"/>
     <use xlink:href="#m2d74fe79d3" x="152.165114" y="193.558554" style="fill: #3182bd"/>
     <use xlink:href="#m2d74fe79d3" x="340.396742" y="193.558554" style="fill: #3182bd"/>
     <use xlink:href="#m2d74fe79d3" x="274.512606" y="193.558554" style="fill: #3182bd"/>
     <use xlink:href="#m2d74fe79d3" x="296.827032" y="193.558554" style="fill: #3182bd"/>
     <use xlink:href="#m2d74fe79d3" x="118.049629" y="193.558554" style="fill: #3182bd"/>
     <use xlink:href="#m2d74fe79d3" x="128.875164" y="193.558554" style="fill: #3182bd"/>
     <use xlink:href="#m2d74fe79d3" x="150.280958" y="193.558554" style="fill: #3182bd"/>
     <use xlink:href="#m2d74fe79d3" x="148.814884" y="193.558554" style="fill: #3182bd"/>
    </g>
   </g>
   <g id="line2d_52">
    <g clip-path="url(#pcdcdb4ea87)">
     <use xlink:href="#m2d74fe79d3" x="193.460458" y="313.78988" style="fill: #3182bd"/>
     <use xlink:href="#m2d74fe79d3" x="304.335783" y="313.78988" style="fill: #3182bd"/>
     <use xlink:href="#m2d74fe79d3" x="283.526452" y="313.78988" style="fill: #3182bd"/>
     <use xlink:href="#m2d74fe79d3" x="192.100298" y="313.78988" style="fill: #3182bd"/>
     <use xlink:href="#m2d74fe79d3" x="170.761397" y="313.78988" style="fill: #3182bd"/>
     <use xlink:href="#m2d74fe79d3" x="304.547611" y="313.78988" style="fill: #3182bd"/>
     <use xlink:href="#m2d74fe79d3" x="414.664814" y="313.78988" style="fill: #3182bd"/>
     <use xlink:href="#m2d74fe79d3" x="393.314764" y="313.78988" style="fill: #3182bd"/>
     <use xlink:href="#m2d74fe79d3" x="204.720798" y="313.78988" style="fill: #3182bd"/>
     <use xlink:href="#m2d74fe79d3" x="113.500898" y="313.78988" style="fill: #3182bd"/>
     <use xlink:href="#m2d74fe79d3" x="155.927851" y="313.78988" style="fill: #3182bd"/>
     <use xlink:href="#m2d74fe79d3" x="157.956942" y="313.78988" style="fill: #3182bd"/>
     <use xlink:href="#m2d74fe79d3" x="205.384155" y="313.78988" style="fill: #3182bd"/>
    </g>
   </g>
   <g id="line2d_53">
    <g clip-path="url(#pcdcdb4ea87)">
     <use xlink:href="#m2d74fe79d3" x="138.011647" y="434.021205" style="fill: #3182bd"/>
     <use xlink:href="#m2d74fe79d3" x="238.964494" y="434.021205" style="fill: #3182bd"/>
     <use xlink:href="#m2d74fe79d3" x="155.532067" y="434.021205" style="fill: #3182bd"/>
     <use xlink:href="#m2d74fe79d3" x="167.082276" y="434.021205" style="fill: #3182bd"/>
     <use xlink:href="#m2d74fe79d3" x="448.535024" y="434.021205" style="fill: #3182bd"/>
     <use xlink:href="#m2d74fe79d3" x="87.145014" y="434.021205" style="fill: #3182bd"/>
     <use xlink:href="#m2d74fe79d3" x="266.80875" y="434.021205" style="fill: #3182bd"/>
     <use xlink:href="#m2d74fe79d3" x="292.874764" y="434.021205" style="fill: #3182bd"/>
     <use xlink:href="#m2d74fe79d3" x="121.371987" y="434.021205" style="fill: #3182bd"/>
     <use xlink:href="#m2d74fe79d3" x="155.821937" y="434.021205" style="fill: #3182bd"/>
     <use xlink:href="#m2d74fe79d3" x="116.366153" y="434.021205" style="fill: #3182bd"/>
     <use xlink:href="#m2d74fe79d3" x="111.343595" y="434.021205" style="fill: #3182bd"/>
     <use xlink:href="#m2d74fe79d3" x="129.086992" y="434.021205" style="fill: #3182bd"/>
    </g>
   </g>
   <g id="line2d_54">
    <defs>
     <path id="md231346e86" d="M 0 -5 
L -5 5 
L 5 5 
z
"/>
    </defs>
    <g clip-path="url(#pcdcdb4ea87)">
     <use xlink:href="#md231346e86" x="103.427911" y="84.148048" style="fill: #e6550d"/>
     <use xlink:href="#md231346e86" x="107.146053" y="84.148048" style="fill: #e6550d"/>
     <use xlink:href="#md231346e86" x="104.782496" y="84.148048" style="fill: #e6550d"/>
     <use xlink:href="#md231346e86" x="95.545673" y="84.148048" style="fill: #e6550d"/>
     <use xlink:href="#md231346e86" x="84.881797" y="84.148048" style="fill: #e6550d"/>
     <use xlink:href="#md231346e86" x="81.414504" y="84.148048" style="fill: #e6550d"/>
     <use xlink:href="#md231346e86" x="105.802616" y="84.148048" style="fill: #e6550d"/>
     <use xlink:href="#md231346e86" x="105.685553" y="84.148048" style="fill: #e6550d"/>
     <use xlink:href="#md231346e86" x="82.03884" y="84.148048" style="fill: #e6550d"/>
     <use xlink:href="#md231346e86" x="83.633126" y="84.148048" style="fill: #e6550d"/>
     <use xlink:href="#md231346e86" x="70.856542" y="84.148048" style="fill: #e6550d"/>
     <use xlink:href="#md231346e86" x="84.407971" y="84.148048" style="fill: #e6550d"/>
     <use xlink:href="#md231346e86" x="79.675283" y="84.148048" style="fill: #e6550d"/>
    </g>
   </g>
   <g id="line2d_55">
    <g clip-path="url(#pcdcdb4ea87)">
     <use xlink:href="#md231346e86" x="176.006932" y="204.379373" style="fill: #e6550d"/>
     <use xlink:href="#md231346e86" x="150.559679" y="204.379373" style="fill: #e6550d"/>
     <use xlink:href="#md231346e86" x="196.403755" y="204.379373" style="fill: #e6550d"/>
     <use xlink:href="#md231346e86" x="191.676642" y="204.379373" style="fill: #e6550d"/>
     <use xlink:href="#md231346e86" x="134.661417" y="204.379373" style="fill: #e6550d"/>
     <use xlink:href="#md231346e86" x="94.670488" y="204.379373" style="fill: #e6550d"/>
     <use xlink:href="#md231346e86" x="221.315863" y="204.379373" style="fill: #e6550d"/>
     <use xlink:href="#md231346e86" x="192.245234" y="204.379373" style="fill: #e6550d"/>
     <use xlink:href="#md231346e86" x="200.272406" y="204.379373" style="fill: #e6550d"/>
     <use xlink:href="#md231346e86" x="86.883016" y="204.379373" style="fill: #e6550d"/>
     <use xlink:href="#md231346e86" x="115.652626" y="204.379373" style="fill: #e6550d"/>
     <use xlink:href="#md231346e86" x="101.933965" y="204.379373" style="fill: #e6550d"/>
     <use xlink:href="#md231346e86" x="94.241257" y="204.379373" style="fill: #e6550d"/>
    </g>
   </g>
   <g id="line2d_56">
    <g clip-path="url(#pcdcdb4ea87)">
     <use xlink:href="#md231346e86" x="137.68833" y="324.610699" style="fill: #e6550d"/>
     <use xlink:href="#md231346e86" x="135.257881" y="324.610699" style="fill: #e6550d"/>
     <use xlink:href="#md231346e86" x="317.207132" y="324.610699" style="fill: #e6550d"/>
     <use xlink:href="#md231346e86" x="135.687112" y="324.610699" style="fill: #e6550d"/>
     <use xlink:href="#md231346e86" x="406.247431" y="324.610699" style="fill: #e6550d"/>
     <use xlink:href="#md231346e86" x="263.006992" y="324.610699" style="fill: #e6550d"/>
     <use xlink:href="#md231346e86" x="569.633845" y="324.610699" style="fill: #e6550d"/>
     <use xlink:href="#md231346e86" x="188.187052" y="324.610699" style="fill: #e6550d"/>
     <use xlink:href="#md231346e86" x="210.518201" y="324.610699" style="fill: #e6550d"/>
     <use xlink:href="#md231346e86" x="107.402476" y="324.610699" style="fill: #e6550d"/>
     <use xlink:href="#md231346e86" x="82.434624" y="324.610699" style="fill: #e6550d"/>
     <use xlink:href="#md231346e86" x="170.337741" y="324.610699" style="fill: #e6550d"/>
     <use xlink:href="#md231346e86" x="114.25902" y="324.610699" style="fill: #e6550d"/>
    </g>
   </g>
   <g id="line2d_57">
    <g clip-path="url(#pcdcdb4ea87)">
     <use xlink:href="#md231346e86" x="177.590069" y="444.842024" style="fill: #e6550d"/>
     <use xlink:href="#md231346e86" x="147.672127" y="444.842024" style="fill: #e6550d"/>
     <use xlink:href="#md231346e86" x="167.717761" y="444.842024" style="fill: #e6550d"/>
     <use xlink:href="#md231346e86" x="87.323395" y="444.842024" style="fill: #e6550d"/>
     <use xlink:href="#md231346e86" x="104.314245" y="444.842024" style="fill: #e6550d"/>
     <use xlink:href="#md231346e86" x="87.245353" y="444.842024" style="fill: #e6550d"/>
     <use xlink:href="#md231346e86" x="187.61846" y="444.842024" style="fill: #e6550d"/>
     <use xlink:href="#md231346e86" x="225.223535" y="444.842024" style="fill: #e6550d"/>
     <use xlink:href="#md231346e86" x="83.922996" y="444.842024" style="fill: #e6550d"/>
     <use xlink:href="#md231346e86" x="79.60839" y="444.842024" style="fill: #e6550d"/>
     <use xlink:href="#md231346e86" x="76.21914" y="444.842024" style="fill: #e6550d"/>
     <use xlink:href="#md231346e86" x="85.177242" y="444.842024" style="fill: #e6550d"/>
     <use xlink:href="#md231346e86" x="88.895383" y="444.842024" style="fill: #e6550d"/>
    </g>
   </g>
   <g id="LineCollection_1">
    <path d="M 115.797561 97.373494 
L 163.55924 97.373494 
" clip-path="url(#pcdcdb4ea87)" style="fill: none; stroke: #3182bd; stroke-width: 3"/>
   </g>
   <g id="LineCollection_2">
    <path d="M 150.280958 217.604819 
L 274.512606 217.604819 
" clip-path="url(#pcdcdb4ea87)" style="fill: none; stroke: #3182bd; stroke-width: 3"/>
   </g>
   <g id="LineCollection_3">
    <path d="M 170.761397 337.836145 
L 304.335783 337.836145 
" clip-path="url(#pcdcdb4ea87)" style="fill: none; stroke: #3182bd; stroke-width: 3"/>
   </g>
   <g id="LineCollection_4">
    <path d="M 121.371987 458.06747 
L 238.964494 458.06747 
" clip-path="url(#pcdcdb4ea87)" style="fill: none; stroke: #3182bd; stroke-width: 3"/>
   </g>
   <g id="LineCollection_5">
    <path d="M 82.03884 105.789687 
L 104.782496 105.789687 
" clip-path="url(#pcdcdb4ea87)" style="fill: none; stroke: #e6550d; stroke-width: 3"/>
   </g>
   <g id="LineCollection_6">
    <path d="M 101.933965 226.021012 
L 192.245234 226.021012 
" clip-path="url(#pcdcdb4ea87)" style="fill: none; stroke: #e6550d; stroke-width: 3"/>
   </g>
   <g id="LineCollection_7">
    <path d="M 135.257881 346.252337 
L 263.006992 346.252337 
" clip-path="url(#pcdcdb4ea87)" style="fill: none; stroke: #e6550d; stroke-width: 3"/>
   </g>
   <g id="LineCollection_8">
    <path d="M 85.177242 466.483663 
L 167.717761 466.483663 
" clip-path="url(#pcdcdb4ea87)" style="fill: none; stroke: #e6550d; stroke-width: 3"/>
   </g>
   <g id="line2d_58">
    <defs>
     <path id="m5f0dd30dd6" d="M 0 5 
C 1.326016 5 2.597899 4.473168 3.535534 3.535534 
C 4.473168 2.597899 5 1.326016 5 0 
C 5 -1.326016 4.473168 -2.597899 3.535534 -3.535534 
C 2.597899 -4.473168 1.326016 -5 0 -5 
C -1.326016 -5 -2.597899 -4.473168 -3.535534 -3.535534 
C -4.473168 -2.597899 -5 -1.326016 -5 0 
C -5 1.326016 -4.473168 2.597899 -3.535534 3.535534 
C -2.597899 4.473168 -1.326016 5 0 5 
z
" style="stroke: #3182bd"/>
    </defs>
    <g clip-path="url(#pcdcdb4ea87)">
     <use xlink:href="#m5f0dd30dd6" x="135.519879" y="97.373494" style="fill: #3182bd; stroke: #3182bd"/>
    </g>
   </g>
   <g id="line2d_59">
    <g clip-path="url(#pcdcdb4ea87)">
     <use xlink:href="#m5f0dd30dd6" x="190.04891" y="217.604819" style="fill: #3182bd; stroke: #3182bd"/>
    </g>
   </g>
   <g id="line2d_60">
    <g clip-path="url(#pcdcdb4ea87)">
     <use xlink:href="#m5f0dd30dd6" x="204.720798" y="337.836145" style="fill: #3182bd; stroke: #3182bd"/>
    </g>
   </g>
   <g id="line2d_61">
    <g clip-path="url(#pcdcdb4ea87)">
     <use xlink:href="#m5f0dd30dd6" x="155.532067" y="458.06747" style="fill: #3182bd; stroke: #3182bd"/>
    </g>
   </g>
   <g id="line2d_62">
    <defs>
     <path id="ma4bfdd3ca5" d="M 0 5 
C 1.326016 5 2.597899 4.473168 3.535534 3.535534 
C 4.473168 2.597899 5 1.326016 5 0 
C 5 -1.326016 4.473168 -2.597899 3.535534 -3.535534 
C 2.597899 -4.473168 1.326016 -5 0 -5 
C -1.326016 -5 -2.597899 -4.473168 -3.535534 -3.535534 
C -4.473168 -2.597899 -5 -1.326016 -5 0 
C -5 1.326016 -4.473168 2.597899 -3.535534 3.535534 
C -2.597899 4.473168 -1.326016 5 0 5 
z
" style="stroke: #e6550d"/>
    </defs>
    <g clip-path="url(#pcdcdb4ea87)">
     <use xlink:href="#ma4bfdd3ca5" x="84.881797" y="105.789687" style="fill: #e6550d; stroke: #e6550d"/>
    </g>
   </g>
   <g id="line2d_63">
    <g clip-path="url(#pcdcdb4ea87)">
     <use xlink:href="#ma4bfdd3ca5" x="150.559679" y="226.021012" style="fill: #e6550d; stroke: #e6550d"/>
    </g>
   </g>
   <g id="line2d_64">
    <g clip-path="url(#pcdcdb4ea87)">
     <use xlink:href="#ma4bfdd3ca5" x="170.337741" y="346.252337" style="fill: #e6550d; stroke: #e6550d"/>
    </g>
   </g>
   <g id="line2d_65">
    <g clip-path="url(#pcdcdb4ea87)">
     <use xlink:href="#ma4bfdd3ca5" x="88.895383" y="466.483663" style="fill: #e6550d; stroke: #e6550d"/>
    </g>
   </g>
  </g>
 </g>
 <defs>
  <clipPath id="pcdcdb4ea87">
   <rect x="43.60875" y="7.2" width="558" height="498.96"/>
  </clipPath>
 </defs>
</svg>
