<?xml version="1.0" encoding="utf-8" standalone="no"?>
<!DOCTYPE svg PUBLIC "-//W3C//DTD SVG 1.1//EN"
  "http://www.w3.org/Graphics/SVG/1.1/DTD/svg11.dtd">
<svg xmlns:xlink="http://www.w3.org/1999/xlink" width="600.333804pt" height="233.120938pt" viewBox="0 0 600.333804 233.120938" xmlns="http://www.w3.org/2000/svg" version="1.1">
 <metadata>
  <rdf:RDF xmlns:dc="http://purl.org/dc/elements/1.1/" xmlns:cc="http://creativecommons.org/ns#" xmlns:rdf="http://www.w3.org/1999/02/22-rdf-syntax-ns#">
   <cc:Work>
    <dc:type rdf:resource="http://purl.org/dc/dcmitype/StillImage"/>
    <dc:date>2023-10-08T11:46:38.243272</dc:date>
    <dc:format>image/svg+xml</dc:format>
    <dc:creator>
     <cc:Agent>
      <dc:title>Matplotlib v3.7.1, https://matplotlib.org/</dc:title>
     </cc:Agent>
    </dc:creator>
   </cc:Work>
  </rdf:RDF>
 </metadata>
 <defs>
  <style type="text/css">*{stroke-linejoin: round; stroke-linecap: butt}</style>
 </defs>
 <g id="figure_1">
  <g id="patch_1">
   <path d="M -0 233.120938 
L 600.333804 233.120938 
L 600.333804 0 
L -0 0 
z
" style="fill: #ffffff"/>
  </g>
  <g id="axes_1">
   <g id="patch_2">
    <path d="M 35.133804 173.52 
L 593.133804 173.52 
L 593.133804 7.2 
L 35.133804 7.2 
z
" style="fill: #ffffff"/>
   </g>
   <g id="line2d_1">
    <path d="M 136.910574 234.120938 
L 136.910574 -1 
" clip-path="url(#p3b2827a862)" style="fill: none; stroke: #000000; stroke-width: 2; stroke-linecap: round"/>
   </g>
   <g id="matplotlib.axis_1">
    <g id="xtick_1">
     <g id="line2d_2">
      <path d="M 35.640156 173.52 
L 35.640156 7.2 
" clip-path="url(#p3b2827a862)" style="fill: none; stroke: #d3d3d3; stroke-width: 0.5; stroke-linecap: round"/>
     </g>
     <g id="text_1">
      <text style="fill: #262626; font: 22px 'Arial', 'DejaVu Sans', 'Liberation Sans', 'Bitstream Vera Sans', sans-serif; text-anchor: middle" x="35.640156" y="198.767188" transform="rotate(-0 35.640156 198.767188)">−20%</text>
     </g>
    </g>
    <g id="xtick_2">
     <g id="line2d_3">
      <path d="M 136.910574 173.52 
L 136.910574 7.2 
" clip-path="url(#p3b2827a862)" style="fill: none; stroke: #d3d3d3; stroke-width: 0.5; stroke-linecap: round"/>
     </g>
     <g id="text_2">
      <text style="fill: #262626; font: 22px 'Arial', 'DejaVu Sans', 'Liberation Sans', 'Bitstream Vera Sans', sans-serif; text-anchor: middle" x="136.910574" y="198.767188" transform="rotate(-0 136.910574 198.767188)">0%</text>
     </g>
    </g>
    <g id="xtick_3">
     <g id="line2d_4">
      <path d="M 238.180991 173.52 
L 238.180991 7.2 
" clip-path="url(#p3b2827a862)" style="fill: none; stroke: #d3d3d3; stroke-width: 0.5; stroke-linecap: round"/>
     </g>
     <g id="text_3">
      <text style="fill: #262626; font: 22px 'Arial', 'DejaVu Sans', 'Liberation Sans', 'Bitstream Vera Sans', sans-serif; text-anchor: middle" x="238.180991" y="198.767188" transform="rotate(-0 238.180991 198.767188)">20%</text>
     </g>
    </g>
    <g id="xtick_4">
     <g id="line2d_5">
      <path d="M 339.451409 173.52 
L 339.451409 7.2 
" clip-path="url(#p3b2827a862)" style="fill: none; stroke: #d3d3d3; stroke-width: 0.5; stroke-linecap: round"/>
     </g>
     <g id="text_4">
      <text style="fill: #262626; font: 22px 'Arial', 'DejaVu Sans', 'Liberation Sans', 'Bitstream Vera Sans', sans-serif; text-anchor: middle" x="339.451409" y="198.767188" transform="rotate(-0 339.451409 198.767188)">40%</text>
     </g>
    </g>
    <g id="xtick_5">
     <g id="line2d_6">
      <path d="M 440.721826 173.52 
L 440.721826 7.2 
" clip-path="url(#p3b2827a862)" style="fill: none; stroke: #d3d3d3; stroke-width: 0.5; stroke-linecap: round"/>
     </g>
     <g id="text_5">
      <text style="fill: #262626; font: 22px 'Arial', 'DejaVu Sans', 'Liberation Sans', 'Bitstream Vera Sans', sans-serif; text-anchor: middle" x="440.721826" y="198.767188" transform="rotate(-0 440.721826 198.767188)">60%</text>
     </g>
    </g>
    <g id="xtick_6">
     <g id="line2d_7">
      <path d="M 541.992243 173.52 
L 541.992243 7.2 
" clip-path="url(#p3b2827a862)" style="fill: none; stroke: #d3d3d3; stroke-width: 0.5; stroke-linecap: round"/>
     </g>
     <g id="text_6">
      <text style="fill: #262626; font: 22px 'Arial', 'DejaVu Sans', 'Liberation Sans', 'Bitstream Vera Sans', sans-serif; text-anchor: middle" x="541.992243" y="198.767188" transform="rotate(-0 541.992243 198.767188)">80%</text>
     </g>
    </g>
    <g id="text_7">
     <text style="fill: #262626; font: 20px 'Arial', 'DejaVu Sans', 'Liberation Sans', 'Bitstream Vera Sans', sans-serif; text-anchor: middle" x="314.133804" y="221.711563" transform="rotate(-0 314.133804 221.711563)">Difference in accuracy per worker (DX - SQL)</text>
    </g>
   </g>
   <g id="matplotlib.axis_2">
    <g id="ytick_1"/>
   </g>
   <g id="patch_3">
    <path d="M 136.910574 84.816 
L 136.910574 84.816 
L 136.910574 84.816 
L 136.910574 84.816 
z
" clip-path="url(#p3b2827a862)" style="fill: #f2f0f0; stroke: #797979; stroke-width: 0.75; stroke-linejoin: miter"/>
   </g>
   <g id="patch_4">
    <path d="M 136.910574 84.816 
L 136.910574 84.816 
L 136.910574 84.816 
L 136.910574 84.816 
z
" clip-path="url(#p3b2827a862)" style="fill: #efa6a5; stroke: #797979; stroke-width: 0.75; stroke-linejoin: miter"/>
   </g>
   <g id="PolyCollection_1">
    <defs>
     <path id="m87dab9642b" d="M 105.263568 -189.685782 
L 105.263568 -148.304937 
L 106.542235 -148.304937 
L 107.820902 -148.304937 
L 109.099569 -148.304937 
L 110.378236 -148.304937 
L 111.656903 -148.304937 
L 112.93557 -148.304937 
L 114.214236 -148.304937 
L 115.492903 -148.304937 
L 116.77157 -148.304937 
L 118.050237 -148.304937 
L 119.328904 -148.304937 
L 120.607571 -148.304937 
L 121.886238 -148.304937 
L 123.164905 -148.304937 
L 124.443572 -148.304937 
L 125.722238 -148.304937 
L 127.000905 -148.304937 
L 128.279572 -148.304937 
L 129.558239 -148.304937 
L 130.836906 -148.304937 
L 132.115573 -148.304937 
L 133.39424 -148.304937 
L 134.672907 -148.304937 
L 135.951574 -148.304937 
L 137.23024 -148.304937 
L 138.508907 -148.304937 
L 139.787574 -148.304937 
L 141.066241 -148.304937 
L 142.344908 -148.304937 
L 143.623575 -148.304937 
L 144.902242 -148.304937 
L 146.180909 -148.304937 
L 147.459575 -148.304937 
L 148.738242 -148.304937 
L 150.016909 -148.304937 
L 151.295576 -148.304937 
L 152.574243 -148.304937 
L 153.85291 -148.304937 
L 155.131577 -148.304937 
L 156.410244 -148.304937 
L 157.688911 -148.304937 
L 158.967577 -148.304937 
L 160.246244 -148.304937 
L 161.524911 -148.304937 
L 162.803578 -148.304937 
L 164.082245 -148.304937 
L 165.360912 -148.304937 
L 166.639579 -148.304937 
L 167.918246 -148.304937 
L 169.196913 -148.304937 
L 170.475579 -148.304937 
L 171.754246 -148.304937 
L 173.032913 -148.304937 
L 174.31158 -148.304937 
L 175.590247 -148.304937 
L 176.868914 -148.304937 
L 178.147581 -148.304937 
L 179.426248 -148.304937 
L 180.704915 -148.304937 
L 181.983581 -148.304937 
L 183.262248 -148.304937 
L 184.540915 -148.304937 
L 185.819582 -148.304937 
L 187.098249 -148.304937 
L 188.376916 -148.304937 
L 189.655583 -148.304937 
L 190.93425 -148.304937 
L 192.212917 -148.304937 
L 193.491583 -148.304937 
L 194.77025 -148.304937 
L 196.048917 -148.304937 
L 197.327584 -148.304937 
L 198.606251 -148.304937 
L 199.884918 -148.304937 
L 201.163585 -148.304937 
L 202.442252 -148.304937 
L 203.720919 -148.304937 
L 204.999585 -148.304937 
L 206.278252 -148.304937 
L 207.556919 -148.304937 
L 208.835586 -148.304937 
L 210.114253 -148.304937 
L 211.39292 -148.304937 
L 212.671587 -148.304937 
L 213.950254 -148.304937 
L 215.22892 -148.304937 
L 216.507587 -148.304937 
L 217.786254 -148.304937 
L 219.064921 -148.304937 
L 220.343588 -148.304937 
L 221.622255 -148.304937 
L 222.900922 -148.304937 
L 224.179589 -148.304937 
L 225.458256 -148.304937 
L 226.736922 -148.304937 
L 228.015589 -148.304937 
L 229.294256 -148.304937 
L 230.572923 -148.304937 
L 231.85159 -148.304937 
L 231.85159 -157.003948 
L 231.85159 -157.003948 
L 230.572923 -157.036743 
L 229.294256 -157.046241 
L 228.015589 -157.034298 
L 226.736922 -157.003259 
L 225.458256 -156.95595 
L 224.179589 -156.895655 
L 222.900922 -156.826085 
L 221.622255 -156.751344 
L 220.343588 -156.675882 
L 219.064921 -156.60445 
L 217.786254 -156.542042 
L 216.507587 -156.49383 
L 215.22892 -156.465109 
L 213.950254 -156.461222 
L 212.671587 -156.487494 
L 211.39292 -156.549162 
L 210.114253 -156.651307 
L 208.835586 -156.798778 
L 207.556919 -156.996137 
L 206.278252 -157.247587 
L 204.999585 -157.556916 
L 203.720919 -157.92745 
L 202.442252 -158.361997 
L 201.163585 -158.86282 
L 199.884918 -159.431595 
L 198.606251 -160.069401 
L 197.327584 -160.776701 
L 196.048917 -161.553345 
L 194.77025 -162.398578 
L 193.491583 -163.311059 
L 192.212917 -164.288892 
L 190.93425 -165.329666 
L 189.655583 -166.4305 
L 188.376916 -167.588103 
L 187.098249 -168.79883 
L 185.819582 -170.058756 
L 184.540915 -171.363736 
L 183.262248 -172.709485 
L 181.983581 -174.091635 
L 180.704915 -175.505809 
L 179.426248 -176.947673 
L 178.147581 -178.412987 
L 176.868914 -179.897648 
L 175.590247 -181.397719 
L 174.31158 -182.90944 
L 173.032913 -184.429238 
L 171.754246 -185.953714 
L 170.475579 -187.479618 
L 169.196913 -189.00382 
L 167.918246 -190.523257 
L 166.639579 -192.034888 
L 165.360912 -193.535629 
L 164.082245 -195.022292 
L 162.803578 -196.491527 
L 161.524911 -197.939761 
L 160.246244 -199.363149 
L 158.967577 -200.757533 
L 157.688911 -202.118416 
L 156.410244 -203.440951 
L 155.131577 -204.719942 
L 153.85291 -205.949876 
L 152.574243 -207.124959 
L 151.295576 -208.239182 
L 150.016909 -209.286395 
L 148.738242 -210.260407 
L 147.459575 -211.155085 
L 146.180909 -211.964473 
L 144.902242 -212.682911 
L 143.623575 -213.305155 
L 142.344908 -213.826493 
L 141.066241 -214.242855 
L 139.787574 -214.550911 
L 138.508907 -214.748149 
L 137.23024 -214.832938 
L 135.951574 -214.804569 
L 134.672907 -214.663273 
L 133.39424 -214.410214 
L 132.115573 -214.047461 
L 130.836906 -213.57793 
L 129.558239 -213.005322 
L 128.279572 -212.334024 
L 127.000905 -211.569008 
L 125.722238 -210.715719 
L 124.443572 -209.779952 
L 123.164905 -208.767733 
L 121.886238 -207.685198 
L 120.607571 -206.53848 
L 119.328904 -205.333612 
L 118.050237 -204.076434 
L 116.77157 -202.772525 
L 115.492903 -201.427144 
L 114.214236 -200.045201 
L 112.93557 -198.631233 
L 111.656903 -197.18941 
L 110.378236 -195.723549 
L 109.099569 -194.237144 
L 107.820902 -192.733415 
L 106.542235 -191.215353 
L 105.263568 -189.685782 
z
" style="stroke: #797979; stroke-width: 1.5"/>
    </defs>
    <g clip-path="url(#p3b2827a862)">
     <use xlink:href="#m87dab9642b" x="0" y="233.120938" style="fill: #efa6a5; stroke: #797979; stroke-width: 1.5"/>
    </g>
   </g>
   <g id="line2d_8">
    <path d="M 136.910574 84.816 
L 136.910574 18.95328 
" clip-path="url(#p3b2827a862)" style="fill: none; stroke-dasharray: 3.375,3.375; stroke-dashoffset: 0; stroke: #797979; stroke-width: 1.5"/>
   </g>
   <g id="line2d_9">
    <path d="M 136.910574 84.816 
L 136.910574 18.95328 
" clip-path="url(#p3b2827a862)" style="fill: none; stroke: #000000; stroke-opacity: 0.8; stroke-width: 1.5; stroke-linecap: round"/>
   </g>
   <g id="line2d_10">
    <path d="M 168.557579 84.816 
L 168.557579 43.019863 
" clip-path="url(#p3b2827a862)" style="fill: none; stroke-dasharray: 3.375,3.375; stroke-dashoffset: 0; stroke: #797979; stroke-width: 1.5"/>
   </g>
   <g id="patch_5">
    <path d="M 35.133804 173.52 
L 593.133804 173.52 
" style="fill: none; stroke: #cccccc; stroke-width: 1.25; stroke-linejoin: miter; stroke-linecap: square"/>
   </g>
   <g id="text_8">
    <text style="fill: #d62728; font: 24px 'Arial', 'DejaVu Sans', 'Liberation Sans', 'Bitstream Vera Sans', sans-serif; text-anchor: middle" x="144.213729" y="111.4272" transform="rotate(-0 144.213729 111.4272)">1%</text>
   </g>
   <g id="PathCollection_1">
    <defs>
     <path id="mca2a43b50f" d="M 0 -6.123724 
L -6.123724 6.123724 
L 6.123724 6.123724 
z
"/>
    </defs>
    <g clip-path="url(#p3b2827a862)">
     <use xlink:href="#mca2a43b50f" x="105.263568" y="151.344" style="fill: #d62728"/>
     <use xlink:href="#mca2a43b50f" x="105.263568" y="146.9088" style="fill: #d62728"/>
     <use xlink:href="#mca2a43b50f" x="105.263568" y="142.4736" style="fill: #d62728"/>
     <use xlink:href="#mca2a43b50f" x="136.910574" y="151.344" style="fill: #d62728"/>
     <use xlink:href="#mca2a43b50f" x="136.910574" y="146.9088" style="fill: #d62728"/>
     <use xlink:href="#mca2a43b50f" x="136.910574" y="142.4736" style="fill: #d62728"/>
     <use xlink:href="#mca2a43b50f" x="136.910574" y="138.0384" style="fill: #d62728"/>
     <use xlink:href="#mca2a43b50f" x="136.910574" y="133.6032" style="fill: #d62728"/>
     <use xlink:href="#mca2a43b50f" x="136.910574" y="129.168" style="fill: #d62728"/>
     <use xlink:href="#mca2a43b50f" x="168.557579" y="151.344" style="fill: #d62728"/>
     <use xlink:href="#mca2a43b50f" x="168.557579" y="146.9088" style="fill: #d62728"/>
     <use xlink:href="#mca2a43b50f" x="168.557579" y="142.4736" style="fill: #d62728"/>
     <use xlink:href="#mca2a43b50f" x="231.85159" y="151.344" style="fill: #d62728"/>
    </g>
   </g>
   <g id="LineCollection_1">
    <path d="M 127.173034 84.816 
L 163.688809 84.816 
" clip-path="url(#p3b2827a862)" style="fill: none; stroke: #d62728; stroke-width: 5"/>
   </g>
   <g id="line2d_11">
    <defs>
     <path id="me94d29b180" d="M 0 5 
C 1.326016 5 2.597899 4.473168 3.535534 3.535534 
C 4.473168 2.597899 5 1.326016 5 0 
C 5 -1.326016 4.473168 -2.597899 3.535534 -3.535534 
C 2.597899 -4.473168 1.326016 -5 0 -5 
C -1.326016 -5 -2.597899 -4.473168 -3.535534 -3.535534 
C -4.473168 -2.597899 -5 -1.326016 -5 0 
C -5 1.326016 -4.473168 2.597899 -3.535534 3.535534 
C -2.597899 4.473168 -1.326016 5 0 5 
z
" style="stroke: #d62728"/>
    </defs>
    <g clip-path="url(#p3b2827a862)">
     <use xlink:href="#me94d29b180" x="144.213729" y="84.816" style="fill: #d62728; stroke: #d62728"/>
    </g>
   </g>
  </g>
 </g>
 <defs>
  <clipPath id="p3b2827a862">
   <rect x="35.133804" y="7.2" width="558" height="166.32"/>
  </clipPath>
 </defs>
</svg>
