<?xml version="1.0" encoding="utf-8" standalone="no"?>
<!DOCTYPE svg PUBLIC "-//W3C//DTD SVG 1.1//EN"
  "http://www.w3.org/Graphics/SVG/1.1/DTD/svg11.dtd">
<svg xmlns:xlink="http://www.w3.org/1999/xlink" width="631.365213pt" height="399.184687pt" viewBox="0 0 631.365213 399.184687" xmlns="http://www.w3.org/2000/svg" version="1.1">
 <metadata>
  <rdf:RDF xmlns:dc="http://purl.org/dc/elements/1.1/" xmlns:cc="http://creativecommons.org/ns#" xmlns:rdf="http://www.w3.org/1999/02/22-rdf-syntax-ns#">
   <cc:Work>
    <dc:type rdf:resource="http://purl.org/dc/dcmitype/StillImage"/>
    <dc:date>2023-10-08T11:46:37.880528</dc:date>
    <dc:format>image/svg+xml</dc:format>
    <dc:creator>
     <cc:Agent>
      <dc:title>Matplotlib v3.7.1, https://matplotlib.org/</dc:title>
     </cc:Agent>
    </dc:creator>
   </cc:Work>
  </rdf:RDF>
 </metadata>
 <defs>
  <style type="text/css">*{stroke-linejoin: round; stroke-linecap: butt}</style>
 </defs>
 <g id="figure_1">
  <g id="patch_1">
   <path d="M 0 399.184687 
L 631.365213 399.184687 
L 631.365213 0 
L 0 0 
z
" style="fill: #ffffff"/>
  </g>
  <g id="axes_1">
   <g id="patch_2">
    <path d="M 60.720625 339.84 
L 601.980625 339.84 
L 601.980625 7.2 
L 60.720625 7.2 
z
" style="fill: #ffffff"/>
   </g>
   <g id="matplotlib.axis_1">
    <g id="xtick_1">
     <g id="line2d_1">
      <path d="M 60.720625 339.84 
L 60.720625 7.2 
" clip-path="url(#pd7226e3aeb)" style="fill: none; stroke: #d3d3d3; stroke-width: 0.5; stroke-linecap: round"/>
     </g>
     <g id="text_1">
      <text style="fill: #262626; font: 22px 'Arial', 'DejaVu Sans', 'Liberation Sans', 'Bitstream Vera Sans', sans-serif; text-anchor: middle" x="60.720625" y="365.087187" transform="rotate(-0 60.720625 365.087187)">10%</text>
     </g>
    </g>
    <g id="xtick_2">
     <g id="line2d_2">
      <path d="M 120.199746 339.84 
L 120.199746 7.2 
" clip-path="url(#pd7226e3aeb)" style="fill: none; stroke: #d3d3d3; stroke-width: 0.5; stroke-linecap: round"/>
     </g>
     <g id="text_2">
      <text style="fill: #262626; font: 22px 'Arial', 'DejaVu Sans', 'Liberation Sans', 'Bitstream Vera Sans', sans-serif; text-anchor: middle" x="120.199746" y="365.087187" transform="rotate(-0 120.199746 365.087187)">20%</text>
     </g>
    </g>
    <g id="xtick_3">
     <g id="line2d_3">
      <path d="M 179.678867 339.84 
L 179.678867 7.2 
" clip-path="url(#pd7226e3aeb)" style="fill: none; stroke: #d3d3d3; stroke-width: 0.5; stroke-linecap: round"/>
     </g>
     <g id="text_3">
      <text style="fill: #262626; font: 22px 'Arial', 'DejaVu Sans', 'Liberation Sans', 'Bitstream Vera Sans', sans-serif; text-anchor: middle" x="179.678867" y="365.087187" transform="rotate(-0 179.678867 365.087187)">30%</text>
     </g>
    </g>
    <g id="xtick_4">
     <g id="line2d_4">
      <path d="M 239.157988 339.84 
L 239.157988 7.2 
" clip-path="url(#pd7226e3aeb)" style="fill: none; stroke: #d3d3d3; stroke-width: 0.5; stroke-linecap: round"/>
     </g>
     <g id="text_4">
      <text style="fill: #262626; font: 22px 'Arial', 'DejaVu Sans', 'Liberation Sans', 'Bitstream Vera Sans', sans-serif; text-anchor: middle" x="239.157988" y="365.087187" transform="rotate(-0 239.157988 365.087187)">40%</text>
     </g>
    </g>
    <g id="xtick_5">
     <g id="line2d_5">
      <path d="M 298.637109 339.84 
L 298.637109 7.2 
" clip-path="url(#pd7226e3aeb)" style="fill: none; stroke: #d3d3d3; stroke-width: 0.5; stroke-linecap: round"/>
     </g>
     <g id="text_5">
      <text style="fill: #262626; font: 22px 'Arial', 'DejaVu Sans', 'Liberation Sans', 'Bitstream Vera Sans', sans-serif; text-anchor: middle" x="298.637109" y="365.087187" transform="rotate(-0 298.637109 365.087187)">50%</text>
     </g>
    </g>
    <g id="xtick_6">
     <g id="line2d_6">
      <path d="M 358.116229 339.84 
L 358.116229 7.2 
" clip-path="url(#pd7226e3aeb)" style="fill: none; stroke: #d3d3d3; stroke-width: 0.5; stroke-linecap: round"/>
     </g>
     <g id="text_6">
      <text style="fill: #262626; font: 22px 'Arial', 'DejaVu Sans', 'Liberation Sans', 'Bitstream Vera Sans', sans-serif; text-anchor: middle" x="358.116229" y="365.087187" transform="rotate(-0 358.116229 365.087187)">60%</text>
     </g>
    </g>
    <g id="xtick_7">
     <g id="line2d_7">
      <path d="M 417.59535 339.84 
L 417.59535 7.2 
" clip-path="url(#pd7226e3aeb)" style="fill: none; stroke: #d3d3d3; stroke-width: 0.5; stroke-linecap: round"/>
     </g>
     <g id="text_7">
      <text style="fill: #262626; font: 22px 'Arial', 'DejaVu Sans', 'Liberation Sans', 'Bitstream Vera Sans', sans-serif; text-anchor: middle" x="417.59535" y="365.087187" transform="rotate(-0 417.59535 365.087187)">70%</text>
     </g>
    </g>
    <g id="xtick_8">
     <g id="line2d_8">
      <path d="M 477.074471 339.84 
L 477.074471 7.2 
" clip-path="url(#pd7226e3aeb)" style="fill: none; stroke: #d3d3d3; stroke-width: 0.5; stroke-linecap: round"/>
     </g>
     <g id="text_8">
      <text style="fill: #262626; font: 22px 'Arial', 'DejaVu Sans', 'Liberation Sans', 'Bitstream Vera Sans', sans-serif; text-anchor: middle" x="477.074471" y="365.087187" transform="rotate(-0 477.074471 365.087187)">80%</text>
     </g>
    </g>
    <g id="xtick_9">
     <g id="line2d_9">
      <path d="M 536.553592 339.84 
L 536.553592 7.2 
" clip-path="url(#pd7226e3aeb)" style="fill: none; stroke: #d3d3d3; stroke-width: 0.5; stroke-linecap: round"/>
     </g>
     <g id="text_9">
      <text style="fill: #262626; font: 22px 'Arial', 'DejaVu Sans', 'Liberation Sans', 'Bitstream Vera Sans', sans-serif; text-anchor: middle" x="536.553592" y="365.087187" transform="rotate(-0 536.553592 365.087187)">90%</text>
     </g>
    </g>
    <g id="xtick_10">
     <g id="line2d_10">
      <path d="M 596.032713 339.84 
L 596.032713 7.2 
" clip-path="url(#pd7226e3aeb)" style="fill: none; stroke: #d3d3d3; stroke-width: 0.5; stroke-linecap: round"/>
     </g>
     <g id="text_10">
      <text style="fill: #262626; font: 22px 'Arial', 'DejaVu Sans', 'Liberation Sans', 'Bitstream Vera Sans', sans-serif; text-anchor: middle" x="596.032713" y="365.087187" transform="rotate(-0 596.032713 365.087187)">100%</text>
     </g>
    </g>
    <g id="text_11">
     <text style="fill: #262626; font: 20px 'Arial', 'DejaVu Sans', 'Liberation Sans', 'Bitstream Vera Sans', sans-serif; text-anchor: middle" x="331.350625" y="387.775312" transform="rotate(-0 331.350625 387.775312)">Mean accuracy per worker</text>
    </g>
   </g>
   <g id="matplotlib.axis_2">
    <g id="ytick_1">
     <g id="text_12">
      <text style="fill: #262626; font: 22px 'Arial', 'DejaVu Sans', 'Liberation Sans', 'Bitstream Vera Sans', sans-serif; text-anchor: end" x="51.220625" y="252.673594" transform="rotate(-0 51.220625 252.673594)">DX</text>
     </g>
    </g>
    <g id="ytick_2">
     <g id="text_13">
      <text style="fill: #262626; font: 22px 'Arial', 'DejaVu Sans', 'Liberation Sans', 'Bitstream Vera Sans', sans-serif; text-anchor: end" x="51.220625" y="94.273594" transform="rotate(-0 51.220625 94.273594)">SQL</text>
     </g>
    </g>
   </g>
   <g id="patch_3">
    <path d="M 1.241504 244.8 
L 1.241504 244.8 
L 1.241504 244.8 
L 1.241504 244.8 
z
" clip-path="url(#pd7226e3aeb)" style="fill: #5875a4; stroke: #4c4c4c; stroke-width: 0.75; stroke-linejoin: miter"/>
   </g>
   <g id="patch_4">
    <path d="M 1.241504 244.8 
L 1.241504 244.8 
L 1.241504 244.8 
L 1.241504 244.8 
z
" clip-path="url(#pd7226e3aeb)" style="fill: #cc8963; stroke: #4c4c4c; stroke-width: 0.75; stroke-linejoin: miter"/>
   </g>
   <g id="PolyCollection_1">
    <defs>
     <path id="m0bf3be8d5d" d="M 521.683812 -167.575575 
L 521.683812 -154.384687 
L 522.434811 -154.384687 
L 523.18581 -154.384687 
L 523.936809 -154.384687 
L 524.687808 -154.384687 
L 525.438807 -154.384687 
L 526.189806 -154.384687 
L 526.940805 -154.384687 
L 527.691804 -154.384687 
L 528.442803 -154.384687 
L 529.193802 -154.384687 
L 529.944801 -154.384687 
L 530.6958 -154.384687 
L 531.446799 -154.384687 
L 532.197798 -154.384687 
L 532.948797 -154.384687 
L 533.699796 -154.384687 
L 534.450795 -154.384687 
L 535.201794 -154.384687 
L 535.952793 -154.384687 
L 536.703792 -154.384687 
L 537.454791 -154.384687 
L 538.20579 -154.384687 
L 538.956789 -154.384687 
L 539.707788 -154.384687 
L 540.458787 -154.384687 
L 541.209786 -154.384687 
L 541.960785 -154.384687 
L 542.711784 -154.384687 
L 543.462783 -154.384687 
L 544.213782 -154.384687 
L 544.964781 -154.384687 
L 545.71578 -154.384687 
L 546.466779 -154.384687 
L 547.217778 -154.384687 
L 547.968777 -154.384687 
L 548.719776 -154.384687 
L 549.470775 -154.384687 
L 550.221774 -154.384687 
L 550.972773 -154.384687 
L 551.723772 -154.384687 
L 552.474771 -154.384687 
L 553.22577 -154.384687 
L 553.976769 -154.384687 
L 554.727768 -154.384687 
L 555.478767 -154.384687 
L 556.229766 -154.384687 
L 556.980765 -154.384687 
L 557.731764 -154.384687 
L 558.482763 -154.384687 
L 559.233762 -154.384687 
L 559.984761 -154.384687 
L 560.73576 -154.384687 
L 561.486759 -154.384687 
L 562.237758 -154.384687 
L 562.988757 -154.384687 
L 563.739756 -154.384687 
L 564.490755 -154.384687 
L 565.241754 -154.384687 
L 565.992753 -154.384687 
L 566.743752 -154.384687 
L 567.494751 -154.384687 
L 568.24575 -154.384687 
L 568.996749 -154.384687 
L 569.747748 -154.384687 
L 570.498747 -154.384687 
L 571.249746 -154.384687 
L 572.000745 -154.384687 
L 572.751744 -154.384687 
L 573.502743 -154.384687 
L 574.253742 -154.384687 
L 575.004741 -154.384687 
L 575.75574 -154.384687 
L 576.506739 -154.384687 
L 577.257738 -154.384687 
L 578.008737 -154.384687 
L 578.759736 -154.384687 
L 579.510735 -154.384687 
L 580.261734 -154.384687 
L 581.012733 -154.384687 
L 581.763732 -154.384687 
L 582.514731 -154.384687 
L 583.26573 -154.384687 
L 584.016729 -154.384687 
L 584.767728 -154.384687 
L 585.518727 -154.384687 
L 586.269726 -154.384687 
L 587.020725 -154.384687 
L 587.771724 -154.384687 
L 588.522723 -154.384687 
L 589.273722 -154.384687 
L 590.024721 -154.384687 
L 590.77572 -154.384687 
L 591.526719 -154.384687 
L 592.277718 -154.384687 
L 593.028717 -154.384687 
L 593.779716 -154.384687 
L 594.530715 -154.384687 
L 595.281714 -154.384687 
L 596.032713 -154.384687 
L 596.032713 -173.394317 
L 596.032713 -173.394317 
L 595.281714 -173.596395 
L 594.530715 -173.777574 
L 593.779716 -173.940842 
L 593.028717 -174.08965 
L 592.277718 -174.227878 
L 591.526719 -174.359799 
L 590.77572 -174.490023 
L 590.024721 -174.623447 
L 589.273722 -174.765184 
L 588.522723 -174.920495 
L 587.771724 -175.094716 
L 587.020725 -175.29317 
L 586.269726 -175.521091 
L 585.518727 -175.78353 
L 584.767728 -176.085272 
L 584.016729 -176.43075 
L 583.26573 -176.823955 
L 582.514731 -177.268357 
L 581.763732 -177.766828 
L 581.012733 -178.32157 
L 580.261734 -178.934051 
L 579.510735 -179.604949 
L 578.759736 -180.33411 
L 578.008737 -181.120508 
L 577.257738 -181.962229 
L 576.506739 -182.856456 
L 575.75574 -183.799475 
L 575.004741 -184.786691 
L 574.253742 -185.812659 
L 573.502743 -186.87113 
L 572.751744 -187.955106 
L 572.000745 -189.056912 
L 571.249746 -190.16828 
L 570.498747 -191.28044 
L 569.747748 -192.384226 
L 568.996749 -193.470187 
L 568.24575 -194.528706 
L 567.494751 -195.550124 
L 566.743752 -196.524864 
L 565.992753 -197.443565 
L 565.241754 -198.297202 
L 564.490755 -199.077214 
L 563.739756 -199.775622 
L 562.988757 -200.385138 
L 562.237758 -200.899269 
L 561.486759 -201.31241 
L 560.73576 -201.61992 
L 559.984761 -201.818189 
L 559.233762 -201.904687 
L 558.482763 -201.878001 
L 557.731764 -201.737848 
L 556.980765 -201.485083 
L 556.229766 -201.121678 
L 555.478767 -200.650693 
L 554.727768 -200.076231 
L 553.976769 -199.40337 
L 553.22577 -198.638094 
L 552.474771 -197.7872 
L 551.723772 -196.858204 
L 550.972773 -195.859231 
L 550.221774 -194.798902 
L 549.470775 -193.686213 
L 548.719776 -192.530415 
L 547.968777 -191.340893 
L 547.217778 -190.12704 
L 546.466779 -188.89814 
L 545.71578 -187.663256 
L 544.964781 -186.431122 
L 544.213782 -185.210042 
L 543.462783 -184.007802 
L 542.711784 -182.831593 
L 541.960785 -181.687937 
L 541.209786 -180.582641 
L 540.458787 -179.520742 
L 539.707788 -178.506488 
L 538.956789 -177.543314 
L 538.20579 -176.633835 
L 537.454791 -175.77986 
L 536.703792 -174.982403 
L 535.952793 -174.241715 
L 535.201794 -173.557322 
L 534.450795 -172.928071 
L 533.699796 -172.352186 
L 532.948797 -171.827328 
L 532.197798 -171.350661 
L 531.446799 -170.918923 
L 530.6958 -170.528495 
L 529.944801 -170.175478 
L 529.193802 -169.855767 
L 528.442803 -169.565122 
L 527.691804 -169.299238 
L 526.940805 -169.053815 
L 526.189806 -168.824623 
L 525.438807 -168.607555 
L 524.687808 -168.398688 
L 523.936809 -168.194327 
L 523.18581 -167.991046 
L 522.434811 -167.785724 
L 521.683812 -167.575575 
z
" style="stroke: #4c4c4c; stroke-width: 1.5"/>
    </defs>
    <g clip-path="url(#pd7226e3aeb)">
     <use xlink:href="#m0bf3be8d5d" x="0" y="399.184687" style="fill: #fdd0a2; stroke: #4c4c4c; stroke-width: 1.5"/>
    </g>
   </g>
   <g id="PolyCollection_2">
    <defs>
     <path id="md9c569a5a1" d="M 447.334911 -318.464289 
L 447.334911 -312.784687 
L 448.836909 -312.784687 
L 450.338907 -312.784687 
L 451.840905 -312.784687 
L 453.342903 -312.784687 
L 454.844901 -312.784687 
L 456.346899 -312.784687 
L 457.848897 -312.784687 
L 459.350895 -312.784687 
L 460.852893 -312.784687 
L 462.354891 -312.784687 
L 463.856889 -312.784687 
L 465.358887 -312.784687 
L 466.860885 -312.784687 
L 468.362883 -312.784687 
L 469.864881 -312.784687 
L 471.366879 -312.784687 
L 472.868877 -312.784687 
L 474.370875 -312.784687 
L 475.872873 -312.784687 
L 477.374871 -312.784687 
L 478.876869 -312.784687 
L 480.378867 -312.784687 
L 481.880865 -312.784687 
L 483.382863 -312.784687 
L 484.884861 -312.784687 
L 486.386859 -312.784687 
L 487.888857 -312.784687 
L 489.390855 -312.784687 
L 490.892853 -312.784687 
L 492.394851 -312.784687 
L 493.896849 -312.784687 
L 495.398847 -312.784687 
L 496.900845 -312.784687 
L 498.402843 -312.784687 
L 499.904841 -312.784687 
L 501.406839 -312.784687 
L 502.908837 -312.784687 
L 504.410835 -312.784687 
L 505.912833 -312.784687 
L 507.414831 -312.784687 
L 508.916829 -312.784687 
L 510.418827 -312.784687 
L 511.920825 -312.784687 
L 513.422823 -312.784687 
L 514.924821 -312.784687 
L 516.426819 -312.784687 
L 517.928817 -312.784687 
L 519.430815 -312.784687 
L 520.932813 -312.784687 
L 522.434811 -312.784687 
L 523.936809 -312.784687 
L 525.438807 -312.784687 
L 526.940805 -312.784687 
L 528.442803 -312.784687 
L 529.944801 -312.784687 
L 531.446799 -312.784687 
L 532.948797 -312.784687 
L 534.450795 -312.784687 
L 535.952793 -312.784687 
L 537.454791 -312.784687 
L 538.956789 -312.784687 
L 540.458787 -312.784687 
L 541.960785 -312.784687 
L 543.462783 -312.784687 
L 544.964781 -312.784687 
L 546.466779 -312.784687 
L 547.968777 -312.784687 
L 549.470775 -312.784687 
L 550.972773 -312.784687 
L 552.474771 -312.784687 
L 553.976769 -312.784687 
L 555.478767 -312.784687 
L 556.980765 -312.784687 
L 558.482763 -312.784687 
L 559.984761 -312.784687 
L 561.486759 -312.784687 
L 562.988757 -312.784687 
L 564.490755 -312.784687 
L 565.992753 -312.784687 
L 567.494751 -312.784687 
L 568.996749 -312.784687 
L 570.498747 -312.784687 
L 572.000745 -312.784687 
L 573.502743 -312.784687 
L 575.004741 -312.784687 
L 576.506739 -312.784687 
L 578.008737 -312.784687 
L 579.510735 -312.784687 
L 581.012733 -312.784687 
L 582.514731 -312.784687 
L 584.016729 -312.784687 
L 585.518727 -312.784687 
L 587.020725 -312.784687 
L 588.522723 -312.784687 
L 590.024721 -312.784687 
L 591.526719 -312.784687 
L 593.028717 -312.784687 
L 594.530715 -312.784687 
L 596.032713 -312.784687 
L 596.032713 -341.186506 
L 596.032713 -341.186506 
L 594.530715 -342.343375 
L 593.028717 -343.50052 
L 591.526719 -344.655508 
L 590.024721 -345.805596 
L 588.522723 -346.94768 
L 587.020725 -348.078248 
L 585.518727 -349.193341 
L 584.016729 -350.288535 
L 582.514731 -351.35893 
L 581.012733 -352.399163 
L 579.510735 -353.403441 
L 578.008737 -354.365584 
L 576.506739 -355.279101 
L 575.004741 -356.137277 
L 573.502743 -356.933276 
L 572.000745 -357.66026 
L 570.498747 -358.311525 
L 568.996749 -358.880632 
L 567.494751 -359.361553 
L 565.992753 -359.748807 
L 564.490755 -360.037593 
L 562.988757 -360.223915 
L 561.486759 -360.304688 
L 559.984761 -360.277822 
L 558.482763 -360.142295 
L 556.980765 -359.898191 
L 555.478767 -359.546716 
L 553.976769 -359.090187 
L 552.474771 -358.531994 
L 550.972773 -357.876541 
L 549.470775 -357.129155 
L 547.968777 -356.295983 
L 546.466779 -355.383871 
L 544.964781 -354.400226 
L 543.462783 -353.352875 
L 541.960785 -352.249916 
L 540.458787 -351.099576 
L 538.956789 -349.910066 
L 537.454791 -348.689453 
L 535.952793 -347.44554 
L 534.450795 -346.185762 
L 532.948797 -344.917101 
L 531.446799 -343.646019 
L 529.944801 -342.378414 
L 528.442803 -341.119587 
L 526.940805 -339.874237 
L 525.438807 -338.646471 
L 523.936809 -337.439822 
L 522.434811 -336.257292 
L 520.932813 -335.101393 
L 519.430815 -333.974208 
L 517.928817 -332.877444 
L 516.426819 -331.812497 
L 514.924821 -330.78051 
L 513.422823 -329.78243 
L 511.920825 -328.819061 
L 510.418827 -327.891112 
L 508.916829 -326.999227 
L 507.414831 -326.144025 
L 505.912833 -325.326111 
L 504.410835 -324.546093 
L 502.908837 -323.804582 
L 501.406839 -323.102191 
L 499.904841 -322.439522 
L 498.402843 -321.817147 
L 496.900845 -321.235592 
L 495.398847 -320.695305 
L 493.896849 -320.196637 
L 492.394851 -319.739809 
L 490.892853 -319.324888 
L 489.390855 -318.951759 
L 487.888857 -318.620108 
L 486.386859 -318.329394 
L 484.884861 -318.078839 
L 483.382863 -317.867415 
L 481.880865 -317.693835 
L 480.378867 -317.556556 
L 478.876869 -317.453775 
L 477.374871 -317.383443 
L 475.872873 -317.343273 
L 474.370875 -317.330764 
L 472.868877 -317.343216 
L 471.366879 -317.377758 
L 469.864881 -317.431381 
L 468.362883 -317.500965 
L 466.860885 -317.583319 
L 465.358887 -317.675216 
L 463.856889 -317.77343 
L 462.354891 -317.874779 
L 460.852893 -317.976162 
L 459.350895 -318.074594 
L 457.848897 -318.167252 
L 456.346899 -318.251501 
L 454.844901 -318.32493 
L 453.342903 -318.38538 
L 451.840905 -318.43097 
L 450.338907 -318.460114 
L 448.836909 -318.471538 
L 447.334911 -318.464289 
z
" style="stroke: #4c4c4c; stroke-width: 1.5"/>
    </defs>
    <g clip-path="url(#pd7226e3aeb)">
     <use xlink:href="#md9c569a5a1" x="0" y="399.184687" style="fill: #c6dbef; stroke: #4c4c4c; stroke-width: 1.5"/>
    </g>
   </g>
   <g id="line2d_11">
    <path d="M 558.858262 244.8 
L 558.858262 197.78162 
" clip-path="url(#pd7226e3aeb)" style="fill: none"/>
   </g>
   <g id="line2d_12">
    <path d="M 558.858262 244.8 
L 558.858262 197.78162 
" clip-path="url(#pd7226e3aeb)" style="fill: none; stroke: #000000; stroke-opacity: 0.8; stroke-width: 1.2; stroke-linecap: round"/>
   </g>
   <g id="line2d_13">
    <path d="M 558.858262 244.8 
L 558.858262 197.78162 
" clip-path="url(#pd7226e3aeb)" style="fill: none"/>
   </g>
   <g id="line2d_14">
    <path d="M 558.858262 86.4 
L 558.858262 39.515968 
" clip-path="url(#pd7226e3aeb)" style="fill: none"/>
   </g>
   <g id="line2d_15">
    <path d="M 558.858262 86.4 
L 558.858262 39.515968 
" clip-path="url(#pd7226e3aeb)" style="fill: none; stroke: #000000; stroke-opacity: 0.8; stroke-width: 1.2; stroke-linecap: round"/>
   </g>
   <g id="line2d_16">
    <path d="M 558.858262 86.4 
L 558.858262 39.515968 
" clip-path="url(#pd7226e3aeb)" style="fill: none"/>
   </g>
   <g id="patch_5">
    <path d="M 60.720625 339.84 
L 60.720625 7.2 
" style="fill: none; stroke: #cccccc; stroke-width: 1.25; stroke-linejoin: miter; stroke-linecap: square"/>
   </g>
   <g id="patch_6">
    <path d="M 60.720625 339.84 
L 601.980625 339.84 
" style="fill: none; stroke: #cccccc; stroke-width: 1.25; stroke-linejoin: miter; stroke-linecap: square"/>
   </g>
   <g id="text_14">
    <text style="fill: #e6550d; font: 24px 'Arial', 'DejaVu Sans', 'Liberation Sans', 'Bitstream Vera Sans', sans-serif; text-anchor: middle" x="561.717835" y="276.48" transform="rotate(-0 561.717835 276.48)">94%</text>
   </g>
   <g id="text_15">
    <text style="fill: #3182bd; font: 24px 'Arial', 'DejaVu Sans', 'Liberation Sans', 'Bitstream Vera Sans', sans-serif; text-anchor: middle" x="553.139116" y="118.08" transform="rotate(-0 553.139116 118.08)">93%</text>
   </g>
   <g id="line2d_17">
    <path d="M 561.717835 244.8 
L 553.139116 86.4 
" clip-path="url(#pd7226e3aeb)" style="fill: none; stroke: #ff0000; stroke-opacity: 0.3; stroke-width: 2; stroke-linecap: round"/>
   </g>
   <g id="PathCollection_1">
    <defs>
     <path id="m1c63bf4017" d="M 0 -6.123724 
L -6.123724 6.123724 
L 6.123724 6.123724 
z
"/>
    </defs>
    <g clip-path="url(#pd7226e3aeb)">
     <use xlink:href="#m1c63bf4017" x="521.683812" y="324" style="fill: #e6550d"/>
     <use xlink:href="#m1c63bf4017" x="521.683812" y="319.248" style="fill: #e6550d"/>
     <use xlink:href="#m1c63bf4017" x="558.858262" y="324" style="fill: #e6550d"/>
     <use xlink:href="#m1c63bf4017" x="558.858262" y="319.248" style="fill: #e6550d"/>
     <use xlink:href="#m1c63bf4017" x="558.858262" y="314.496" style="fill: #e6550d"/>
     <use xlink:href="#m1c63bf4017" x="558.858262" y="309.744" style="fill: #e6550d"/>
     <use xlink:href="#m1c63bf4017" x="558.858262" y="304.992" style="fill: #e6550d"/>
     <use xlink:href="#m1c63bf4017" x="558.858262" y="300.24" style="fill: #e6550d"/>
     <use xlink:href="#m1c63bf4017" x="558.858262" y="295.488" style="fill: #e6550d"/>
     <use xlink:href="#m1c63bf4017" x="558.858262" y="290.736" style="fill: #e6550d"/>
     <use xlink:href="#m1c63bf4017" x="596.032713" y="324" style="fill: #e6550d"/>
     <use xlink:href="#m1c63bf4017" x="596.032713" y="319.248" style="fill: #e6550d"/>
     <use xlink:href="#m1c63bf4017" x="596.032713" y="314.496" style="fill: #e6550d"/>
    </g>
   </g>
   <g id="PathCollection_2">
    <defs>
     <path id="m599fde622e" d="M 0 -6.123724 
L -6.123724 6.123724 
L 6.123724 6.123724 
z
"/>
    </defs>
    <g clip-path="url(#pd7226e3aeb)">
     <use xlink:href="#m599fde622e" x="447.334911" y="165.6" style="fill: #3182bd"/>
     <use xlink:href="#m599fde622e" x="521.683812" y="165.6" style="fill: #3182bd"/>
     <use xlink:href="#m599fde622e" x="521.683812" y="160.848" style="fill: #3182bd"/>
     <use xlink:href="#m599fde622e" x="558.858262" y="165.6" style="fill: #3182bd"/>
     <use xlink:href="#m599fde622e" x="558.858262" y="160.848" style="fill: #3182bd"/>
     <use xlink:href="#m599fde622e" x="558.858262" y="156.096" style="fill: #3182bd"/>
     <use xlink:href="#m599fde622e" x="558.858262" y="151.344" style="fill: #3182bd"/>
     <use xlink:href="#m599fde622e" x="558.858262" y="146.592" style="fill: #3182bd"/>
     <use xlink:href="#m599fde622e" x="558.858262" y="141.84" style="fill: #3182bd"/>
     <use xlink:href="#m599fde622e" x="558.858262" y="137.088" style="fill: #3182bd"/>
     <use xlink:href="#m599fde622e" x="596.032713" y="165.6" style="fill: #3182bd"/>
     <use xlink:href="#m599fde622e" x="596.032713" y="160.848" style="fill: #3182bd"/>
     <use xlink:href="#m599fde622e" x="596.032713" y="156.096" style="fill: #3182bd"/>
    </g>
   </g>
   <g id="LineCollection_1">
    <path d="M 550.279543 244.8 
L 573.156128 244.8 
" clip-path="url(#pd7226e3aeb)" style="fill: none; stroke: #e6550d; stroke-width: 5"/>
   </g>
   <g id="LineCollection_2">
    <path d="M 530.262531 86.4 
L 570.296555 86.4 
" clip-path="url(#pd7226e3aeb)" style="fill: none; stroke: #3182bd; stroke-width: 5"/>
   </g>
   <g id="line2d_18">
    <defs>
     <path id="mcb5b48fc93" d="M 0 5 
C 1.326016 5 2.597899 4.473168 3.535534 3.535534 
C 4.473168 2.597899 5 1.326016 5 0 
C 5 -1.326016 4.473168 -2.597899 3.535534 -3.535534 
C 2.597899 -4.473168 1.326016 -5 0 -5 
C -1.326016 -5 -2.597899 -4.473168 -3.535534 -3.535534 
C -4.473168 -2.597899 -5 -1.326016 -5 0 
C -5 1.326016 -4.473168 2.597899 -3.535534 3.535534 
C -2.597899 4.473168 -1.326016 5 0 5 
z
" style="stroke: #e6550d"/>
    </defs>
    <g clip-path="url(#pd7226e3aeb)">
     <use xlink:href="#mcb5b48fc93" x="561.717835" y="244.8" style="fill: #e6550d; stroke: #e6550d"/>
    </g>
   </g>
   <g id="line2d_19">
    <defs>
     <path id="m336c36a214" d="M 0 5 
C 1.326016 5 2.597899 4.473168 3.535534 3.535534 
C 4.473168 2.597899 5 1.326016 5 0 
C 5 -1.326016 4.473168 -2.597899 3.535534 -3.535534 
C 2.597899 -4.473168 1.326016 -5 0 -5 
C -1.326016 -5 -2.597899 -4.473168 -3.535534 -3.535534 
C -4.473168 -2.597899 -5 -1.326016 -5 0 
C -5 1.326016 -4.473168 2.597899 -3.535534 3.535534 
C -2.597899 4.473168 -1.326016 5 0 5 
z
" style="stroke: #3182bd"/>
    </defs>
    <g clip-path="url(#pd7226e3aeb)">
     <use xlink:href="#m336c36a214" x="553.139116" y="86.4" style="fill: #3182bd; stroke: #3182bd"/>
    </g>
   </g>
  </g>
 </g>
 <defs>
  <clipPath id="pd7226e3aeb">
   <rect x="60.720625" y="7.2" width="541.26" height="332.64"/>
  </clipPath>
 </defs>
</svg>
